<?xml version="1.0" encoding="UTF-8"?>
<svg id="OUTLINES" xmlns="http://www.w3.org/2000/svg" viewBox="0 0 1152 1008">
  <defs>
    <style>
      .cls-1 {
        fill: #fff;
      }

      .cls-2 {
        fill: #000f7d;
      }
    </style>
  </defs>
  <rect class="cls-1" x="290.82" y="218.82" width="588.36" height="615.36" rx="23.14" ry="23.14"/>
  <g>
    <polygon class="cls-2" points="345.87 286.42 357.62 286.42 357.62 281.43 345.87 281.43 345.87 274.41 358.56 274.41 358.56 269.37 340.16 269.37 340.16 297 345.87 297 345.87 286.42"/>
    <rect class="cls-2" x="362.47" y="276.88" width="5.58" height="20.12"/>
    <path class="cls-2" d="M365.26,274.28c.9,0,1.67-.3,2.32-.9.65-.6.97-1.37.97-2.29s-.32-1.66-.97-2.27c-.65-.61-1.42-.92-2.32-.92s-1.68.31-2.34.92c-.66.62-.99,1.37-.99,2.27s.32,1.7.97,2.29c.64.6,1.43.9,2.36.9Z"/>
    <path class="cls-2" d="M374.13,290.92c0,2.16.59,3.78,1.76,4.86s2.8,1.62,4.9,1.62c1.62,0,2.82-.21,3.6-.63v-4.95c-.69.45-1.5.67-2.43.67-1.53,0-2.29-.76-2.29-2.29v-8.82h4.41v-4.5h-4.41v-5.44h-5.54v5.44h-3.06v4.5h3.06v9.54Z"/>
    <path class="cls-2" d="M394.02,284.26c.21-.87.65-1.55,1.33-2.05.67-.5,1.45-.74,2.32-.74,1.08,0,1.9.32,2.45.97.55.65.83,1.51.83,2.59v11.97h5.58v-13.14c0-2.25-.62-4.05-1.87-5.4s-2.99-2.03-5.24-2.03-4.08.77-5.4,2.3v-1.85h-5.58v20.12h5.58v-12.74Z"/>
    <path class="cls-2" d="M419.67,297.45c2.49,0,4.51-.62,6.05-1.87,1.54-1.24,2.5-2.96,2.86-5.15h-5.17c-.45,1.68-1.7,2.52-3.74,2.52-1.26,0-2.28-.43-3.06-1.28-.78-.86-1.21-2.03-1.3-3.53h13.41v-1.71c0-3.03-.8-5.45-2.41-7.27-1.61-1.81-3.85-2.72-6.73-2.72s-5.14,1-6.95,2.99c-1.82,2-2.72,4.51-2.72,7.54s.9,5.65,2.7,7.58c1.8,1.93,4.15,2.9,7.06,2.9ZM419.62,280.98c1.11,0,1.98.35,2.61,1.06.63.71.96,1.61.99,2.72h-7.79c.51-2.52,1.9-3.78,4.18-3.78Z"/>
    <path class="cls-2" d="M439.92,293.22c-1.8,0-2.92-.73-3.38-2.21h-5.54c.3,2.04,1.24,3.62,2.83,4.75,1.59,1.12,3.63,1.69,6.12,1.69s4.37-.58,5.92-1.75,2.32-2.76,2.32-4.77c0-3.03-1.79-4.98-5.36-5.85l-4.14-.95c-1.2-.3-1.8-.82-1.8-1.58,0-.6.26-1.06.79-1.39.52-.33,1.15-.5,1.87-.5,1.68,0,2.73.66,3.15,1.98h5.31c-.36-1.95-1.25-3.47-2.68-4.57-1.42-1.09-3.38-1.64-5.87-1.64-2.28,0-4.18.61-5.71,1.82s-2.29,2.78-2.29,4.7c0,2.97,1.74,4.86,5.22,5.67l4.05.9c.72.18,1.24.4,1.55.65s.47.61.47,1.06c0,1.32-.95,1.98-2.83,1.98Z"/>
    <path class="cls-2" d="M459.58,293.22c-1.8,0-2.92-.73-3.38-2.21h-5.54c.3,2.04,1.24,3.62,2.83,4.75,1.59,1.12,3.63,1.69,6.12,1.69s4.37-.58,5.92-1.75,2.32-2.76,2.32-4.77c0-3.03-1.79-4.98-5.36-5.85l-4.14-.95c-1.2-.3-1.8-.82-1.8-1.58,0-.6.26-1.06.79-1.39.52-.33,1.15-.5,1.87-.5,1.68,0,2.73.66,3.15,1.98h5.31c-.36-1.95-1.25-3.47-2.68-4.57-1.42-1.09-3.38-1.64-5.87-1.64-2.28,0-4.18.61-5.71,1.82s-2.29,2.78-2.29,4.7c0,2.97,1.74,4.86,5.22,5.67l4.05.9c.72.18,1.24.4,1.55.65s.47.61.47,1.06c0,1.32-.95,1.98-2.83,1.98Z"/>
    <path class="cls-2" d="M487.12,287.42h5.54c2.97,0,5.33-.78,7.09-2.34s2.63-3.78,2.63-6.66-.88-5.11-2.63-6.68-4.12-2.36-7.09-2.36h-11.25v27.63h5.71v-9.58ZM487.12,274.28h5.17c1.44,0,2.54.37,3.29,1.1.75.74,1.12,1.75,1.12,3.04s-.38,2.22-1.12,2.97-1.84,1.12-3.29,1.12h-5.17v-8.23Z"/>
    <rect class="cls-2" x="506.02" y="267.75" width="5.58" height="29.25"/>
    <path class="cls-2" d="M525.64,284.76c-.9-.24-1.77-.36-2.61-.36-2.22,0-4.07.6-5.56,1.8s-2.23,2.75-2.23,4.63c0,2.01.71,3.6,2.14,4.77,1.42,1.17,3.2,1.75,5.33,1.75,1.05,0,2.04-.15,2.97-.45.93-.3,1.58-.63,1.93-.99v1.08h5.36v-12.83c0-2.43-.74-4.33-2.23-5.69-1.49-1.36-3.56-2.05-6.23-2.05-2.25,0-4.15.61-5.69,1.82-1.55,1.21-2.47,2.75-2.77,4.61h5.31c.48-1.26,1.47-1.89,2.97-1.89,1.08,0,1.9.29,2.45.88.55.58.83,1.33.83,2.23v1.49c-.42-.3-1.08-.57-1.98-.81ZM527.62,291.51c-.24.54-.7.97-1.37,1.28-.67.31-1.43.47-2.27.47-.99,0-1.83-.21-2.52-.63-.69-.42-1.04-1.04-1.04-1.84s.35-1.42,1.06-1.84,1.54-.63,2.5-.63c.84,0,1.6.16,2.27.47.67.32,1.13.74,1.37,1.28v1.44Z"/>
    <path class="cls-2" d="M543.1,284.26c.21-.87.65-1.55,1.33-2.05.67-.5,1.45-.74,2.32-.74,1.08,0,1.9.32,2.45.97.55.65.83,1.51.83,2.59v11.97h5.58v-13.14c0-2.25-.62-4.05-1.87-5.4s-2.99-2.03-5.24-2.03-4.08.77-5.4,2.3v-1.85h-5.58v20.12h5.58v-12.74Z"/>
    <path class="cls-2" d="M565.83,284.26c.21-.87.65-1.55,1.33-2.05.67-.5,1.45-.74,2.32-.74,1.08,0,1.9.32,2.45.97.55.65.83,1.51.83,2.59v11.97h5.58v-13.14c0-2.25-.62-4.05-1.87-5.4s-2.99-2.03-5.24-2.03-4.08.77-5.4,2.3v-1.85h-5.58v20.12h5.58v-12.74Z"/>
    <path class="cls-2" d="M591.47,297.45c2.49,0,4.51-.62,6.05-1.87,1.54-1.24,2.5-2.96,2.86-5.15h-5.17c-.45,1.68-1.7,2.52-3.74,2.52-1.26,0-2.28-.43-3.06-1.28-.78-.86-1.21-2.03-1.3-3.53h13.41v-1.71c0-3.03-.8-5.45-2.41-7.27-1.61-1.81-3.85-2.72-6.73-2.72s-5.14,1-6.95,2.99c-1.82,2-2.72,4.51-2.72,7.54s.9,5.65,2.7,7.58c1.8,1.93,4.15,2.9,7.06,2.9ZM591.43,280.98c1.11,0,1.98.35,2.61,1.06.63.71.96,1.61.99,2.72h-7.79c.51-2.52,1.9-3.78,4.18-3.78Z"/>
    <path class="cls-2" d="M609.65,284.54c.21-.9.66-1.6,1.35-2.09.69-.5,1.51-.74,2.47-.74,1.11,0,2.04.22,2.79.67v-5.58c-.42-.24-1.12-.36-2.12-.36-2.04,0-3.54.81-4.5,2.43v-1.98h-5.58v20.12h5.58v-12.46Z"/>
    <rect class="cls-2" x="629.41" y="276.88" width="5.58" height="20.12"/>
    <path class="cls-2" d="M632.2,274.28c.9,0,1.67-.3,2.32-.9.65-.6.97-1.37.97-2.29s-.32-1.66-.97-2.27c-.65-.61-1.42-.92-2.32-.92s-1.68.31-2.34.92c-.66.62-.99,1.37-.99,2.27s.32,1.7.97,2.29c.64.6,1.43.9,2.36.9Z"/>
    <path class="cls-2" d="M647.45,293.22c-1.8,0-2.92-.73-3.38-2.21h-5.54c.3,2.04,1.24,3.62,2.83,4.75,1.59,1.12,3.63,1.69,6.12,1.69s4.37-.58,5.92-1.75,2.32-2.76,2.32-4.77c0-3.03-1.79-4.98-5.36-5.85l-4.14-.95c-1.2-.3-1.8-.82-1.8-1.58,0-.6.26-1.06.79-1.39.52-.33,1.15-.5,1.87-.5,1.68,0,2.73.66,3.15,1.98h5.31c-.36-1.95-1.25-3.47-2.68-4.57-1.42-1.09-3.38-1.64-5.87-1.64-2.28,0-4.18.61-5.71,1.82s-2.29,2.78-2.29,4.7c0,2.97,1.74,4.86,5.22,5.67l4.05.9c.72.18,1.24.4,1.55.65s.47.61.47,1.06c0,1.32-.95,1.98-2.83,1.98Z"/>
    <path class="cls-2" d="M345.51,329.54c.21-.9.66-1.6,1.35-2.09.69-.5,1.51-.74,2.47-.74,1.11,0,2.04.22,2.79.67v-5.58c-.42-.24-1.12-.36-2.12-.36-2.04,0-3.54.81-4.5,2.43v-1.98h-5.58v20.12h5.58v-12.46Z"/>
    <path class="cls-2" d="M356.69,324.43c-1.82,2-2.72,4.51-2.72,7.54s.9,5.65,2.7,7.58c1.8,1.93,4.15,2.9,7.06,2.9,2.49,0,4.51-.62,6.05-1.87,1.54-1.24,2.5-2.96,2.86-5.15h-5.17c-.45,1.68-1.7,2.52-3.74,2.52-1.26,0-2.28-.43-3.06-1.28-.78-.86-1.21-2.03-1.3-3.53h13.41v-1.71c0-3.03-.8-5.45-2.41-7.27-1.61-1.81-3.85-2.72-6.73-2.72s-5.14,1-6.95,2.99ZM366.3,327.04c.63.71.96,1.61.99,2.72h-7.79c.51-2.52,1.9-3.78,4.18-3.78,1.11,0,1.98.35,2.61,1.06Z"/>
    <path class="cls-2" d="M377.68,324.47c-1.65,2.02-2.47,4.52-2.47,7.49s.83,5.46,2.47,7.47c1.65,2.01,3.88,3.02,6.71,3.02,1.02,0,2-.21,2.93-.63.93-.42,1.63-.92,2.11-1.49v9.09h5.58v-27.54h-5.58v1.67c-.48-.57-1.19-1.06-2.11-1.48-.93-.42-1.91-.63-2.93-.63-2.82,0-5.05,1.01-6.71,3.04ZM387.88,326.95c.67.44,1.19,1,1.55,1.69v6.62c-.33.69-.84,1.25-1.53,1.69-.69.44-1.44.65-2.25.65-1.47,0-2.64-.52-3.51-1.58-.87-1.05-1.3-2.4-1.3-4.05s.43-3.01,1.3-4.07c.87-1.06,2.04-1.6,3.51-1.6.81,0,1.55.22,2.23.65Z"/>
    <path class="cls-2" d="M405.23,333.9v-12.02h-5.58v13.14c0,2.25.62,4.05,1.87,5.4,1.25,1.35,2.98,2.03,5.2,2.03s4.02-.77,5.4-2.29v1.84h5.58v-20.12h-5.62v12.78c-.21.87-.65,1.55-1.3,2.05-.66.49-1.43.74-2.29.74-1.08,0-1.89-.32-2.43-.95s-.81-1.5-.81-2.61Z"/>
    <path class="cls-2" d="M421.24,331.96c0,3.12.9,5.65,2.7,7.58,1.8,1.93,4.15,2.9,7.06,2.9,2.49,0,4.51-.62,6.05-1.87,1.54-1.24,2.5-2.96,2.86-5.15h-5.17c-.45,1.68-1.7,2.52-3.74,2.52-1.26,0-2.28-.43-3.06-1.28-.78-.86-1.21-2.03-1.3-3.53h13.41v-1.71c0-3.03-.8-5.45-2.41-7.27-1.61-1.81-3.85-2.72-6.73-2.72s-5.14,1-6.95,2.99c-1.82,2-2.72,4.51-2.72,7.54ZM430.96,325.98c1.11,0,1.98.35,2.61,1.06.63.71.96,1.61.99,2.72h-7.79c.51-2.52,1.9-3.78,4.18-3.78Z"/>
    <path class="cls-2" d="M451.26,338.22c-1.8,0-2.92-.73-3.38-2.21h-5.54c.3,2.04,1.24,3.62,2.83,4.75,1.59,1.12,3.63,1.69,6.12,1.69s4.37-.58,5.92-1.75,2.32-2.76,2.32-4.77c0-3.03-1.79-4.98-5.36-5.85l-4.14-.95c-1.2-.3-1.8-.82-1.8-1.58,0-.6.26-1.06.79-1.39.52-.33,1.15-.5,1.87-.5,1.68,0,2.73.66,3.15,1.98h5.31c-.36-1.95-1.25-3.47-2.68-4.57-1.42-1.09-3.38-1.64-5.87-1.64-2.28,0-4.18.61-5.71,1.82s-2.29,2.78-2.29,4.7c0,2.97,1.74,4.86,5.22,5.67l4.05.9c.72.18,1.24.4,1.55.65s.47.61.47,1.06c0,1.32-.95,1.98-2.83,1.98Z"/>
    <path class="cls-2" d="M464.53,316.44v5.44h-3.06v4.5h3.06v9.54c0,2.16.59,3.78,1.76,4.86s2.8,1.62,4.9,1.62c1.62,0,2.82-.21,3.6-.63v-4.95c-.69.45-1.5.67-2.43.67-1.53,0-2.29-.76-2.29-2.29v-8.82h4.41v-4.5h-4.41v-5.44h-5.54Z"/>
    <path class="cls-2" d="M481.63,319.28c.9,0,1.67-.3,2.32-.9.65-.6.97-1.37.97-2.29s-.32-1.66-.97-2.27c-.65-.61-1.42-.92-2.32-.92s-1.68.31-2.34.92c-.66.62-.99,1.37-.99,2.27s.32,1.7.97,2.29c.64.6,1.43.9,2.36.9Z"/>
    <rect class="cls-2" x="478.84" y="321.88" width="5.58" height="20.12"/>
    <path class="cls-2" d="M494.86,323.73v-1.85h-5.58v20.12h5.58v-12.74c.21-.87.65-1.55,1.33-2.05.67-.5,1.45-.74,2.32-.74,1.08,0,1.9.32,2.45.97.55.65.83,1.51.83,2.59v11.97h5.58v-13.14c0-2.25-.62-4.05-1.87-5.4s-2.99-2.03-5.24-2.03-4.08.77-5.4,2.3Z"/>
    <path class="cls-2" d="M513.22,338.62c1.65,1.95,3.87,2.92,6.66,2.92,2.16,0,3.81-.69,4.95-2.07v1.17c0,3.27-1.44,4.9-4.32,4.9-2.19,0-3.51-.94-3.96-2.83h-5.4c.3,2.25,1.28,4,2.95,5.27,1.67,1.26,3.8,1.89,6.41,1.89,2.97,0,5.36-.85,7.16-2.54,1.8-1.69,2.7-4.21,2.7-7.54v-17.91h-5.54v1.58c-1.17-1.35-2.82-2.03-4.95-2.03-2.79,0-5.01.98-6.66,2.93-1.65,1.95-2.47,4.32-2.47,7.11s.83,5.21,2.47,7.16ZM517.59,327.6c.84-.99,2-1.48,3.46-1.48,1.68,0,2.94.69,3.78,2.07v6.57c-.36.6-.88,1.1-1.55,1.51-.67.41-1.42.61-2.23.61-1.47,0-2.62-.5-3.46-1.51-.84-1-1.26-2.3-1.26-3.89s.42-2.88,1.26-3.87Z"/>
    <path class="cls-2" d="M547.13,323.26c-1.55,1.21-2.47,2.75-2.77,4.61h5.31c.48-1.26,1.47-1.89,2.97-1.89,1.08,0,1.9.29,2.45.88.55.58.83,1.33.83,2.23v1.49c-.42-.3-1.08-.57-1.98-.81-.9-.24-1.77-.36-2.61-.36-2.22,0-4.07.6-5.56,1.8s-2.23,2.75-2.23,4.63c0,2.01.71,3.6,2.14,4.77,1.42,1.17,3.2,1.75,5.33,1.75,1.05,0,2.04-.15,2.97-.45.93-.3,1.58-.63,1.93-.99v1.08h5.36v-12.83c0-2.43-.74-4.33-2.23-5.69-1.49-1.36-3.56-2.05-6.23-2.05-2.25,0-4.15.61-5.69,1.82ZM555.93,336.51c-.24.54-.7.97-1.37,1.28-.67.31-1.43.47-2.27.47-.99,0-1.83-.21-2.52-.63-.69-.42-1.04-1.04-1.04-1.84s.35-1.42,1.06-1.84,1.54-.63,2.5-.63c.84,0,1.6.16,2.27.47.67.32,1.13.74,1.37,1.28v1.44Z"/>
    <path class="cls-2" d="M567.27,324.36c-1.8,1.95-2.7,4.49-2.7,7.6s.9,5.61,2.7,7.56,4.12,2.92,6.97,2.92c2.49,0,4.51-.66,6.05-1.98,1.54-1.32,2.47-3.07,2.77-5.26h-5.49c-.15.78-.52,1.39-1.1,1.82-.58.44-1.33.65-2.23.65-1.26,0-2.27-.52-3.01-1.57-.75-1.05-1.12-2.43-1.12-4.14s.38-3.13,1.12-4.18c.75-1.05,1.75-1.58,3.01-1.58.9,0,1.64.22,2.23.65.58.44.95,1.04,1.1,1.82h5.49c-.3-2.19-1.23-3.94-2.79-5.26-1.56-1.32-3.57-1.98-6.03-1.98-2.85,0-5.17.98-6.97,2.93Z"/>
    <path class="cls-2" d="M587.97,324.36c-1.8,1.95-2.7,4.49-2.7,7.6s.9,5.61,2.7,7.56,4.12,2.92,6.97,2.92c2.49,0,4.51-.66,6.05-1.98,1.54-1.32,2.47-3.07,2.77-5.26h-5.49c-.15.78-.52,1.39-1.1,1.82-.58.44-1.33.65-2.23.65-1.26,0-2.27-.52-3.01-1.57-.75-1.05-1.12-2.43-1.12-4.14s.38-3.13,1.12-4.18c.75-1.05,1.75-1.58,3.01-1.58.9,0,1.64.22,2.23.65.58.44.95,1.04,1.1,1.82h5.49c-.3-2.19-1.23-3.94-2.79-5.26-1.56-1.32-3.57-1.98-6.03-1.98-2.85,0-5.17.98-6.97,2.93Z"/>
    <path class="cls-2" d="M608.69,324.43c-1.82,2-2.72,4.51-2.72,7.54s.9,5.65,2.7,7.58c1.8,1.93,4.15,2.9,7.06,2.9,2.49,0,4.51-.62,6.05-1.87,1.54-1.24,2.5-2.96,2.86-5.15h-5.17c-.45,1.68-1.7,2.52-3.74,2.52-1.26,0-2.28-.43-3.06-1.28-.78-.86-1.21-2.03-1.3-3.53h13.41v-1.71c0-3.03-.8-5.45-2.41-7.27-1.61-1.81-3.85-2.72-6.73-2.72s-5.14,1-6.95,2.99ZM618.29,327.04c.63.71.96,1.61.99,2.72h-7.79c.51-2.52,1.9-3.78,4.18-3.78,1.11,0,1.98.35,2.61,1.06Z"/>
    <path class="cls-2" d="M635.98,338.22c-1.8,0-2.92-.73-3.38-2.21h-5.54c.3,2.04,1.24,3.62,2.83,4.75,1.59,1.12,3.63,1.69,6.12,1.69s4.37-.58,5.92-1.75,2.32-2.76,2.32-4.77c0-3.03-1.79-4.98-5.36-5.85l-4.14-.95c-1.2-.3-1.8-.82-1.8-1.58,0-.6.26-1.06.79-1.39.52-.33,1.15-.5,1.87-.5,1.68,0,2.73.66,3.15,1.98h5.31c-.36-1.95-1.25-3.47-2.68-4.57-1.42-1.09-3.38-1.64-5.87-1.64-2.28,0-4.18.61-5.71,1.82s-2.29,2.78-2.29,4.7c0,2.97,1.74,4.86,5.22,5.67l4.05.9c.72.18,1.24.4,1.55.65s.47.61.47,1.06c0,1.32-.95,1.98-2.83,1.98Z"/>
    <path class="cls-2" d="M649.48,323.26c-1.53,1.21-2.29,2.78-2.29,4.7,0,2.97,1.74,4.86,5.22,5.67l4.05.9c.72.18,1.24.4,1.55.65s.47.61.47,1.06c0,1.32-.95,1.98-2.83,1.98s-2.92-.73-3.38-2.21h-5.54c.3,2.04,1.24,3.62,2.83,4.75,1.59,1.12,3.63,1.69,6.12,1.69s4.37-.58,5.92-1.75,2.32-2.76,2.32-4.77c0-3.03-1.79-4.98-5.36-5.85l-4.14-.95c-1.2-.3-1.8-.82-1.8-1.58,0-.6.26-1.06.79-1.39.52-.33,1.15-.5,1.87-.5,1.68,0,2.73.66,3.15,1.98h5.31c-.36-1.95-1.25-3.47-2.68-4.57-1.42-1.09-3.38-1.64-5.87-1.64-2.28,0-4.18.61-5.71,1.82Z"/>
    <path class="cls-2" d="M678.46,335.92c0,2.16.59,3.78,1.76,4.86s2.8,1.62,4.9,1.62c1.62,0,2.82-.21,3.6-.63v-4.95c-.69.45-1.5.67-2.43.67-1.53,0-2.29-.76-2.29-2.29v-8.82h4.41v-4.5h-4.41v-5.44h-5.54v5.44h-3.06v4.5h3.06v9.54Z"/>
    <path class="cls-2" d="M701.18,342.45c2.91,0,5.28-.97,7.11-2.92s2.75-4.47,2.75-7.56-.92-5.65-2.75-7.6-4.2-2.93-7.11-2.93-5.28.98-7.11,2.93c-1.83,1.95-2.75,4.49-2.75,7.6s.92,5.61,2.75,7.56c1.83,1.95,4.2,2.92,7.11,2.92ZM698.01,327.76c.76-1.06,1.82-1.6,3.17-1.6s2.41.53,3.17,1.6c.77,1.06,1.15,2.47,1.15,4.21s-.38,3.1-1.15,4.16c-.76,1.06-1.82,1.6-3.17,1.6s-2.41-.53-3.17-1.6c-.76-1.07-1.15-2.45-1.15-4.16s.38-3.14,1.15-4.21Z"/>
    <path class="cls-2" d="M716.89,329.49c.99,0,1.82-.34,2.5-1.04.67-.69,1.01-1.54,1.01-2.57s-.34-1.87-1.01-2.54-1.51-1.01-2.5-1.01-1.82.34-2.5,1.01-1.01,1.52-1.01,2.54.34,1.88,1.01,2.57c.67.69,1.51,1.04,2.5,1.04Z"/>
    <path class="cls-2" d="M716.89,342.32c.99,0,1.82-.34,2.5-1.04s1.01-1.54,1.01-2.57-.34-1.87-1.01-2.54c-.67-.68-1.51-1.01-2.5-1.01s-1.82.34-2.5,1.01c-.67.67-1.01,1.52-1.01,2.54s.34,1.88,1.01,2.57,1.51,1.04,2.5,1.04Z"/>
    <path class="cls-2" d="M340.16,593.37v27.63h9.76c4.17,0,7.48-1.24,9.95-3.74,2.46-2.49,3.69-5.85,3.69-10.08s-1.23-7.59-3.69-10.08c-2.46-2.49-5.78-3.74-9.95-3.74h-9.76ZM357.84,607.18c0,2.7-.71,4.83-2.12,6.39s-3.42,2.34-6.03,2.34h-3.83v-17.5h3.83c2.61,0,4.62.78,6.03,2.34,1.41,1.56,2.12,3.71,2.12,6.43Z"/>
    <path class="cls-2" d="M369,603.36c-1.83,1.95-2.75,4.49-2.75,7.6s.92,5.61,2.75,7.56c1.83,1.95,4.2,2.92,7.11,2.92s5.28-.97,7.11-2.92,2.75-4.47,2.75-7.56-.92-5.65-2.75-7.6-4.2-2.93-7.11-2.93-5.28.98-7.11,2.93ZM379.28,606.76c.77,1.06,1.15,2.47,1.15,4.21s-.38,3.1-1.15,4.16c-.76,1.06-1.82,1.6-3.17,1.6s-2.41-.53-3.17-1.6c-.76-1.07-1.15-2.45-1.15-4.16s.38-3.14,1.15-4.21,1.82-1.6,3.17-1.6,2.41.53,3.17,1.6Z"/>
    <polygon class="cls-2" points="407.47 628.42 417.96 600.88 412.33 600.88 407.74 614.25 403.11 600.88 397.21 600.88 404.91 621.09 401.98 628.42 407.47 628.42"/>
    <path class="cls-2" d="M428.94,621.45c2.91,0,5.28-.97,7.11-2.92s2.75-4.47,2.75-7.56-.92-5.65-2.75-7.6-4.2-2.93-7.11-2.93-5.28.98-7.11,2.93c-1.83,1.95-2.75,4.49-2.75,7.6s.92,5.61,2.75,7.56c1.83,1.95,4.2,2.92,7.11,2.92ZM425.77,606.76c.76-1.06,1.82-1.6,3.17-1.6s2.41.53,3.17,1.6c.77,1.06,1.15,2.47,1.15,4.21s-.38,3.1-1.15,4.16c-.76,1.06-1.82,1.6-3.17,1.6s-2.41-.53-3.17-1.6c-.76-1.07-1.15-2.45-1.15-4.16s.38-3.14,1.15-4.21Z"/>
    <path class="cls-2" d="M460.17,621v-20.12h-5.62v12.78c-.21.87-.65,1.55-1.3,2.05-.66.49-1.43.74-2.29.74-1.08,0-1.89-.32-2.43-.95s-.81-1.5-.81-2.61v-12.02h-5.58v13.14c0,2.25.62,4.05,1.87,5.4,1.25,1.35,2.98,2.03,5.2,2.03s4.02-.77,5.4-2.29v1.84h5.58Z"/>
    <path class="cls-2" d="M491.04,621v-12.83c0-2.43-.74-4.33-2.23-5.69-1.49-1.36-3.56-2.05-6.23-2.05-2.25,0-4.15.61-5.69,1.82-1.55,1.21-2.47,2.75-2.77,4.61h5.31c.48-1.26,1.47-1.89,2.97-1.89,1.08,0,1.9.29,2.45.88.55.58.83,1.33.83,2.23v1.49c-.42-.3-1.08-.57-1.98-.81-.9-.24-1.77-.36-2.61-.36-2.22,0-4.07.6-5.56,1.8s-2.23,2.75-2.23,4.63c0,2.01.71,3.6,2.14,4.77,1.42,1.17,3.2,1.75,5.33,1.75,1.05,0,2.04-.15,2.97-.45.93-.3,1.58-.63,1.93-.99v1.08h5.36ZM484.31,616.79c-.67.31-1.43.47-2.27.47-.99,0-1.83-.21-2.52-.63-.69-.42-1.04-1.04-1.04-1.84s.35-1.42,1.06-1.84,1.54-.63,2.5-.63c.84,0,1.6.16,2.27.47.67.32,1.13.74,1.37,1.28v1.44c-.24.54-.7.97-1.37,1.28Z"/>
    <path class="cls-2" d="M501.16,619.33c.48.57,1.18,1.07,2.12,1.49.93.42,1.9.63,2.92.63,2.82,0,5.05-1,6.71-3.02,1.65-2.01,2.48-4.5,2.48-7.47s-.83-5.47-2.48-7.49c-1.65-2.03-3.89-3.04-6.71-3.04-1.02,0-2,.21-2.92.63-.93.42-1.64.92-2.12,1.48v-1.67h-5.58v27.54h5.58v-9.09ZM501.16,607.63c.36-.69.88-1.25,1.55-1.69.67-.43,1.42-.65,2.23-.65,1.47,0,2.64.53,3.51,1.6.87,1.07,1.31,2.42,1.31,4.07s-.44,3-1.31,4.05c-.87,1.05-2.04,1.58-3.51,1.58-.81,0-1.56-.22-2.25-.65-.69-.43-1.2-1-1.53-1.69v-6.62Z"/>
    <path class="cls-2" d="M518.94,600.88v27.54h5.58v-9.09c.48.57,1.18,1.07,2.12,1.49.93.42,1.9.63,2.92.63,2.82,0,5.05-1,6.71-3.02,1.65-2.01,2.48-4.5,2.48-7.47s-.83-5.47-2.48-7.49c-1.65-2.03-3.89-3.04-6.71-3.04-1.02,0-2,.21-2.92.63-.93.42-1.64.92-2.12,1.48v-1.67h-5.58ZM526.07,605.95c.67-.43,1.42-.65,2.23-.65,1.47,0,2.64.53,3.51,1.6.87,1.07,1.31,2.42,1.31,4.07s-.44,3-1.31,4.05c-.87,1.05-2.04,1.58-3.51,1.58-.81,0-1.56-.22-2.25-.65-.69-.43-1.2-1-1.53-1.69v-6.62c.36-.69.88-1.25,1.55-1.69Z"/>
    <path class="cls-2" d="M542.29,600.88v20.12h5.58v-12.46c.21-.9.66-1.6,1.35-2.09.69-.5,1.51-.74,2.47-.74,1.11,0,2.04.22,2.79.67v-5.58c-.42-.24-1.12-.36-2.12-.36-2.04,0-3.54.81-4.5,2.43v-1.98h-5.58Z"/>
    <path class="cls-2" d="M566.19,621.45c2.91,0,5.28-.97,7.11-2.92s2.75-4.47,2.75-7.56-.92-5.65-2.75-7.6-4.2-2.93-7.11-2.93-5.28.98-7.11,2.93c-1.83,1.95-2.75,4.49-2.75,7.6s.92,5.61,2.75,7.56c1.83,1.95,4.2,2.92,7.11,2.92ZM563.02,606.76c.76-1.06,1.82-1.6,3.17-1.6s2.41.53,3.17,1.6c.77,1.06,1.15,2.47,1.15,4.21s-.38,3.1-1.15,4.16c-.76,1.06-1.82,1.6-3.17,1.6s-2.41-.53-3.17-1.6c-.76-1.07-1.15-2.45-1.15-4.16s.38-3.14,1.15-4.21Z"/>
    <polygon class="cls-2" points="590.13 621 597.78 600.88 592.15 600.88 587.61 614.25 582.97 600.88 577.12 600.88 584.73 621 590.13 621"/>
    <path class="cls-2" d="M617.71,610.42c0-3.03-.8-5.45-2.41-7.27-1.61-1.81-3.85-2.72-6.73-2.72s-5.14,1-6.95,2.99c-1.82,2-2.72,4.51-2.72,7.54s.9,5.65,2.7,7.58c1.8,1.93,4.15,2.9,7.06,2.9,2.49,0,4.51-.62,6.05-1.87,1.54-1.24,2.5-2.96,2.86-5.15h-5.17c-.45,1.68-1.7,2.52-3.74,2.52-1.26,0-2.28-.43-3.06-1.28-.78-.86-1.21-2.03-1.3-3.53h13.41v-1.71ZM604.44,608.76c.51-2.52,1.9-3.78,4.18-3.78,1.11,0,1.98.35,2.61,1.06.63.71.96,1.61.99,2.72h-7.79Z"/>
    <path class="cls-2" d="M633.78,619.79c1.17,1.08,2.8,1.62,4.9,1.62,1.62,0,2.82-.21,3.6-.63v-4.95c-.69.45-1.5.67-2.43.67-1.53,0-2.29-.76-2.29-2.29v-8.82h4.41v-4.5h-4.41v-5.44h-5.54v5.44h-3.06v4.5h3.06v9.54c0,2.16.59,3.78,1.76,4.86Z"/>
    <path class="cls-2" d="M664.42,621v-13.14c0-2.25-.62-4.05-1.87-5.4s-2.99-2.03-5.24-2.03-4.08.77-5.4,2.3v-10.98h-5.58v29.25h5.58v-12.74c.21-.87.65-1.55,1.33-2.05.67-.5,1.45-.74,2.32-.74,1.08,0,1.9.32,2.45.97.55.65.83,1.51.83,2.59v11.97h5.58Z"/>
    <path class="cls-2" d="M671.85,598.28c.9,0,1.67-.3,2.32-.9.65-.6.97-1.37.97-2.29s-.32-1.66-.97-2.27c-.65-.61-1.42-.92-2.32-.92s-1.68.31-2.34.92c-.66.62-.99,1.37-.99,2.27s.32,1.7.97,2.29c.64.6,1.43.9,2.36.9Z"/>
    <rect class="cls-2" x="669.06" y="600.88" width="5.58" height="20.12"/>
    <path class="cls-2" d="M687.1,617.22c-1.8,0-2.92-.73-3.38-2.21h-5.54c.3,2.04,1.24,3.62,2.83,4.75,1.59,1.12,3.63,1.69,6.12,1.69s4.37-.58,5.92-1.75,2.32-2.76,2.32-4.77c0-3.03-1.79-4.98-5.36-5.85l-4.14-.95c-1.2-.3-1.8-.82-1.8-1.58,0-.6.26-1.06.79-1.39.52-.33,1.15-.5,1.87-.5,1.68,0,2.73.66,3.15,1.98h5.31c-.36-1.95-1.25-3.47-2.68-4.57-1.42-1.09-3.38-1.64-5.87-1.64-2.28,0-4.18.61-5.71,1.82s-2.29,2.78-2.29,4.7c0,2.97,1.74,4.86,5.22,5.67l4.05.9c.72.18,1.24.4,1.55.65s.47.61.47,1.06c0,1.32-.95,1.98-2.83,1.98Z"/>
    <path class="cls-2" d="M706.05,614.34c-.99,0-1.83.34-2.52,1.01s-1.04,1.51-1.04,2.5.34,1.78,1.04,2.45,1.53,1.01,2.52,1.01,1.83-.34,2.52-1.01,1.04-1.49,1.04-2.45-.34-1.82-1.04-2.5-1.53-1.01-2.52-1.01Z"/>
    <path class="cls-2" d="M711.47,607.97c.46-.5.78-.84.95-1.04.17-.19.43-.52.81-.97s.64-.82.79-1.12.33-.67.54-1.1c.21-.43.36-.87.45-1.3.09-.43.13-.89.13-1.37,0-2.49-.82-4.47-2.45-5.94-1.64-1.47-3.86-2.21-6.68-2.21s-4.97.83-6.71,2.5c-1.74,1.66-2.75,3.82-3.02,6.46h5.94c.06-1.11.41-2.03,1.04-2.75s1.5-1.08,2.61-1.08,1.93.31,2.54.92c.61.62.92,1.42.92,2.41,0,.51-.12,1.02-.36,1.53-.24.51-.47.9-.67,1.17-.21.27-.62.73-1.21,1.37-.6.65-.98,1.06-1.12,1.24-.93,1.08-1.57,1.98-1.91,2.7-.34.72-.55,1.62-.61,2.7h5.54c0-.99.54-2.05,1.62-3.2.12-.12.41-.43.88-.92Z"/>
    <path class="cls-2" d="M344.69,418.05c1.95,0,3.59-.64,4.93-1.93s2-2.92,2-4.91-.67-3.66-2-4.95c-1.33-1.29-2.98-1.93-4.93-1.93s-3.59.65-4.91,1.93c-1.32,1.29-1.98,2.94-1.98,4.95s.66,3.65,1.98,4.93c1.32,1.28,2.95,1.91,4.91,1.91Z"/>
    <path class="cls-2" d="M389.13,395.37l-10.58,27.63h5.76l2.43-6.66h10.35l2.48,6.66h5.85l-10.58-27.63h-5.71ZM388.54,411.48l3.38-9.18,3.38,9.18h-6.75Z"/>
    <path class="cls-2" d="M416.31,407.21c.9,0,1.64.22,2.23.65.58.44.95,1.04,1.1,1.82h5.49c-.3-2.19-1.23-3.94-2.79-5.26-1.56-1.32-3.57-1.98-6.03-1.98-2.85,0-5.17.98-6.97,2.93s-2.7,4.49-2.7,7.6.9,5.61,2.7,7.56,4.12,2.92,6.97,2.92c2.49,0,4.51-.66,6.05-1.98,1.54-1.32,2.47-3.07,2.77-5.26h-5.49c-.15.78-.52,1.39-1.1,1.82-.58.44-1.33.65-2.23.65-1.26,0-2.27-.52-3.01-1.57-.75-1.05-1.12-2.43-1.12-4.14s.38-3.13,1.12-4.18c.75-1.05,1.75-1.58,3.01-1.58Z"/>
    <path class="cls-2" d="M429.94,397.44v5.44h-3.06v4.5h3.06v9.54c0,2.16.59,3.78,1.76,4.86s2.8,1.62,4.9,1.62c1.62,0,2.82-.21,3.6-.63v-4.95c-.69.45-1.5.67-2.43.67-1.53,0-2.29-.76-2.29-2.29v-8.82h4.41v-4.5h-4.41v-5.44h-5.54Z"/>
    <path class="cls-2" d="M447.04,400.28c.9,0,1.67-.3,2.32-.9.65-.6.97-1.37.97-2.29s-.32-1.66-.97-2.27c-.65-.61-1.42-.92-2.32-.92s-1.68.31-2.34.92c-.66.62-.99,1.37-.99,2.27s.32,1.7.97,2.29c.64.6,1.43.9,2.36.9Z"/>
    <rect class="cls-2" x="444.25" y="402.88" width="5.58" height="20.12"/>
    <polygon class="cls-2" points="467.88 402.88 463.33 416.25 458.7 402.88 452.85 402.88 460.45 423 465.85 423 473.5 402.88 467.88 402.88"/>
    <rect class="cls-2" x="476.52" y="402.88" width="5.58" height="20.12"/>
    <path class="cls-2" d="M479.31,400.28c.9,0,1.67-.3,2.32-.9.65-.6.97-1.37.97-2.29s-.32-1.66-.97-2.27c-.65-.61-1.42-.92-2.32-.92s-1.68.31-2.34.92c-.66.62-.99,1.37-.99,2.27s.32,1.7.97,2.29c.64.6,1.43.9,2.36.9Z"/>
    <path class="cls-2" d="M488.17,397.44v5.44h-3.06v4.5h3.06v9.54c0,2.16.59,3.78,1.76,4.86s2.8,1.62,4.9,1.62c1.62,0,2.82-.21,3.6-.63v-4.95c-.69.45-1.5.67-2.43.67-1.53,0-2.29-.76-2.29-2.29v-8.82h4.41v-4.5h-4.41v-5.44h-5.54Z"/>
    <polygon class="cls-2" points="510.45 430.42 520.93 402.88 515.31 402.88 510.72 416.25 506.08 402.88 500.19 402.88 507.88 423.09 504.96 430.42 510.45 430.42"/>
    <path class="cls-2" d="M344.69,473.05c1.95,0,3.59-.64,4.93-1.93s2-2.92,2-4.91-.67-3.66-2-4.95c-1.33-1.29-2.98-1.93-4.93-1.93s-3.59.65-4.91,1.93c-1.32,1.29-1.98,2.94-1.98,4.95s.66,3.65,1.98,4.93c1.32,1.28,2.95,1.91,4.91,1.91Z"/>
    <path class="cls-2" d="M399.39,461.6c.69-1.04,1.04-2.27,1.04-3.71,0-2.43-.82-4.29-2.45-5.58-1.64-1.29-3.92-1.93-6.86-1.93h-10.58v27.63h11.47c2.91,0,5.18-.67,6.82-2.03,1.63-1.35,2.45-3.28,2.45-5.8,0-1.5-.42-2.84-1.26-4.03-.84-1.18-1.92-1.99-3.24-2.41,1.05-.39,1.92-1.1,2.61-2.14ZM386.07,455.23h4.68c2.79,0,4.18,1.06,4.18,3.19s-1.39,3.29-4.18,3.29h-4.68v-6.48ZM394.57,472.22c-.72.62-1.74.92-3.06.92h-5.44v-6.93h5.44c1.35,0,2.38.31,3.08.92.7.62,1.06,1.46,1.06,2.54s-.36,1.93-1.08,2.54Z"/>
    <path class="cls-2" d="M406.68,475.53c1.83,1.95,4.2,2.92,7.11,2.92s5.28-.97,7.11-2.92,2.75-4.47,2.75-7.56-.92-5.65-2.75-7.6-4.2-2.93-7.11-2.93-5.28.98-7.11,2.93c-1.83,1.95-2.75,4.49-2.75,7.6s.92,5.61,2.75,7.56ZM410.62,463.76c.76-1.06,1.82-1.6,3.17-1.6s2.41.53,3.17,1.6c.77,1.06,1.15,2.47,1.15,4.21s-.38,3.1-1.15,4.16c-.76,1.06-1.82,1.6-3.17,1.6s-2.41-.53-3.17-1.6c-.76-1.07-1.15-2.45-1.15-4.16s.38-3.14,1.15-4.21Z"/>
    <path class="cls-2" d="M428.57,475.46c1.63,2,3.86,2.99,6.68,2.99,1.02,0,2-.21,2.93-.63.93-.42,1.63-.92,2.11-1.49v1.67h5.62v-29.25h-5.62v10.8c-.48-.57-1.19-1.06-2.11-1.48-.93-.42-1.91-.63-2.93-.63-2.82,0-5.05,1.01-6.68,3.02s-2.45,4.52-2.45,7.51.82,5.5,2.45,7.49ZM433,463.89c.87-1.06,2.04-1.6,3.51-1.6.81,0,1.56.22,2.25.65.69.44,1.2,1,1.53,1.69v6.62c-.33.69-.83,1.25-1.51,1.69-.68.44-1.43.65-2.27.65-1.47,0-2.64-.52-3.51-1.58-.87-1.05-1.3-2.4-1.3-4.05s.43-3.01,1.3-4.07Z"/>
    <polygon class="cls-2" points="469.63 457.88 464.01 457.88 459.42 471.25 454.78 457.88 448.89 457.88 456.58 478.09 453.66 485.42 459.15 485.42 469.63 457.88"/>
    <path class="cls-2" d="M482.19,478h5.58v-12.96c.18-.81.56-1.45,1.15-1.91s1.25-.7,2-.7c1.89,0,2.83,1.2,2.83,3.6v11.97h5.62v-12.96c.18-.84.55-1.49,1.12-1.93.57-.45,1.23-.68,1.98-.68.93,0,1.64.32,2.14.97.5.65.74,1.52.74,2.63v11.97h5.58v-13.14c0-2.28-.58-4.09-1.75-5.42s-2.79-2-4.86-2c-2.49,0-4.52.86-6.08,2.57-1.29-1.71-3.09-2.57-5.4-2.57s-3.98.71-5.08,2.12v-1.67h-5.58v20.12Z"/>
    <path class="cls-2" d="M523.99,457.43c-2.82,0-5.14,1-6.95,2.99-1.82,2-2.72,4.51-2.72,7.54s.9,5.65,2.7,7.58c1.8,1.93,4.15,2.9,7.06,2.9,2.49,0,4.51-.62,6.05-1.87,1.54-1.24,2.5-2.96,2.86-5.15h-5.17c-.45,1.68-1.7,2.52-3.74,2.52-1.26,0-2.28-.43-3.06-1.28-.78-.86-1.21-2.03-1.3-3.53h13.41v-1.71c0-3.03-.8-5.45-2.41-7.27-1.61-1.81-3.85-2.72-6.73-2.72ZM519.85,465.76c.51-2.52,1.9-3.78,4.18-3.78,1.11,0,1.98.35,2.61,1.06.63.71.96,1.61.99,2.72h-7.79Z"/>
    <path class="cls-2" d="M545.91,465.76c-.9-.24-1.77-.36-2.61-.36-2.22,0-4.07.6-5.56,1.8s-2.23,2.75-2.23,4.63c0,2.01.71,3.6,2.14,4.77,1.42,1.17,3.2,1.75,5.33,1.75,1.05,0,2.04-.15,2.97-.45.93-.3,1.58-.63,1.93-.99v1.08h5.36v-12.83c0-2.43-.74-4.33-2.23-5.69-1.49-1.36-3.56-2.05-6.23-2.05-2.25,0-4.15.61-5.69,1.82-1.55,1.21-2.47,2.75-2.77,4.61h5.31c.48-1.26,1.47-1.89,2.97-1.89,1.08,0,1.9.29,2.45.88.55.58.83,1.33.83,2.23v1.49c-.42-.3-1.08-.57-1.98-.81ZM547.89,472.51c-.24.54-.7.97-1.37,1.28-.67.31-1.43.47-2.27.47-.99,0-1.83-.21-2.52-.63-.69-.42-1.04-1.04-1.04-1.84s.35-1.42,1.06-1.84,1.54-.63,2.5-.63c.84,0,1.6.16,2.27.47.67.32,1.13.74,1.37,1.28v1.44Z"/>
    <path class="cls-2" d="M565.39,474.22c-1.8,0-2.92-.73-3.38-2.21h-5.54c.3,2.04,1.24,3.62,2.83,4.75,1.59,1.12,3.63,1.69,6.12,1.69s4.37-.58,5.92-1.75,2.32-2.76,2.32-4.77c0-3.03-1.79-4.98-5.36-5.85l-4.14-.95c-1.2-.3-1.8-.82-1.8-1.58,0-.6.26-1.06.79-1.39.52-.33,1.15-.5,1.87-.5,1.68,0,2.73.66,3.15,1.98h5.31c-.36-1.95-1.25-3.47-2.68-4.57-1.42-1.09-3.38-1.64-5.87-1.64-2.28,0-4.18.61-5.71,1.82s-2.29,2.78-2.29,4.7c0,2.97,1.74,4.86,5.22,5.67l4.05.9c.72.18,1.24.4,1.55.65s.47.61.47,1.06c0,1.32-.95,1.98-2.83,1.98Z"/>
    <path class="cls-2" d="M577.23,457.88v13.14c0,2.25.62,4.05,1.87,5.4,1.25,1.35,2.98,2.03,5.2,2.03s4.02-.77,5.4-2.29v1.84h5.58v-20.12h-5.62v12.78c-.21.87-.65,1.55-1.3,2.05-.66.49-1.43.74-2.29.74-1.08,0-1.89-.32-2.43-.95s-.81-1.5-.81-2.61v-12.02h-5.58Z"/>
    <path class="cls-2" d="M600.08,457.88v20.12h5.58v-12.46c.21-.9.66-1.6,1.35-2.09.69-.5,1.51-.74,2.47-.74,1.11,0,2.04.22,2.79.67v-5.58c-.42-.24-1.12-.36-2.12-.36-2.04,0-3.54.81-4.5,2.43v-1.98h-5.58Z"/>
    <path class="cls-2" d="M632.94,467.42c0-3.03-.8-5.45-2.41-7.27-1.61-1.81-3.85-2.72-6.73-2.72s-5.14,1-6.95,2.99c-1.82,2-2.72,4.51-2.72,7.54s.9,5.65,2.7,7.58c1.8,1.93,4.15,2.9,7.06,2.9,2.49,0,4.51-.62,6.05-1.87,1.54-1.24,2.5-2.96,2.86-5.15h-5.17c-.45,1.68-1.7,2.52-3.74,2.52-1.26,0-2.28-.43-3.06-1.28-.78-.86-1.21-2.03-1.3-3.53h13.41v-1.71ZM619.66,465.76c.51-2.52,1.9-3.78,4.18-3.78,1.11,0,1.98.35,2.61,1.06.63.71.96,1.61.99,2.72h-7.79Z"/>
    <path class="cls-2" d="M665.24,464.86c0-2.28-.58-4.09-1.75-5.42s-2.79-2-4.86-2c-2.49,0-4.52.86-6.08,2.57-1.29-1.71-3.09-2.57-5.4-2.57s-3.98.71-5.08,2.12v-1.67h-5.58v20.12h5.58v-12.96c.18-.81.56-1.45,1.15-1.91s1.25-.7,2-.7c1.89,0,2.83,1.2,2.83,3.6v11.97h5.62v-12.96c.18-.84.55-1.49,1.12-1.93.57-.45,1.23-.68,1.98-.68.93,0,1.64.32,2.14.97.5.65.74,1.52.74,2.63v11.97h5.58v-13.14Z"/>
    <path class="cls-2" d="M678.38,478.45c2.49,0,4.51-.62,6.05-1.87,1.54-1.24,2.5-2.96,2.86-5.15h-5.17c-.45,1.68-1.7,2.52-3.74,2.52-1.26,0-2.28-.43-3.06-1.28-.78-.86-1.21-2.03-1.3-3.53h13.41v-1.71c0-3.03-.8-5.45-2.41-7.27-1.61-1.81-3.85-2.72-6.73-2.72s-5.14,1-6.95,2.99c-1.82,2-2.72,4.51-2.72,7.54s.9,5.65,2.7,7.58c1.8,1.93,4.15,2.9,7.06,2.9ZM678.34,461.98c1.11,0,1.98.35,2.61,1.06.63.71.96,1.61.99,2.72h-7.79c.51-2.52,1.9-3.78,4.18-3.78Z"/>
    <path class="cls-2" d="M696.56,465.26c.21-.87.65-1.55,1.33-2.05.67-.5,1.45-.74,2.32-.74,1.08,0,1.9.32,2.45.97.55.65.83,1.51.83,2.59v11.97h5.58v-13.14c0-2.25-.62-4.05-1.87-5.4s-2.99-2.03-5.24-2.03-4.08.77-5.4,2.3v-1.85h-5.58v20.12h5.58v-12.74Z"/>
    <path class="cls-2" d="M714.92,471.92c0,2.16.59,3.78,1.76,4.86s2.8,1.62,4.9,1.62c1.62,0,2.82-.21,3.6-.63v-4.95c-.69.45-1.5.67-2.43.67-1.53,0-2.29-.76-2.29-2.29v-8.82h4.41v-4.5h-4.41v-5.44h-5.54v5.44h-3.06v4.5h3.06v9.54Z"/>
    <path class="cls-2" d="M736.66,474.22c-1.8,0-2.92-.73-3.38-2.21h-5.54c.3,2.04,1.24,3.62,2.83,4.75,1.59,1.12,3.63,1.69,6.12,1.69s4.37-.58,5.92-1.75,2.32-2.76,2.32-4.77c0-3.03-1.79-4.98-5.36-5.85l-4.14-.95c-1.2-.3-1.8-.82-1.8-1.58,0-.6.26-1.06.79-1.39.52-.33,1.15-.5,1.87-.5,1.68,0,2.73.66,3.15,1.98h5.31c-.36-1.95-1.25-3.47-2.68-4.57-1.42-1.09-3.38-1.64-5.87-1.64-2.28,0-4.18.61-5.71,1.82s-2.29,2.78-2.29,4.7c0,2.97,1.74,4.86,5.22,5.67l4.05.9c.72.18,1.24.4,1.55.65s.47.61.47,1.06c0,1.32-.95,1.98-2.83,1.98Z"/>
    <path class="cls-2" d="M344.69,528.05c1.95,0,3.59-.64,4.93-1.93s2-2.92,2-4.91-.67-3.66-2-4.95c-1.33-1.29-2.98-1.93-4.93-1.93s-3.59.65-4.91,1.93c-1.32,1.29-1.98,2.94-1.98,4.95s.66,3.65,1.98,4.93c1.32,1.28,2.95,1.91,4.91,1.91Z"/>
    <path class="cls-2" d="M399.82,530.91c2-1.69,3.26-3.98,3.8-6.86h-5.71c-1.05,2.85-3,4.28-5.85,4.28-2.16,0-3.87-.86-5.13-2.57s-1.89-3.9-1.89-6.57.63-4.9,1.89-6.59c1.26-1.69,2.97-2.54,5.13-2.54,2.85,0,4.8,1.41,5.85,4.23h5.71c-.54-2.85-1.81-5.12-3.8-6.82s-4.58-2.54-7.76-2.54c-3.72,0-6.79,1.33-9.22,3.98-2.43,2.66-3.65,6.08-3.65,10.28s1.21,7.63,3.65,10.28c2.43,2.65,5.5,3.98,9.22,3.98,3.18,0,5.77-.85,7.76-2.54Z"/>
    <polygon class="cls-2" points="420.36 512.88 415.77 526.25 411.13 512.88 405.24 512.88 412.93 533.09 410.01 540.42 415.5 540.42 425.98 512.88 420.36 512.88"/>
    <path class="cls-2" d="M445.6,526.21h-5.49c-.15.78-.52,1.39-1.1,1.82-.58.44-1.33.65-2.23.65-1.26,0-2.27-.52-3.01-1.57-.75-1.05-1.12-2.43-1.12-4.14s.38-3.13,1.12-4.18c.75-1.05,1.75-1.58,3.01-1.58.9,0,1.64.22,2.23.65.58.44.95,1.04,1.1,1.82h5.49c-.3-2.19-1.23-3.94-2.79-5.26-1.56-1.32-3.57-1.98-6.03-1.98-2.85,0-5.17.98-6.97,2.93s-2.7,4.49-2.7,7.6.9,5.61,2.7,7.56,4.12,2.92,6.97,2.92c2.49,0,4.51-.66,6.05-1.98,1.54-1.32,2.47-3.07,2.77-5.26Z"/>
    <rect class="cls-2" x="449.02" y="503.75" width="5.58" height="29.25"/>
    <path class="cls-2" d="M467.97,533.45c2.49,0,4.51-.62,6.05-1.87,1.54-1.24,2.5-2.96,2.86-5.15h-5.17c-.45,1.68-1.7,2.52-3.74,2.52-1.26,0-2.28-.43-3.06-1.28-.78-.86-1.21-2.03-1.3-3.53h13.41v-1.71c0-3.03-.8-5.45-2.41-7.27-1.61-1.81-3.85-2.72-6.73-2.72s-5.14,1-6.95,2.99c-1.82,2-2.72,4.51-2.72,7.54s.9,5.65,2.7,7.58c1.8,1.93,4.15,2.9,7.06,2.9ZM467.92,516.98c1.11,0,1.98.35,2.61,1.06.63.71.96,1.61.99,2.72h-7.79c.51-2.52,1.9-3.78,4.18-3.78Z"/>
    <path class="cls-2" d="M493.08,531.79c1.17,1.08,2.8,1.62,4.9,1.62,1.62,0,2.82-.21,3.6-.63v-4.95c-.69.45-1.5.67-2.43.67-1.53,0-2.29-.76-2.29-2.29v-8.82h4.41v-4.5h-4.41v-5.44h-5.54v5.44h-3.06v4.5h3.06v9.54c0,2.16.59,3.78,1.76,4.86Z"/>
    <path class="cls-2" d="M517.83,512.79c-.42-.24-1.12-.36-2.12-.36-2.04,0-3.54.81-4.5,2.43v-1.98h-5.58v20.12h5.58v-12.46c.21-.9.66-1.6,1.35-2.09.69-.5,1.51-.74,2.47-.74,1.11,0,2.04.22,2.79.67v-5.58Z"/>
    <path class="cls-2" d="M523.16,514.26c-1.55,1.21-2.47,2.75-2.77,4.61h5.31c.48-1.26,1.47-1.89,2.97-1.89,1.08,0,1.9.29,2.45.88.55.58.83,1.33.83,2.23v1.49c-.42-.3-1.08-.57-1.98-.81-.9-.24-1.77-.36-2.61-.36-2.22,0-4.07.6-5.56,1.8s-2.23,2.75-2.23,4.63c0,2.01.71,3.6,2.14,4.77,1.42,1.17,3.2,1.75,5.33,1.75,1.05,0,2.04-.15,2.97-.45.93-.3,1.58-.63,1.93-.99v1.08h5.36v-12.83c0-2.43-.74-4.33-2.23-5.69-1.49-1.36-3.56-2.05-6.23-2.05-2.25,0-4.15.61-5.69,1.82ZM531.96,527.51c-.24.54-.7.97-1.37,1.28-.67.31-1.43.47-2.27.47-.99,0-1.83-.21-2.52-.63-.69-.42-1.04-1.04-1.04-1.84s.35-1.42,1.06-1.84,1.54-.63,2.5-.63c.84,0,1.6.16,2.27.47.67.32,1.13.74,1.37,1.28v1.44Z"/>
    <path class="cls-2" d="M559.09,526.21h-5.49c-.15.78-.52,1.39-1.1,1.82-.58.44-1.33.65-2.23.65-1.26,0-2.27-.52-3.01-1.57-.75-1.05-1.12-2.43-1.12-4.14s.38-3.13,1.12-4.18c.75-1.05,1.75-1.58,3.01-1.58.9,0,1.64.22,2.23.65.58.44.95,1.04,1.1,1.82h5.49c-.3-2.19-1.23-3.94-2.79-5.26-1.56-1.32-3.57-1.98-6.03-1.98-2.85,0-5.17.98-6.97,2.93s-2.7,4.49-2.7,7.6.9,5.61,2.7,7.56,4.12,2.92,6.97,2.92c2.49,0,4.51-.66,6.05-1.98,1.54-1.32,2.47-3.07,2.77-5.26Z"/>
    <polygon class="cls-2" points="573.76 521.43 581.91 512.88 574.98 512.88 568.09 520.36 568.09 503.75 562.51 503.75 562.51 533 568.09 533 568.09 526.66 569.71 524.9 575.61 533 582.22 533 573.76 521.43"/>
    <rect class="cls-2" x="584.97" y="512.88" width="5.58" height="20.12"/>
    <path class="cls-2" d="M590.07,504.81c-.65-.61-1.42-.92-2.32-.92s-1.68.31-2.34.92c-.66.62-.99,1.37-.99,2.27s.32,1.7.97,2.29c.64.6,1.43.9,2.36.9s1.67-.3,2.32-.9c.65-.6.97-1.37.97-2.29s-.32-1.66-.97-2.27Z"/>
    <path class="cls-2" d="M600.99,520.26c.21-.87.65-1.55,1.33-2.05.67-.5,1.45-.74,2.32-.74,1.08,0,1.9.32,2.45.97.55.65.83,1.51.83,2.59v11.97h5.58v-13.14c0-2.25-.62-4.05-1.87-5.4s-2.99-2.03-5.24-2.03-4.08.77-5.4,2.3v-1.85h-5.58v20.12h5.58v-12.74Z"/>
    <path class="cls-2" d="M620.22,538.99c1.67,1.26,3.8,1.89,6.41,1.89,2.97,0,5.36-.85,7.16-2.54,1.8-1.69,2.7-4.21,2.7-7.54v-17.91h-5.54v1.58c-1.17-1.35-2.82-2.03-4.95-2.03-2.79,0-5.01.98-6.66,2.93-1.65,1.95-2.47,4.32-2.47,7.11s.83,5.21,2.47,7.16c1.65,1.95,3.87,2.92,6.66,2.92,2.16,0,3.81-.69,4.95-2.07v1.17c0,3.27-1.44,4.9-4.32,4.9-2.19,0-3.51-.94-3.96-2.83h-5.4c.3,2.25,1.28,4,2.95,5.27ZM629.4,527.26c-.67.41-1.42.61-2.23.61-1.47,0-2.62-.5-3.46-1.51-.84-1-1.26-2.3-1.26-3.89s.42-2.88,1.26-3.87c.84-.99,2-1.48,3.46-1.48,1.68,0,2.94.69,3.78,2.07v6.57c-.36.6-.88,1.1-1.55,1.51Z"/>
    <path class="cls-2" d="M847.04,210H304.96c-12.66,0-22.96,10.3-22.96,22.96v569.08c0,12.66,10.3,22.96,22.96,22.96h542.08c12.66,0,22.96-10.3,22.96-22.96V232.96c0-12.66-10.3-22.96-22.96-22.96ZM858,802.04c0,6.04-4.92,10.96-10.96,10.96H304.96c-6.04,0-10.96-4.92-10.96-10.96V232.96c0-6.04,4.92-10.96,10.96-10.96h542.08c6.04,0,10.96,4.92,10.96,10.96v569.08Z"/>
    <path class="cls-2" d="M792,660h-196.31c-7.25,0-13.75,3.23-18.15,8.33-4.4-5.09-10.91-8.33-18.15-8.33h-196.31c-13.23,0-24,10.77-24,24v63c0,13.23,10.77,24,24,24h196.31c7.25,0,13.75-3.23,18.15-8.33,4.4,5.09,10.91,8.33,18.15,8.33h196.31c13.23,0,24-10.77,24-24v-63c0-13.23-10.77-24-24-24ZM571.38,747c0,6.62-5.38,12-12,12h-196.31c-6.62,0-12-5.38-12-12v-63c0-6.62,5.38-12,12-12h196.31c6.62,0,12,5.38,12,12v63ZM804,747c0,6.62-5.38,12-12,12h-196.31c-6.62,0-12-5.38-12-12v-63c0-6.62,5.38-12,12-12h196.31c6.62,0,12,5.38,12,12v63Z"/>
    <polygon class="cls-2" points="681.9 700.96 675.24 712.67 668.53 700.96 662.28 700.96 672.22 718.11 672.22 728.59 677.94 728.59 677.94 718.11 687.97 700.96 681.9 700.96"/>
    <path class="cls-2" d="M695.94,708.03c-2.82,0-5.14,1-6.95,2.99-1.82,2-2.72,4.51-2.72,7.54s.9,5.65,2.7,7.58c1.8,1.93,4.15,2.9,7.06,2.9,2.49,0,4.51-.62,6.05-1.87,1.54-1.24,2.5-2.96,2.86-5.15h-5.17c-.45,1.68-1.7,2.52-3.74,2.52-1.26,0-2.28-.43-3.06-1.28-.78-.86-1.21-2.03-1.3-3.53h13.41v-1.71c0-3.03-.8-5.45-2.41-7.27-1.61-1.81-3.85-2.72-6.73-2.72ZM691.8,716.35c.51-2.52,1.9-3.78,4.18-3.78,1.11,0,1.98.35,2.61,1.06.63.71.96,1.61.99,2.72h-7.79Z"/>
    <path class="cls-2" d="M719.2,716.67l-4.14-.95c-1.2-.3-1.8-.82-1.8-1.58,0-.6.26-1.06.79-1.39.52-.33,1.15-.5,1.87-.5,1.68,0,2.73.66,3.15,1.98h5.31c-.36-1.95-1.25-3.47-2.68-4.57-1.42-1.09-3.38-1.64-5.87-1.64-2.28,0-4.18.61-5.71,1.82s-2.29,2.78-2.29,4.7c0,2.97,1.74,4.86,5.22,5.67l4.05.9c.72.18,1.24.4,1.55.65s.47.61.47,1.06c0,1.32-.95,1.98-2.83,1.98s-2.92-.73-3.38-2.21h-5.54c.3,2.04,1.24,3.62,2.83,4.75,1.59,1.12,3.63,1.69,6.12,1.69s4.37-.58,5.92-1.75,2.32-2.76,2.32-4.77c0-3.03-1.79-4.98-5.36-5.85Z"/>
    <polygon class="cls-2" points="456.25 718.42 444.06 700.96 438.66 700.96 438.66 728.59 444.19 728.59 444.19 710.19 457.24 728.59 461.79 728.59 461.79 700.96 456.25 700.96 456.25 718.42"/>
    <path class="cls-2" d="M475.47,708.03c-2.91,0-5.28.98-7.11,2.93-1.83,1.95-2.75,4.49-2.75,7.6s.92,5.61,2.75,7.56c1.83,1.95,4.2,2.92,7.11,2.92s5.28-.97,7.11-2.92,2.75-4.47,2.75-7.56-.92-5.65-2.75-7.6-4.2-2.93-7.11-2.93ZM478.64,722.72c-.76,1.06-1.82,1.6-3.17,1.6s-2.41-.53-3.17-1.6c-.76-1.07-1.15-2.45-1.15-4.16s.38-3.14,1.15-4.21,1.82-1.6,3.17-1.6,2.41.53,3.17,1.6c.77,1.06,1.15,2.47,1.15,4.21s-.38,3.1-1.15,4.16Z"/>
  </g>
</svg>