<?xml version="1.0" encoding="UTF-8"?>
<svg id="OUTLINES" xmlns="http://www.w3.org/2000/svg" viewBox="0 0 1152 1008">
  <defs>
    <style>
      .cls-1 {
        fill: #fff;
      }

      .cls-2 {
        fill: #030f78;
      }
    </style>
  </defs>
  <rect class="cls-1" x="326.58" y="336" width="516.42" height="199.84" rx="24" ry="24"/>
  <g>
    <path class="cls-2" d="M575.79,647.05c-12.68,0-23,10.32-23,23s10.32,23,23,23,23-10.32,23-23-10.32-23-23-23ZM575.79,683.05c-7.17,0-13-5.83-13-13s5.83-13,13-13,13,5.83,13,13-5.83,13-13,13Z"/>
    <polygon class="cls-2" points="360.22 394.65 365.93 394.65 365.93 384.17 375.97 367.02 369.89 367.02 363.23 378.72 356.53 367.02 350.27 367.02 360.22 384.17 360.22 394.65"/>
    <path class="cls-2" d="M377,392.18c1.83,1.95,4.2,2.92,7.11,2.92s5.28-.97,7.11-2.92,2.75-4.47,2.75-7.56-.92-5.65-2.75-7.6-4.2-2.93-7.11-2.93-5.28.98-7.11,2.93c-1.83,1.95-2.75,4.49-2.75,7.6s.92,5.61,2.75,7.56ZM380.94,380.41c.76-1.06,1.82-1.6,3.17-1.6s2.41.53,3.17,1.6c.77,1.06,1.15,2.47,1.15,4.21s-.38,3.1-1.15,4.16c-.76,1.06-1.82,1.6-3.17,1.6s-2.41-.53-3.17-1.6c-.77-1.07-1.15-2.45-1.15-4.16s.38-3.14,1.15-4.21Z"/>
    <path class="cls-2" d="M404.36,395.1c2.22,0,4.02-.77,5.4-2.29v1.84h5.58v-20.12h-5.62v12.78c-.21.87-.65,1.55-1.3,2.05-.66.49-1.43.74-2.29.74-1.08,0-1.89-.32-2.43-.95-.54-.63-.81-1.5-.81-2.61v-12.02h-5.58v13.14c0,2.25.62,4.05,1.87,5.4,1.24,1.35,2.98,2.03,5.2,2.03Z"/>
    <path class="cls-2" d="M421.87,378.18l2.47-3.74c.99-1.47,1.48-2.82,1.48-4.05s-.34-2.14-1.01-2.81c-.68-.67-1.52-1.01-2.54-1.01s-1.82.32-2.5.97c-.67.65-1.01,1.46-1.01,2.45,0,.87.25,1.59.77,2.16.51.57,1.17.93,1.98,1.08l-3.2,4.95h3.56Z"/>
    <polygon class="cls-2" points="439.69 394.65 447.34 374.54 441.71 374.54 437.17 387.9 432.53 374.54 426.68 374.54 434.29 394.65 439.69 394.65"/>
    <path class="cls-2" d="M458.23,395.1c2.49,0,4.51-.62,6.05-1.87,1.54-1.24,2.5-2.96,2.86-5.15h-5.17c-.45,1.68-1.7,2.52-3.74,2.52-1.26,0-2.28-.43-3.06-1.28-.78-.86-1.21-2.03-1.3-3.53h13.41v-1.71c0-3.03-.8-5.45-2.41-7.27-1.61-1.81-3.85-2.72-6.73-2.72s-5.14,1-6.95,2.99c-1.82,2-2.72,4.51-2.72,7.54s.9,5.65,2.7,7.58c1.8,1.93,4.15,2.9,7.06,2.9ZM458.18,378.63c1.11,0,1.98.35,2.61,1.06.63.71.96,1.61.99,2.72h-7.79c.51-2.52,1.9-3.78,4.18-3.78Z"/>
    <path class="cls-2" d="M485.95,392.99c.48.57,1.19,1.07,2.12,1.49s1.9.63,2.93.63c2.82,0,5.05-1,6.68-2.99,1.63-1.99,2.45-4.49,2.45-7.49s-.82-5.5-2.45-7.51-3.86-3.02-6.68-3.02c-1.02,0-2,.21-2.93.63s-1.63.92-2.12,1.48v-10.8h-5.62v29.25h5.62v-1.67ZM485.95,381.29c.33-.69.84-1.25,1.53-1.69.69-.43,1.44-.65,2.25-.65,1.47,0,2.64.53,3.51,1.6.87,1.07,1.3,2.42,1.3,4.07s-.44,3-1.3,4.05c-.87,1.05-2.04,1.58-3.51,1.58-.84,0-1.6-.22-2.27-.65-.67-.43-1.18-1-1.51-1.69v-6.62Z"/>
    <path class="cls-2" d="M512.41,395.1c2.49,0,4.51-.62,6.05-1.87,1.54-1.24,2.5-2.96,2.86-5.15h-5.18c-.45,1.68-1.7,2.52-3.73,2.52-1.26,0-2.28-.43-3.06-1.28-.78-.86-1.21-2.03-1.3-3.53h13.41v-1.71c0-3.03-.8-5.45-2.41-7.27-1.61-1.81-3.85-2.72-6.73-2.72s-5.14,1-6.95,2.99-2.72,4.51-2.72,7.54.9,5.65,2.7,7.58c1.8,1.93,4.15,2.9,7.06,2.9ZM512.36,378.63c1.11,0,1.98.35,2.61,1.06.63.71.96,1.61.99,2.72h-7.79c.51-2.52,1.9-3.78,4.19-3.78Z"/>
    <path class="cls-2" d="M533.69,395.1c2.49,0,4.51-.62,6.05-1.87,1.54-1.24,2.5-2.96,2.86-5.15h-5.17c-.45,1.68-1.7,2.52-3.74,2.52-1.26,0-2.28-.43-3.06-1.28-.78-.86-1.21-2.03-1.3-3.53h13.41v-1.71c0-3.03-.8-5.45-2.41-7.27-1.61-1.81-3.85-2.72-6.73-2.72s-5.14,1-6.95,2.99c-1.82,2-2.72,4.51-2.72,7.54s.9,5.65,2.7,7.58c1.8,1.93,4.15,2.9,7.06,2.9ZM533.64,378.63c1.11,0,1.98.35,2.61,1.06.63.71.96,1.61.99,2.72h-7.79c.51-2.52,1.9-3.78,4.18-3.78Z"/>
    <path class="cls-2" d="M551.87,381.92c.21-.87.65-1.55,1.33-2.05.67-.5,1.45-.74,2.32-.74,1.08,0,1.9.32,2.45.97.55.65.83,1.51.83,2.59v11.97h5.58v-13.14c0-2.25-.62-4.05-1.87-5.4-1.25-1.35-2.99-2.03-5.24-2.03s-4.08.77-5.4,2.3v-1.85h-5.58v20.12h5.58v-12.74Z"/>
    <path class="cls-2" d="M586.16,390.87c-1.8,0-2.93-.73-3.38-2.21h-5.54c.3,2.04,1.24,3.62,2.83,4.75s3.63,1.69,6.12,1.69,4.37-.58,5.92-1.75,2.32-2.76,2.32-4.77c0-3.03-1.79-4.98-5.36-5.85l-4.14-.95c-1.2-.3-1.8-.82-1.8-1.58,0-.6.26-1.06.79-1.39s1.15-.5,1.87-.5c1.68,0,2.73.66,3.15,1.98h5.31c-.36-1.95-1.25-3.47-2.68-4.57-1.43-1.09-3.38-1.64-5.87-1.64-2.28,0-4.18.61-5.71,1.82-1.53,1.21-2.29,2.78-2.29,4.7,0,2.97,1.74,4.86,5.22,5.67l4.05.9c.72.18,1.24.4,1.55.65.32.25.47.61.47,1.06,0,1.32-.95,1.98-2.83,1.98Z"/>
    <path class="cls-2" d="M603.8,381.92c.21-.87.65-1.55,1.33-2.05s1.45-.74,2.32-.74c1.08,0,1.9.32,2.45.97.55.65.83,1.51.83,2.59v11.97h5.58v-13.14c0-2.25-.62-4.05-1.87-5.4-1.24-1.35-2.99-2.03-5.24-2.03s-4.08.77-5.4,2.3v-10.98h-5.58v29.25h5.58v-12.74Z"/>
    <path class="cls-2" d="M630.13,382.41c-.9-.24-1.77-.36-2.61-.36-2.22,0-4.07.6-5.56,1.8-1.49,1.2-2.23,2.75-2.23,4.63,0,2.01.71,3.6,2.14,4.77,1.42,1.17,3.2,1.75,5.33,1.75,1.05,0,2.04-.15,2.97-.45.93-.3,1.57-.63,1.93-.99v1.08h5.36v-12.83c0-2.43-.74-4.33-2.23-5.69-1.49-1.36-3.56-2.05-6.23-2.05-2.25,0-4.15.61-5.69,1.82s-2.47,2.75-2.77,4.61h5.31c.48-1.26,1.47-1.89,2.97-1.89,1.08,0,1.9.29,2.45.88s.83,1.33.83,2.23v1.49c-.42-.3-1.08-.57-1.98-.81ZM632.1,389.16c-.24.54-.7.97-1.37,1.28-.68.31-1.43.47-2.27.47-.99,0-1.83-.21-2.52-.63-.69-.42-1.04-1.04-1.04-1.84s.35-1.42,1.06-1.84,1.54-.63,2.5-.63c.84,0,1.6.16,2.27.47.67.32,1.13.74,1.37,1.28v1.44Z"/>
    <path class="cls-2" d="M647.58,382.19c.21-.9.66-1.6,1.35-2.09s1.52-.74,2.47-.74c1.11,0,2.04.22,2.79.67v-5.58c-.42-.24-1.12-.36-2.12-.36-2.04,0-3.54.81-4.5,2.43v-1.98h-5.58v20.12h5.58v-12.46Z"/>
    <path class="cls-2" d="M660.59,371.93c.9,0,1.67-.3,2.32-.9.64-.6.97-1.37.97-2.29s-.32-1.66-.97-2.27c-.65-.61-1.42-.92-2.32-.92s-1.68.31-2.34.92c-.66.62-.99,1.37-.99,2.27s.32,1.7.97,2.29c.64.6,1.43.9,2.36.9Z"/>
    <rect class="cls-2" x="657.8" y="374.54" width="5.58" height="20.12"/>
    <path class="cls-2" d="M673.82,381.92c.21-.87.65-1.55,1.33-2.05.67-.5,1.45-.74,2.32-.74,1.08,0,1.9.32,2.45.97.55.65.83,1.51.83,2.59v11.97h5.58v-13.14c0-2.25-.62-4.05-1.87-5.4-1.25-1.35-2.99-2.03-5.24-2.03s-4.08.77-5.4,2.3v-1.85h-5.58v20.12h5.58v-12.74Z"/>
    <path class="cls-2" d="M698.84,394.2c2.16,0,3.81-.69,4.95-2.07v1.17c0,3.27-1.44,4.9-4.32,4.9-2.19,0-3.51-.94-3.96-2.83h-5.4c.3,2.25,1.28,4,2.95,5.27,1.67,1.26,3.8,1.89,6.41,1.89,2.97,0,5.36-.85,7.16-2.54,1.8-1.69,2.7-4.21,2.7-7.54v-17.91h-5.54v1.58c-1.17-1.35-2.82-2.03-4.95-2.03-2.79,0-5.01.98-6.66,2.93s-2.47,4.32-2.47,7.11.82,5.21,2.47,7.16,3.87,2.92,6.66,2.92ZM696.54,380.25c.84-.99,1.99-1.48,3.46-1.48,1.68,0,2.94.69,3.78,2.07v6.57c-.36.6-.88,1.1-1.55,1.51-.67.41-1.42.61-2.23.61-1.47,0-2.62-.5-3.46-1.51-.84-1-1.26-2.3-1.26-3.89s.42-2.88,1.26-3.87Z"/>
    <path class="cls-2" d="M731.6,395.1c1.02,0,2-.21,2.93-.63s1.63-.92,2.12-1.49v1.67h5.62v-29.25h-5.62v10.8c-.48-.57-1.19-1.06-2.12-1.48s-1.91-.63-2.93-.63c-2.82,0-5.05,1.01-6.68,3.02s-2.45,4.52-2.45,7.51.82,5.5,2.45,7.49c1.63,2,3.86,2.99,6.68,2.99ZM729.35,380.54c.87-1.06,2.04-1.6,3.51-1.6.81,0,1.56.22,2.25.65.69.44,1.2,1,1.53,1.69v6.62c-.33.69-.83,1.25-1.51,1.69-.68.44-1.43.65-2.27.65-1.47,0-2.64-.52-3.51-1.58-.87-1.05-1.3-2.4-1.3-4.05s.44-3.01,1.3-4.07Z"/>
    <path class="cls-2" d="M756.26,382.41c-.9-.24-1.77-.36-2.61-.36-2.22,0-4.07.6-5.56,1.8-1.49,1.2-2.23,2.75-2.23,4.63,0,2.01.71,3.6,2.14,4.77,1.42,1.17,3.2,1.75,5.33,1.75,1.05,0,2.04-.15,2.97-.45.93-.3,1.57-.63,1.93-.99v1.08h5.36v-12.83c0-2.43-.74-4.33-2.23-5.69-1.49-1.36-3.56-2.05-6.23-2.05-2.25,0-4.15.61-5.69,1.82s-2.47,2.75-2.77,4.61h5.31c.48-1.26,1.47-1.89,2.97-1.89,1.08,0,1.9.29,2.45.88s.83,1.33.83,2.23v1.49c-.42-.3-1.08-.57-1.98-.81ZM758.24,389.16c-.24.54-.7.97-1.37,1.28-.68.31-1.43.47-2.27.47-.99,0-1.83-.21-2.52-.63-.69-.42-1.04-1.04-1.04-1.84s.35-1.42,1.06-1.84,1.54-.63,2.5-.63c.84,0,1.6.16,2.27.47.67.32,1.13.74,1.37,1.28v1.44Z"/>
    <path class="cls-2" d="M769.17,388.58c0,2.16.59,3.78,1.76,4.86s2.8,1.62,4.9,1.62c1.62,0,2.82-.21,3.6-.63v-4.95c-.69.45-1.5.67-2.43.67-1.53,0-2.29-.76-2.29-2.29v-8.82h4.41v-4.5h-4.41v-5.44h-5.54v5.44h-3.06v4.5h3.06v9.54Z"/>
    <path class="cls-2" d="M792.35,382.41c-.9-.24-1.77-.36-2.61-.36-2.22,0-4.07.6-5.56,1.8-1.48,1.2-2.23,2.75-2.23,4.63,0,2.01.71,3.6,2.14,4.77,1.43,1.17,3.2,1.75,5.33,1.75,1.05,0,2.04-.15,2.97-.45s1.58-.63,1.94-.99v1.08h5.36v-12.83c0-2.43-.74-4.33-2.23-5.69-1.48-1.36-3.56-2.05-6.23-2.05-2.25,0-4.15.61-5.69,1.82-1.55,1.21-2.47,2.75-2.77,4.61h5.31c.48-1.26,1.47-1.89,2.97-1.89,1.08,0,1.9.29,2.45.88.55.58.83,1.33.83,2.23v1.49c-.42-.3-1.08-.57-1.98-.81ZM794.33,389.16c-.24.54-.7.97-1.37,1.28-.67.31-1.43.47-2.27.47-.99,0-1.83-.21-2.52-.63-.69-.42-1.04-1.04-1.04-1.84s.35-1.42,1.06-1.84,1.54-.63,2.5-.63c.84,0,1.6.16,2.27.47.68.32,1.13.74,1.37,1.28v1.44Z"/>
    <path class="cls-2" d="M369.94,438.57v1.08h5.36v-12.83c0-2.43-.74-4.33-2.23-5.69-1.48-1.36-3.56-2.05-6.23-2.05-2.25,0-4.15.61-5.69,1.82-1.55,1.21-2.47,2.75-2.77,4.61h5.31c.48-1.26,1.47-1.89,2.97-1.89,1.08,0,1.9.29,2.45.88.55.58.83,1.33.83,2.23v1.49c-.42-.3-1.08-.57-1.98-.81-.9-.24-1.77-.36-2.61-.36-2.22,0-4.07.6-5.56,1.8-1.48,1.2-2.23,2.75-2.23,4.63,0,2.01.71,3.6,2.14,4.77,1.43,1.17,3.2,1.75,5.33,1.75,1.05,0,2.04-.15,2.97-.45s1.58-.63,1.94-.99ZM363.77,435.29c-.69-.42-1.04-1.04-1.04-1.84s.35-1.42,1.06-1.84,1.54-.63,2.5-.63c.84,0,1.6.16,2.27.47.68.32,1.13.74,1.37,1.28v1.44c-.24.54-.7.97-1.37,1.28-.67.31-1.43.47-2.27.47-.99,0-1.83-.21-2.52-.63Z"/>
    <path class="cls-2" d="M387.53,419.72c-.93.42-1.63.92-2.12,1.48v-10.8h-5.62v29.25h5.62v-1.67c.48.57,1.19,1.07,2.12,1.49s1.9.63,2.93.63c2.82,0,5.05-1,6.68-2.99,1.63-1.99,2.45-4.49,2.45-7.49s-.82-5.5-2.45-7.51-3.86-3.02-6.68-3.02c-1.02,0-2,.21-2.93.63ZM394.01,429.62c0,1.65-.44,3-1.3,4.05-.87,1.05-2.04,1.58-3.51,1.58-.84,0-1.6-.22-2.27-.65-.67-.43-1.18-1-1.51-1.69v-6.62c.33-.69.84-1.25,1.53-1.69.69-.43,1.44-.65,2.25-.65,1.47,0,2.64.53,3.51,1.6.87,1.07,1.3,2.42,1.3,4.07Z"/>
    <path class="cls-2" d="M419.08,437.18c1.83-1.95,2.74-4.47,2.74-7.56s-.91-5.65-2.74-7.6-4.2-2.93-7.11-2.93-5.28.98-7.11,2.93-2.74,4.49-2.74,7.6.91,5.61,2.74,7.56,4.2,2.92,7.11,2.92,5.28-.97,7.11-2.92ZM408.79,433.78c-.76-1.07-1.15-2.45-1.15-4.16s.38-3.14,1.15-4.21c.77-1.06,1.82-1.6,3.17-1.6s2.41.53,3.17,1.6,1.15,2.47,1.15,4.21-.38,3.1-1.15,4.16c-.77,1.06-1.82,1.6-3.17,1.6s-2.41-.53-3.17-1.6Z"/>
    <path class="cls-2" d="M425.15,419.54v13.14c0,2.25.62,4.05,1.87,5.4,1.24,1.35,2.98,2.03,5.2,2.03s4.02-.77,5.4-2.29v1.84h5.58v-20.12h-5.62v12.78c-.21.87-.65,1.55-1.3,2.05-.66.49-1.43.74-2.29.74-1.08,0-1.89-.32-2.43-.95-.54-.63-.81-1.5-.81-2.61v-12.02h-5.58Z"/>
    <path class="cls-2" d="M454.76,432.86v-8.82h4.41v-4.5h-4.41v-5.44h-5.54v5.44h-3.06v4.5h3.06v9.54c0,2.16.59,3.78,1.76,4.86s2.8,1.62,4.9,1.62c1.62,0,2.82-.21,3.6-.63v-4.95c-.69.45-1.5.67-2.43.67-1.53,0-2.29-.76-2.29-2.29Z"/>
    <polygon class="cls-2" points="476 447.08 481.49 447.08 491.98 419.54 486.35 419.54 481.76 432.9 477.13 419.54 471.23 419.54 478.93 439.74 476 447.08"/>
    <path class="cls-2" d="M510.07,437.18c1.83-1.95,2.75-4.47,2.75-7.56s-.92-5.65-2.75-7.6-4.2-2.93-7.11-2.93-5.28.98-7.11,2.93c-1.83,1.95-2.75,4.49-2.75,7.6s.92,5.61,2.75,7.56c1.83,1.95,4.2,2.92,7.11,2.92s5.28-.97,7.11-2.92ZM499.79,433.78c-.77-1.07-1.15-2.45-1.15-4.16s.38-3.14,1.15-4.21c.76-1.06,1.82-1.6,3.17-1.6s2.41.53,3.17,1.6c.77,1.06,1.15,2.47,1.15,4.21s-.38,3.1-1.15,4.16c-.76,1.06-1.82,1.6-3.17,1.6s-2.41-.53-3.17-1.6Z"/>
    <path class="cls-2" d="M516.14,419.54v13.14c0,2.25.62,4.05,1.87,5.4,1.24,1.35,2.98,2.03,5.2,2.03s4.02-.77,5.4-2.29v1.84h5.58v-20.12h-5.62v12.78c-.21.87-.65,1.55-1.3,2.05-.66.49-1.43.74-2.29.74-1.08,0-1.89-.32-2.43-.95-.54-.63-.81-1.5-.81-2.61v-12.02h-5.58Z"/>
    <path class="cls-2" d="M539,419.54v20.12h5.58v-12.46c.21-.9.66-1.6,1.35-2.09s1.52-.74,2.47-.74c1.11,0,2.04.22,2.79.67v-5.58c-.42-.24-1.12-.36-2.12-.36-2.04,0-3.54.81-4.5,2.43v-1.98h-5.58Z"/>
    <rect class="cls-2" x="564.34" y="410.4" width="5.58" height="29.25"/>
    <path class="cls-2" d="M583.37,440.1c2.91,0,5.28-.97,7.11-2.92s2.75-4.47,2.75-7.56-.92-5.65-2.75-7.6-4.2-2.93-7.11-2.93-5.28.98-7.11,2.93c-1.83,1.95-2.75,4.49-2.75,7.6s.92,5.61,2.75,7.56c1.83,1.95,4.2,2.92,7.11,2.92ZM580.2,425.41c.76-1.06,1.82-1.6,3.17-1.6s2.41.53,3.17,1.6c.77,1.06,1.15,2.47,1.15,4.21s-.38,3.1-1.15,4.16c-.76,1.06-1.82,1.6-3.17,1.6s-2.41-.53-3.17-1.6c-.77-1.07-1.15-2.45-1.15-4.16s.38-3.14,1.15-4.21Z"/>
    <path class="cls-2" d="M605.38,440.1c2.49,0,4.51-.66,6.05-1.98,1.54-1.32,2.47-3.07,2.77-5.26h-5.49c-.15.78-.52,1.39-1.1,1.82-.59.44-1.33.65-2.23.65-1.26,0-2.27-.52-3.01-1.57-.75-1.05-1.12-2.43-1.12-4.14s.38-3.13,1.12-4.18c.75-1.05,1.75-1.58,3.01-1.58.9,0,1.64.22,2.23.65.58.44.95,1.04,1.1,1.82h5.49c-.3-2.19-1.23-3.94-2.79-5.26-1.56-1.32-3.57-1.98-6.03-1.98-2.85,0-5.17.98-6.97,2.93-1.8,1.95-2.7,4.49-2.7,7.6s.9,5.61,2.7,7.56c1.8,1.95,4.12,2.92,6.97,2.92Z"/>
    <path class="cls-2" d="M626.8,427.41c-.9-.24-1.77-.36-2.61-.36-2.22,0-4.07.6-5.56,1.8-1.49,1.2-2.23,2.75-2.23,4.63,0,2.01.71,3.6,2.14,4.77,1.42,1.17,3.2,1.75,5.33,1.75,1.05,0,2.04-.15,2.97-.45.93-.3,1.57-.63,1.93-.99v1.08h5.36v-12.83c0-2.43-.74-4.33-2.23-5.69-1.49-1.36-3.56-2.05-6.23-2.05-2.25,0-4.15.61-5.69,1.82s-2.47,2.75-2.77,4.61h5.31c.48-1.26,1.47-1.89,2.97-1.89,1.08,0,1.9.29,2.45.88s.83,1.33.83,2.23v1.49c-.42-.3-1.08-.57-1.98-.81ZM628.78,434.16c-.24.54-.7.97-1.37,1.28-.68.31-1.43.47-2.27.47-.99,0-1.83-.21-2.52-.63-.69-.42-1.04-1.04-1.04-1.84s.35-1.42,1.06-1.84,1.54-.63,2.5-.63c.84,0,1.6.16,2.27.47.67.32,1.13.74,1.37,1.28v1.44Z"/>
    <path class="cls-2" d="M636.65,424.04h3.06v9.54c0,2.16.59,3.78,1.76,4.86s2.8,1.62,4.9,1.62c1.62,0,2.82-.21,3.6-.63v-4.95c-.69.45-1.5.67-2.43.67-1.53,0-2.29-.76-2.29-2.29v-8.82h4.41v-4.5h-4.41v-5.44h-5.54v5.44h-3.06v4.5Z"/>
    <rect class="cls-2" x="654.02" y="419.54" width="5.58" height="20.12"/>
    <path class="cls-2" d="M654.45,416.03c.64.6,1.43.9,2.36.9s1.67-.3,2.32-.9c.64-.6.97-1.37.97-2.29s-.32-1.66-.97-2.27c-.65-.61-1.42-.92-2.32-.92s-1.68.31-2.34.92c-.66.62-.99,1.37-.99,2.27s.32,1.7.97,2.29Z"/>
    <path class="cls-2" d="M665.94,437.18c1.83,1.95,4.2,2.92,7.11,2.92s5.28-.97,7.11-2.92,2.74-4.47,2.74-7.56-.91-5.65-2.74-7.6-4.2-2.93-7.11-2.93-5.28.98-7.11,2.93-2.74,4.49-2.74,7.6.91,5.61,2.74,7.56ZM669.88,425.41c.77-1.06,1.82-1.6,3.17-1.6s2.41.53,3.17,1.6,1.15,2.47,1.15,4.21-.38,3.1-1.15,4.16c-.77,1.06-1.82,1.6-3.17,1.6s-2.41-.53-3.17-1.6c-.76-1.07-1.15-2.45-1.15-4.16s.38-3.14,1.15-4.21Z"/>
    <path class="cls-2" d="M692.04,426.92c.21-.87.65-1.55,1.33-2.05.67-.5,1.45-.74,2.32-.74,1.08,0,1.9.32,2.45.97.55.65.83,1.51.83,2.59v11.97h5.58v-13.14c0-2.25-.62-4.05-1.87-5.4-1.25-1.35-2.99-2.03-5.24-2.03s-4.08.77-5.4,2.3v-1.85h-5.58v20.12h5.58v-12.74Z"/>
    <polygon class="cls-2" points="728.13 439.65 731.42 427.32 734.7 439.65 739.83 439.65 745.95 419.54 740.55 419.54 736.95 432.36 733.62 419.54 729.35 419.54 726.06 432.36 722.46 419.54 716.88 419.54 723 439.65 728.13 439.65"/>
    <path class="cls-2" d="M751.76,410.54c-.9,0-1.68.31-2.34.92-.66.62-.99,1.37-.99,2.27s.32,1.7.97,2.29c.64.6,1.43.9,2.36.9s1.67-.3,2.32-.9c.64-.6.97-1.37.97-2.29s-.32-1.66-.97-2.27c-.65-.61-1.42-.92-2.32-.92Z"/>
    <rect class="cls-2" x="748.97" y="419.54" width="5.58" height="20.12"/>
    <path class="cls-2" d="M760.62,414.09v5.44h-3.06v4.5h3.06v9.54c0,2.16.59,3.78,1.76,4.86s2.8,1.62,4.9,1.62c1.62,0,2.82-.21,3.6-.63v-4.95c-.69.45-1.5.67-2.43.67-1.53,0-2.29-.76-2.29-2.29v-8.82h4.41v-4.5h-4.41v-5.44h-5.54Z"/>
    <path class="cls-2" d="M774.93,410.4v29.25h5.58v-12.74c.21-.87.65-1.55,1.33-2.05s1.45-.74,2.32-.74c1.08,0,1.9.32,2.45.97.55.65.83,1.51.83,2.59v11.97h5.58v-13.14c0-2.25-.62-4.05-1.87-5.4-1.24-1.35-2.99-2.03-5.24-2.03s-4.08.77-5.4,2.3v-10.98h-5.58Z"/>
    <path class="cls-2" d="M376.17,457.02l-10.57,27.63h5.76l2.43-6.66h10.35l2.48,6.66h5.85l-10.58-27.63h-5.71ZM375.59,473.13l3.38-9.18,3.38,9.18h-6.75Z"/>
    <rect class="cls-2" x="395.56" y="455.4" width="5.58" height="29.25"/>
    <path class="cls-2" d="M408.79,455.54c-.9,0-1.68.31-2.34.92-.66.62-.99,1.37-.99,2.27s.32,1.7.97,2.29c.64.6,1.43.9,2.36.9s1.67-.3,2.32-.9c.65-.6.97-1.37.97-2.29s-.32-1.66-.97-2.27c-.64-.61-1.42-.92-2.32-.92Z"/>
    <rect class="cls-2" x="406" y="464.54" width="5.58" height="20.12"/>
    <path class="cls-2" d="M424.86,468.86c.9,0,1.64.22,2.23.65.58.44.95,1.04,1.1,1.82h5.49c-.3-2.19-1.23-3.94-2.79-5.26-1.56-1.32-3.57-1.98-6.03-1.98-2.85,0-5.17.98-6.97,2.93-1.8,1.95-2.7,4.49-2.7,7.6s.9,5.61,2.7,7.56c1.8,1.95,4.12,2.92,6.97,2.92,2.49,0,4.51-.66,6.05-1.98,1.54-1.32,2.47-3.07,2.77-5.26h-5.49c-.15.78-.52,1.39-1.1,1.82-.59.44-1.33.65-2.23.65-1.26,0-2.27-.52-3.01-1.57-.75-1.05-1.12-2.43-1.12-4.14s.38-3.13,1.12-4.18c.75-1.05,1.75-1.58,3.01-1.58Z"/>
    <path class="cls-2" d="M445.56,464.09c-2.82,0-5.14,1-6.95,2.99-1.82,2-2.72,4.51-2.72,7.54s.9,5.65,2.7,7.58c1.8,1.93,4.15,2.9,7.06,2.9,2.49,0,4.51-.62,6.05-1.87,1.54-1.24,2.5-2.96,2.86-5.15h-5.17c-.45,1.68-1.7,2.52-3.74,2.52-1.26,0-2.28-.43-3.06-1.28-.78-.86-1.21-2.03-1.3-3.53h13.41v-1.71c0-3.03-.8-5.45-2.41-7.27-1.61-1.81-3.85-2.72-6.73-2.72ZM441.42,472.41c.51-2.52,1.9-3.78,4.18-3.78,1.11,0,1.98.35,2.61,1.06.63.71.96,1.61.99,2.72h-7.79Z"/>
    <path class="cls-2" d="M472.15,476.28l4.05.9c.72.18,1.24.4,1.55.65.32.25.47.61.47,1.06,0,1.32-.95,1.98-2.83,1.98s-2.93-.73-3.38-2.21h-5.54c.3,2.04,1.24,3.62,2.83,4.75s3.63,1.69,6.12,1.69,4.37-.58,5.92-1.75,2.32-2.76,2.32-4.77c0-3.03-1.79-4.98-5.36-5.85l-4.14-.95c-1.2-.3-1.8-.82-1.8-1.58,0-.6.26-1.06.79-1.39s1.15-.5,1.87-.5c1.68,0,2.73.66,3.15,1.98h5.31c-.36-1.95-1.25-3.47-2.68-4.57-1.43-1.09-3.38-1.64-5.87-1.64-2.28,0-4.18.61-5.71,1.82-1.53,1.21-2.29,2.78-2.29,4.7,0,2.97,1.74,4.86,5.22,5.67Z"/>
    <path class="cls-2" d="M490.24,455.54c-.9,0-1.68.31-2.34.92-.66.62-.99,1.37-.99,2.27s.32,1.7.97,2.29c.64.6,1.43.9,2.36.9s1.67-.3,2.32-.9c.65-.6.97-1.37.97-2.29s-.32-1.66-.97-2.27c-.64-.61-1.42-.92-2.32-.92Z"/>
    <rect class="cls-2" x="487.45" y="464.54" width="5.58" height="20.12"/>
    <path class="cls-2" d="M508.87,464.09c-2.28,0-4.08.77-5.4,2.3v-1.85h-5.58v20.12h5.58v-12.74c.21-.87.65-1.55,1.33-2.05s1.45-.74,2.32-.74c1.08,0,1.9.32,2.45.97.55.65.83,1.51.83,2.59v11.97h5.58v-13.14c0-2.25-.62-4.05-1.87-5.4-1.24-1.35-2.99-2.03-5.24-2.03Z"/>
    <path class="cls-2" d="M529.03,468.86c.9,0,1.64.22,2.23.65.59.44.95,1.04,1.1,1.82h5.49c-.3-2.19-1.23-3.94-2.79-5.26-1.56-1.32-3.57-1.98-6.03-1.98-2.85,0-5.18.98-6.97,2.93-1.8,1.95-2.7,4.49-2.7,7.6s.9,5.61,2.7,7.56c1.8,1.95,4.12,2.92,6.97,2.92,2.49,0,4.51-.66,6.05-1.98,1.54-1.32,2.47-3.07,2.77-5.26h-5.49c-.15.78-.52,1.39-1.1,1.82-.58.44-1.33.65-2.23.65-1.26,0-2.27-.52-3.02-1.57s-1.12-2.43-1.12-4.14.38-3.13,1.12-4.18,1.76-1.58,3.02-1.58Z"/>
    <path class="cls-2" d="M549.73,464.09c-2.82,0-5.14,1-6.95,2.99s-2.72,4.51-2.72,7.54.9,5.65,2.7,7.58c1.8,1.93,4.15,2.9,7.06,2.9,2.49,0,4.51-.62,6.05-1.87,1.54-1.24,2.5-2.96,2.86-5.15h-5.18c-.45,1.68-1.7,2.52-3.73,2.52-1.26,0-2.28-.43-3.06-1.28-.78-.86-1.21-2.03-1.3-3.53h13.41v-1.71c0-3.03-.8-5.45-2.41-7.27-1.61-1.81-3.85-2.72-6.73-2.72ZM545.59,472.41c.51-2.52,1.9-3.78,4.19-3.78,1.11,0,1.98.35,2.61,1.06.63.71.96,1.61.99,2.72h-7.79Z"/>
    <path class="cls-2" d="M583.89,485.1c3.84,0,6.98-1.34,9.43-4.03s3.67-6.1,3.67-10.24-1.22-7.55-3.67-10.24c-2.45-2.68-5.59-4.03-9.43-4.03s-6.97,1.33-9.4,4c-2.43,2.67-3.65,6.09-3.65,10.26s1.21,7.55,3.65,10.24c2.43,2.68,5.56,4.03,9.4,4.03ZM578.67,464.22c1.32-1.68,3.06-2.52,5.22-2.52s3.95.84,5.29,2.52,2,3.88,2,6.61-.67,4.94-2,6.62c-1.33,1.68-3.1,2.52-5.29,2.52s-3.9-.84-5.22-2.52c-1.32-1.68-1.98-3.88-1.98-6.62s.66-4.93,1.98-6.61Z"/>
    <path class="cls-2" d="M609.36,468.86c.9,0,1.64.22,2.23.65.58.44.95,1.04,1.1,1.82h5.49c-.3-2.19-1.23-3.94-2.79-5.26-1.56-1.32-3.57-1.98-6.03-1.98-2.85,0-5.17.98-6.97,2.93-1.8,1.95-2.7,4.49-2.7,7.6s.9,5.61,2.7,7.56c1.8,1.95,4.12,2.92,6.97,2.92,2.49,0,4.51-.66,6.05-1.98,1.54-1.32,2.47-3.07,2.77-5.26h-5.49c-.15.78-.52,1.39-1.1,1.82-.59.44-1.33.65-2.23.65-1.26,0-2.27-.52-3.01-1.57-.75-1.05-1.12-2.43-1.12-4.14s.38-3.13,1.12-4.18c.75-1.05,1.75-1.58,3.01-1.58Z"/>
    <path class="cls-2" d="M622.99,459.09v5.44h-3.06v4.5h3.06v9.54c0,2.16.59,3.78,1.76,4.86s2.8,1.62,4.9,1.62c1.62,0,2.82-.21,3.6-.63v-4.95c-.69.45-1.5.67-2.43.67-1.53,0-2.29-.76-2.29-2.29v-8.82h4.41v-4.5h-4.41v-5.44h-5.54Z"/>
    <path class="cls-2" d="M645.72,464.09c-2.91,0-5.28.98-7.11,2.93s-2.74,4.49-2.74,7.6.91,5.61,2.74,7.56,4.2,2.92,7.11,2.92,5.28-.97,7.11-2.92,2.74-4.47,2.74-7.56-.91-5.65-2.74-7.6-4.2-2.93-7.11-2.93ZM648.89,478.78c-.77,1.06-1.82,1.6-3.17,1.6s-2.41-.53-3.17-1.6c-.76-1.07-1.15-2.45-1.15-4.16s.38-3.14,1.15-4.21c.77-1.06,1.82-1.6,3.17-1.6s2.41.53,3.17,1.6,1.15,2.47,1.15,4.21-.38,3.1-1.15,4.16Z"/>
    <path class="cls-2" d="M659.08,455.4v29.25h5.62v-1.67c.48.57,1.19,1.07,2.12,1.49s1.9.63,2.93.63c2.82,0,5.05-1,6.68-2.99,1.63-1.99,2.45-4.49,2.45-7.49s-.82-5.5-2.45-7.51-3.86-3.02-6.68-3.02c-1.02,0-2,.21-2.93.63s-1.63.92-2.12,1.48v-10.8h-5.62ZM666.24,469.6c.69-.43,1.44-.65,2.25-.65,1.47,0,2.64.53,3.51,1.6.87,1.07,1.3,2.42,1.3,4.07s-.44,3-1.3,4.05c-.87,1.05-2.04,1.58-3.51,1.58-.84,0-1.6-.22-2.27-.65-.67-.43-1.18-1-1.51-1.69v-6.62c.33-.69.84-1.25,1.53-1.69Z"/>
    <path class="cls-2" d="M700.21,474.08c0-3.03-.8-5.45-2.41-7.27-1.61-1.81-3.85-2.72-6.73-2.72s-5.14,1-6.95,2.99-2.72,4.51-2.72,7.54.9,5.65,2.7,7.58c1.8,1.93,4.15,2.9,7.06,2.9,2.49,0,4.51-.62,6.05-1.87,1.54-1.24,2.5-2.96,2.86-5.15h-5.18c-.45,1.68-1.7,2.52-3.73,2.52-1.26,0-2.28-.43-3.06-1.28-.78-.86-1.21-2.03-1.3-3.53h13.41v-1.71ZM686.94,472.41c.51-2.52,1.9-3.78,4.19-3.78,1.11,0,1.98.35,2.61,1.06.63.71.96,1.61.99,2.72h-7.79Z"/>
    <path class="cls-2" d="M703.77,464.54v20.12h5.58v-12.46c.21-.9.66-1.6,1.35-2.09s1.52-.74,2.47-.74c1.11,0,2.04.22,2.79.67v-5.58c-.42-.24-1.12-.36-2.12-.36-2.04,0-3.54.81-4.5,2.43v-1.98h-5.58Z"/>
    <path class="cls-2" d="M737.29,480.2c-1.32,0-2.36-.37-3.13-1.1-.76-.73-1.22-1.73-1.37-2.99h-5.67c.15,2.7,1.15,4.88,3.01,6.52,1.86,1.65,4.26,2.48,7.2,2.48s5.17-.79,6.88-2.38c1.71-1.59,2.56-3.62,2.56-6.08,0-1.32-.33-2.52-.99-3.6s-1.61-1.89-2.83-2.43c.99-.48,1.8-1.27,2.43-2.36.63-1.09.95-2.3.95-3.62,0-2.4-.81-4.34-2.43-5.83-1.62-1.49-3.81-2.23-6.57-2.23s-4.92.82-6.66,2.45c-1.74,1.64-2.75,3.71-3.02,6.23h5.58c.09-1.11.49-2.02,1.19-2.72.7-.71,1.66-1.06,2.86-1.06,1.11,0,1.99.32,2.63.97.64.64.97,1.46.97,2.45,0,1.11-.38,1.96-1.15,2.56-.76.6-1.76.9-2.99.9h-1.57v4.46h1.75c1.29,0,2.34.34,3.15,1.01s1.21,1.58,1.21,2.72c0,1.08-.38,1.96-1.12,2.63s-1.71,1.01-2.88,1.01Z"/>
    <path class="cls-2" d="M750.43,464.54v20.12h5.58v-12.46c.21-.9.66-1.6,1.35-2.09s1.52-.74,2.47-.74c1.11,0,2.04.22,2.79.67v-5.58c-.42-.24-1.12-.36-2.12-.36-2.04,0-3.54.81-4.5,2.43v-1.98h-5.58Z"/>
    <path class="cls-2" d="M784.27,484.65v-29.25h-5.62v10.8c-.48-.57-1.19-1.06-2.11-1.48-.93-.42-1.91-.63-2.93-.63-2.82,0-5.05,1.01-6.68,3.02s-2.45,4.52-2.45,7.51.82,5.5,2.45,7.49c1.63,2,3.86,2.99,6.68,2.99,1.02,0,1.99-.21,2.93-.63.93-.42,1.63-.92,2.11-1.49v1.67h5.62ZM777.14,479.59c-.68.44-1.43.65-2.27.65-1.47,0-2.64-.52-3.51-1.58-.87-1.05-1.3-2.4-1.3-4.05s.43-3.01,1.3-4.07c.87-1.06,2.04-1.6,3.51-1.6.81,0,1.56.22,2.25.65.69.44,1.2,1,1.53,1.69v6.62c-.33.69-.83,1.25-1.51,1.69Z"/>
    <path class="cls-2" d="M383.48,571.16c1.11-1.4,1.66-3.17,1.66-5.33,0-2.79-.87-4.95-2.61-6.48-1.74-1.53-4.1-2.29-7.06-2.29h-11.38v27.63h5.71v-10.31h3.01l6.84,10.31h6.48l-7.29-10.71c1.98-.48,3.52-1.42,4.63-2.81ZM375.11,569.65h-5.31v-7.7h5.31c1.41,0,2.49.35,3.24,1.04.75.69,1.12,1.64,1.12,2.83s-.38,2.1-1.12,2.79c-.75.69-1.83,1.04-3.24,1.04Z"/>
    <path class="cls-2" d="M397.39,564.12c-2.82,0-5.14,1-6.95,2.99-1.82,2-2.72,4.51-2.72,7.54s.9,5.65,2.7,7.58c1.8,1.94,4.15,2.9,7.06,2.9,2.49,0,4.51-.62,6.05-1.87,1.54-1.24,2.5-2.96,2.86-5.15h-5.17c-.45,1.68-1.7,2.52-3.74,2.52-1.26,0-2.28-.43-3.06-1.28-.78-.85-1.21-2.03-1.3-3.53h13.41v-1.71c0-3.03-.8-5.45-2.41-7.27-1.61-1.81-3.85-2.72-6.73-2.72ZM393.25,572.44c.51-2.52,1.9-3.78,4.18-3.78,1.11,0,1.98.35,2.61,1.06.63.71.96,1.61.99,2.72h-7.79Z"/>
    <polygon class="cls-2" points="418.27 577.93 413.63 564.56 407.78 564.56 415.39 584.68 420.79 584.68 428.44 564.56 422.81 564.56 418.27 577.93"/>
    <path class="cls-2" d="M434.24,555.56c-.9,0-1.68.31-2.34.92-.66.62-.99,1.37-.99,2.27s.32,1.7.97,2.29c.64.6,1.43.9,2.36.9s1.67-.3,2.32-.9c.64-.6.97-1.36.97-2.29s-.32-1.66-.97-2.27c-.65-.61-1.42-.92-2.32-.92Z"/>
    <rect class="cls-2" x="431.45" y="564.56" width="5.58" height="20.12"/>
    <path class="cls-2" d="M450.31,564.12c-2.82,0-5.14,1-6.95,2.99s-2.72,4.51-2.72,7.54.9,5.65,2.7,7.58c1.8,1.94,4.15,2.9,7.06,2.9,2.49,0,4.51-.62,6.05-1.87,1.54-1.24,2.5-2.96,2.86-5.15h-5.18c-.45,1.68-1.7,2.52-3.73,2.52-1.26,0-2.28-.43-3.06-1.28s-1.21-2.03-1.3-3.53h13.41v-1.71c0-3.03-.8-5.45-2.41-7.27-1.61-1.81-3.85-2.72-6.73-2.72ZM446.17,572.44c.51-2.52,1.9-3.78,4.19-3.78,1.11,0,1.98.35,2.61,1.06.63.71.96,1.61.99,2.72h-7.79Z"/>
    <polygon class="cls-2" points="481 577.39 477.67 564.56 473.39 564.56 470.11 577.39 466.51 564.56 460.93 564.56 467.05 584.68 472.18 584.68 475.46 572.35 478.75 584.68 483.88 584.68 490 564.56 484.6 564.56 481 577.39"/>
    <rect class="cls-2" x="502.55" y="555.43" width="5.58" height="29.25"/>
    <path class="cls-2" d="M521.59,564.12c-2.91,0-5.28.98-7.11,2.92-1.83,1.95-2.75,4.49-2.75,7.6s.92,5.61,2.75,7.56c1.83,1.95,4.2,2.93,7.11,2.93s5.28-.97,7.11-2.93c1.83-1.95,2.75-4.47,2.75-7.56s-.92-5.65-2.75-7.6c-1.83-1.95-4.2-2.92-7.11-2.92ZM524.76,578.81c-.76,1.07-1.82,1.6-3.17,1.6s-2.41-.53-3.17-1.6c-.77-1.06-1.15-2.45-1.15-4.16s.38-3.14,1.15-4.21c.76-1.06,1.82-1.6,3.17-1.6s2.41.53,3.17,1.6c.77,1.07,1.15,2.47,1.15,4.21s-.38,3.1-1.15,4.16Z"/>
    <path class="cls-2" d="M543.59,568.89c.9,0,1.64.22,2.23.65.58.44.95,1.04,1.1,1.82h5.49c-.3-2.19-1.23-3.94-2.79-5.27-1.56-1.32-3.57-1.98-6.03-1.98-2.85,0-5.17.98-6.97,2.92-1.8,1.95-2.7,4.49-2.7,7.6s.9,5.61,2.7,7.56c1.8,1.95,4.12,2.93,6.97,2.93,2.49,0,4.51-.66,6.05-1.98,1.54-1.32,2.47-3.08,2.77-5.27h-5.49c-.15.78-.52,1.39-1.1,1.82-.59.44-1.33.65-2.23.65-1.26,0-2.27-.52-3.01-1.58-.75-1.05-1.12-2.43-1.12-4.14s.38-3.13,1.12-4.19c.75-1.05,1.75-1.57,3.01-1.57Z"/>
    <path class="cls-2" d="M563.89,564.12c-2.25,0-4.15.61-5.69,1.82-1.55,1.22-2.47,2.75-2.77,4.61h5.31c.48-1.26,1.47-1.89,2.97-1.89,1.08,0,1.9.29,2.45.88.55.58.83,1.33.83,2.23v1.48c-.42-.3-1.08-.57-1.98-.81-.9-.24-1.77-.36-2.61-.36-2.22,0-4.07.6-5.56,1.8-1.48,1.2-2.23,2.74-2.23,4.63,0,2.01.71,3.6,2.14,4.77,1.43,1.17,3.2,1.75,5.33,1.75,1.05,0,2.04-.15,2.97-.45.93-.3,1.58-.63,1.94-.99v1.08h5.36v-12.83c0-2.43-.74-4.33-2.23-5.69-1.48-1.36-3.56-2.05-6.23-2.05ZM566.99,579.19c-.24.54-.7.97-1.37,1.28-.67.31-1.43.47-2.27.47-.99,0-1.83-.21-2.52-.63-.69-.42-1.04-1.03-1.04-1.84s.35-1.42,1.06-1.85c.71-.42,1.54-.63,2.5-.63.84,0,1.6.16,2.27.47.68.31,1.13.74,1.37,1.28v1.44Z"/>
    <path class="cls-2" d="M583.46,577.89v-8.82h4.41v-4.5h-4.41v-5.44h-5.54v5.44h-3.06v4.5h3.06v9.54c0,2.16.59,3.78,1.76,4.86s2.8,1.62,4.9,1.62c1.62,0,2.82-.21,3.6-.63v-4.95c-.69.45-1.5.67-2.43.67-1.53,0-2.29-.77-2.29-2.29Z"/>
    <path class="cls-2" d="M595.03,555.56c-.9,0-1.68.31-2.34.92-.66.62-.99,1.37-.99,2.27s.32,1.7.97,2.29c.64.6,1.43.9,2.36.9s1.67-.3,2.32-.9c.64-.6.97-1.36.97-2.29s-.32-1.66-.97-2.27c-.65-.61-1.42-.92-2.32-.92Z"/>
    <rect class="cls-2" x="592.24" y="564.56" width="5.58" height="20.12"/>
    <path class="cls-2" d="M611.27,564.12c-2.91,0-5.28.98-7.11,2.92-1.83,1.95-2.74,4.49-2.74,7.6s.91,5.61,2.74,7.56c1.83,1.95,4.2,2.93,7.11,2.93s5.28-.97,7.11-2.93c1.83-1.95,2.74-4.47,2.74-7.56s-.91-5.65-2.74-7.6c-1.83-1.95-4.2-2.92-7.11-2.92ZM614.44,578.81c-.77,1.07-1.82,1.6-3.17,1.6s-2.41-.53-3.17-1.6c-.76-1.06-1.15-2.45-1.15-4.16s.38-3.14,1.15-4.21c.77-1.06,1.82-1.6,3.17-1.6s2.41.53,3.17,1.6c.77,1.07,1.15,2.47,1.15,4.21s-.38,3.1-1.15,4.16Z"/>
    <path class="cls-2" d="M635.66,564.12c-2.28,0-4.08.77-5.4,2.29v-1.85h-5.58v20.12h5.58v-12.73c.21-.87.65-1.55,1.33-2.05.68-.49,1.45-.74,2.32-.74,1.08,0,1.9.32,2.45.97.55.65.83,1.51.83,2.59v11.97h5.58v-13.14c0-2.25-.62-4.05-1.87-5.4-1.24-1.35-2.99-2.02-5.24-2.02Z"/>
    <path class="cls-2" d="M667.47,572.76l-4.14-.95c-1.2-.3-1.8-.82-1.8-1.57,0-.6.26-1.06.79-1.4s1.15-.5,1.87-.5c1.68,0,2.73.66,3.15,1.98h5.31c-.36-1.95-1.25-3.47-2.68-4.57-1.43-1.09-3.38-1.64-5.87-1.64-2.28,0-4.18.61-5.71,1.82-1.53,1.22-2.29,2.78-2.29,4.7,0,2.97,1.74,4.86,5.22,5.67l4.05.9c.72.18,1.24.4,1.55.65.32.25.47.61.47,1.06,0,1.32-.95,1.98-2.83,1.98s-2.93-.73-3.38-2.21h-5.54c.3,2.04,1.24,3.62,2.83,4.75s3.63,1.69,6.12,1.69,4.37-.58,5.92-1.76c1.54-1.17,2.32-2.76,2.32-4.77,0-3.03-1.79-4.98-5.36-5.85Z"/>
    <path class="cls-2" d="M687.59,564.12c-2.28,0-4.08.77-5.4,2.29v-10.98h-5.58v29.25h5.58v-12.73c.21-.87.65-1.55,1.33-2.05.68-.49,1.45-.74,2.32-.74,1.08,0,1.9.32,2.45.97.55.65.83,1.51.83,2.59v11.97h5.58v-13.14c0-2.25-.62-4.05-1.87-5.4-1.24-1.35-2.99-2.02-5.24-2.02Z"/>
    <path class="cls-2" d="M707.39,564.12c-2.25,0-4.15.61-5.69,1.82-1.54,1.22-2.47,2.75-2.77,4.61h5.31c.48-1.26,1.47-1.89,2.97-1.89,1.08,0,1.9.29,2.45.88s.83,1.33.83,2.23v1.48c-.42-.3-1.08-.57-1.98-.81-.9-.24-1.77-.36-2.61-.36-2.22,0-4.07.6-5.56,1.8-1.49,1.2-2.23,2.74-2.23,4.63,0,2.01.71,3.6,2.14,4.77,1.42,1.17,3.2,1.75,5.33,1.75,1.05,0,2.04-.15,2.97-.45.93-.3,1.57-.63,1.93-.99v1.08h5.36v-12.83c0-2.43-.74-4.33-2.23-5.69-1.49-1.36-3.56-2.05-6.23-2.05ZM710.49,579.19c-.24.54-.7.97-1.37,1.28-.68.31-1.43.47-2.27.47-.99,0-1.83-.21-2.52-.63-.69-.42-1.04-1.03-1.04-1.84s.35-1.42,1.06-1.85c.71-.42,1.54-.63,2.5-.63.84,0,1.6.16,2.27.47.67.31,1.13.74,1.37,1.28v1.44Z"/>
    <path class="cls-2" d="M725.97,566.55v-1.98h-5.58v20.12h5.58v-12.46c.21-.9.66-1.6,1.35-2.09.69-.5,1.51-.74,2.47-.74,1.11,0,2.04.22,2.79.67v-5.58c-.42-.24-1.12-.36-2.12-.36-2.04,0-3.54.81-4.5,2.43Z"/>
    <rect class="cls-2" x="736.19" y="564.56" width="5.58" height="20.12"/>
    <path class="cls-2" d="M738.98,555.56c-.9,0-1.68.31-2.34.92-.66.62-.99,1.37-.99,2.27s.32,1.7.97,2.29c.64.6,1.43.9,2.36.9s1.67-.3,2.32-.9c.65-.6.97-1.36.97-2.29s-.32-1.66-.97-2.27c-.64-.61-1.42-.92-2.32-.92Z"/>
    <path class="cls-2" d="M757.61,564.12c-2.28,0-4.08.77-5.4,2.29v-1.85h-5.58v20.12h5.58v-12.73c.21-.87.65-1.55,1.33-2.05.67-.49,1.45-.74,2.32-.74,1.08,0,1.9.32,2.45.97.55.65.83,1.51.83,2.59v11.97h5.58v-13.14c0-2.25-.62-4.05-1.87-5.4-1.25-1.35-2.99-2.02-5.24-2.02Z"/>
    <path class="cls-2" d="M782.18,566.14c-1.17-1.35-2.82-2.02-4.95-2.02-2.79,0-5.01.98-6.66,2.92-1.65,1.95-2.47,4.32-2.47,7.11s.82,5.21,2.47,7.15c1.65,1.95,3.87,2.92,6.66,2.92,2.16,0,3.81-.69,4.95-2.07v1.17c0,3.27-1.44,4.91-4.32,4.91-2.19,0-3.51-.95-3.96-2.83h-5.4c.3,2.25,1.28,4,2.95,5.26,1.67,1.26,3.8,1.89,6.41,1.89,2.97,0,5.36-.85,7.16-2.54,1.8-1.7,2.7-4.21,2.7-7.54v-17.91h-5.54v1.58ZM782.18,577.44c-.36.6-.88,1.1-1.55,1.51-.67.4-1.42.61-2.23.61-1.47,0-2.62-.5-3.46-1.51-.84-1-1.26-2.3-1.26-3.89s.42-2.88,1.26-3.87c.84-.99,1.99-1.48,3.46-1.48,1.68,0,2.94.69,3.78,2.07v6.57Z"/>
    <path class="cls-2" d="M834,502.81v-151.84c0-13.23-10.77-24-24-24h-85.21v-93.42c0-12.68-10.32-23-23-23h-252c-12.68,0-23,10.32-23,23v93.42h-85.21c-13.23,0-24,10.77-24,24v151.84c0,7.4,3.37,14.03,8.65,18.44-5.28,4.41-8.65,11.03-8.65,18.44v63.32c0,13.23,10.77,24,24,24h85.21v74.55c0,12.68,10.32,23,23,23h121.02v28.69c0,28.99,15.59,55.09,40.9,68.85v23.46c0,2.76,2.24,5,5,5s5-2.24,5-5v-26.5c0-1.9-1.08-3.64-2.79-4.48-23.51-11.62-38.12-35.12-38.12-61.33v-28.69h96.17c-9.03,13.04-13.94,28.6-13.94,44.61,0,18.78,6.74,36.94,18.99,51.14.99,1.15,2.38,1.73,3.79,1.73,1.16,0,2.32-.4,3.26-1.21,2.09-1.8,2.33-4.96.52-7.05-10.68-12.39-16.56-28.23-16.56-44.61s5.88-32.23,16.56-44.61c1.64-1.91,1.61-4.74-.07-6.61l-63.22-70.21c-4.97-5.3-7.7-12.24-7.7-19.52,0-.4.03-.8.05-1.21h54.26l43.35,43.35s.07.05.1.08l34.29,34.29c1.95,1.95,5.12,1.95,7.07,0,1.95-1.95,1.95-5.12,0-7.07l-32.92-32.92v-37.72h58.09c16.94,23.71,26.24,52.59,26.24,81.75v133.24c0,2.76,2.24,5,5,5s5-2.24,5-5v-133.24c0-28.89-8.52-57.52-24.15-81.75h15.03c13.23,0,24-10.77,24-24v-63.32c0-7.4-3.37-14.03-8.65-18.44,5.28-4.41,8.65-11.03,8.65-18.44ZM436.79,233.55c0-7.17,5.83-13,13-13h252c7.17,0,13,5.83,13,13v93.42h-278v-93.42ZM329.58,350.97c0-6.62,5.38-12,12-12h468.42c6.62,0,12,5.38,12,12v151.84c0,6.62-5.38,12-12,12h-468.42c-6.62,0-12-5.38-12-12v-151.84ZM449.79,714.55c-7.17,0-13-5.83-13-13v-74.55h171.83c-.01.4-.03.81-.03,1.21,0,9.83,3.7,19.19,10.34,26.28l54.08,60.06h-223.22ZM714.79,654.72l-27.72-27.72h27.72v27.72ZM822,603c0,6.62-5.38,12-12,12h-468.42c-6.62,0-12-5.38-12-12v-63.32c0-6.62,5.38-12,12-12h468.42c6.62,0,12,5.38,12,12v63.32Z"/>
    <path class="cls-2" d="M576.69,240c-.17,0-.34,0-.52,0s-.34,0-.52,0c-23.54.18-36.15,27.85-21.11,45.96l21.63,26.04,21.63-26.04c15.04-18.11,2.43-45.78-21.11-45.96ZM576.17,280.55c-7.46,0-13.5-6.04-13.5-13.5s6.04-13.5,13.5-13.5,13.5,6.04,13.5,13.5-6.04,13.5-13.5,13.5Z"/>
    <path class="cls-2" d="M784.27,489.99h-210.41c-.83,0-1.5.67-1.5,1.5s.67,1.5,1.5,1.5h210.41c.83,0,1.5-.67,1.5-1.5s-.67-1.5-1.5-1.5Z"/>
  </g>
</svg>