<?xml version="1.0" encoding="UTF-8"?>
<svg id="OUTLINES" xmlns="http://www.w3.org/2000/svg" viewBox="0 0 1152 1008">
  <defs>
    <style>
      .cls-1 {
        fill: #fff;
      }

      .cls-2 {
        fill: #000f7d;
      }
    </style>
  </defs>
  <rect class="cls-1" x="254.82" y="326.82" width="660.36" height="381.36" rx="23.14" ry="23.14"/>
  <g>
    <path class="cls-2" d="M883.04,318H268.96c-12.66,0-22.96,10.3-22.96,22.96v335.08c0,12.66,10.3,22.96,22.96,22.96h614.08c12.66,0,22.96-10.3,22.96-22.96v-335.08c0-12.66-10.3-22.96-22.96-22.96ZM894,676.04c0,6.04-4.92,10.96-10.96,10.96H268.96c-6.04,0-10.96-4.92-10.96-10.96v-335.08c0-6.04,4.92-10.96,10.96-10.96h614.08c6.04,0,10.96,4.92,10.96,10.96v335.08Z"/>
    <path class="cls-2" d="M391.56,420.44h10.35l2.48,6.66h5.85l-10.58-27.63h-5.71l-10.58,27.63h5.76l2.43-6.66ZM396.74,406.4l3.38,9.18h-6.75l3.38-9.18Z"/>
    <path class="cls-2" d="M421.13,427.55c2.49,0,4.51-.66,6.05-1.98,1.54-1.32,2.47-3.07,2.77-5.26h-5.49c-.15.78-.52,1.39-1.1,1.82-.58.44-1.33.65-2.23.65-1.26,0-2.27-.52-3.01-1.57-.75-1.05-1.12-2.43-1.12-4.14s.38-3.13,1.12-4.18c.75-1.05,1.75-1.58,3.01-1.58.9,0,1.64.22,2.23.65.58.44.95,1.04,1.1,1.82h5.49c-.3-2.19-1.23-3.94-2.79-5.26-1.56-1.32-3.57-1.98-6.03-1.98-2.85,0-5.17.98-6.97,2.93s-2.7,4.49-2.7,7.6.9,5.61,2.7,7.56,4.12,2.92,6.97,2.92Z"/>
    <path class="cls-2" d="M441.83,427.55c2.49,0,4.51-.66,6.05-1.98,1.54-1.32,2.47-3.07,2.77-5.26h-5.49c-.15.78-.52,1.39-1.1,1.82-.58.44-1.33.65-2.23.65-1.26,0-2.27-.52-3.01-1.57-.75-1.05-1.12-2.43-1.12-4.14s.38-3.13,1.12-4.18c.75-1.05,1.75-1.58,3.01-1.58.9,0,1.64.22,2.23.65.58.44.95,1.04,1.1,1.82h5.49c-.3-2.19-1.23-3.94-2.79-5.26-1.56-1.32-3.57-1.98-6.03-1.98-2.85,0-5.17.98-6.97,2.93s-2.7,4.49-2.7,7.6.9,5.61,2.7,7.56,4.12,2.92,6.97,2.92Z"/>
    <path class="cls-2" d="M462.62,427.55c2.49,0,4.51-.62,6.05-1.87,1.54-1.24,2.5-2.96,2.86-5.15h-5.17c-.45,1.68-1.7,2.52-3.74,2.52-1.26,0-2.28-.43-3.06-1.28-.78-.86-1.21-2.03-1.3-3.53h13.41v-1.71c0-3.03-.8-5.45-2.41-7.27-1.61-1.81-3.85-2.72-6.73-2.72s-5.14,1-6.95,2.99c-1.82,2-2.72,4.51-2.72,7.54s.9,5.65,2.7,7.58c1.8,1.93,4.15,2.9,7.06,2.9ZM462.57,411.08c1.11,0,1.98.35,2.61,1.06.63.71.96,1.61.99,2.72h-7.79c.51-2.52,1.9-3.78,4.18-3.78Z"/>
    <path class="cls-2" d="M485.79,415.17l-4.14-.95c-1.2-.3-1.8-.82-1.8-1.58,0-.6.26-1.06.79-1.39.52-.33,1.15-.5,1.87-.5,1.68,0,2.73.66,3.15,1.98h5.31c-.36-1.95-1.25-3.47-2.68-4.57-1.42-1.09-3.38-1.64-5.87-1.64-2.28,0-4.18.61-5.71,1.82s-2.29,2.78-2.29,4.7c0,2.97,1.74,4.86,5.22,5.67l4.05.9c.72.18,1.24.4,1.55.65s.47.61.47,1.06c0,1.32-.95,1.98-2.83,1.98s-2.92-.73-3.38-2.21h-5.54c.3,2.04,1.24,3.62,2.83,4.75,1.59,1.12,3.63,1.69,6.12,1.69s4.37-.58,5.92-1.75,2.32-2.76,2.32-4.77c0-3.03-1.79-4.98-5.36-5.85Z"/>
    <path class="cls-2" d="M502.53,423.32c-1.8,0-2.92-.73-3.38-2.21h-5.54c.3,2.04,1.24,3.62,2.83,4.75,1.59,1.12,3.63,1.69,6.12,1.69s4.37-.58,5.92-1.75,2.32-2.76,2.32-4.77c0-3.03-1.79-4.98-5.36-5.85l-4.14-.95c-1.2-.3-1.8-.82-1.8-1.58,0-.6.26-1.06.79-1.39.52-.33,1.15-.5,1.87-.5,1.68,0,2.73.66,3.15,1.98h5.31c-.36-1.95-1.25-3.47-2.68-4.57-1.42-1.09-3.38-1.64-5.87-1.64-2.28,0-4.18.61-5.71,1.82s-2.29,2.78-2.29,4.7c0,2.97,1.74,4.86,5.22,5.67l4.05.9c.72.18,1.24.4,1.55.65s.47.61.47,1.06c0,1.32-.95,1.98-2.83,1.98Z"/>
    <polygon class="cls-2" points="528.9 427.1 534.52 427.1 534.52 399.47 530.88 399.47 522.46 403.61 522.46 409.23 528.9 406.04 528.9 427.1"/>
    <path class="cls-2" d="M549.01,427.55c3,0,5.38-.91,7.13-2.72,1.75-1.81,2.63-4.07,2.63-6.77,0-2.55-.83-4.7-2.47-6.46-1.65-1.75-3.83-2.63-6.53-2.63-1.32,0-2.5.27-3.55.81-1.05.54-1.8,1.25-2.25,2.12v-.41c0-2.04.5-3.84,1.49-5.4.99-1.56,2.28-2.34,3.87-2.34,1.86,0,3.07.9,3.64,2.7h5.58c-.51-2.37-1.55-4.2-3.11-5.49s-3.62-1.94-6.17-1.94c-3.24,0-5.81,1.38-7.72,4.14-1.91,2.76-2.86,6.33-2.86,10.71,0,3.54.64,6.44,1.93,8.69,1.83,3.33,4.62,5,8.37,5ZM545.73,414.72c.84-.87,1.95-1.3,3.33-1.3s2.44.43,3.29,1.3c.84.87,1.26,2.03,1.26,3.46s-.43,2.5-1.28,3.35-1.94,1.28-3.26,1.28-2.49-.43-3.33-1.28c-.84-.85-1.26-1.97-1.26-3.35s.42-2.59,1.26-3.46Z"/>
    <polygon class="cls-2" points="576.19 397.85 571.02 397.85 559.86 430.88 565.03 430.88 576.19 397.85"/>
    <path class="cls-2" d="M587.85,427.55c3.24,0,5.86-1.32,7.88-3.96,2.01-2.64,3.01-6.08,3.01-10.31s-1-7.66-3.01-10.3c-2.01-2.64-4.63-3.96-7.88-3.96s-5.87,1.32-7.88,3.96c-2.01,2.64-3.01,6.08-3.01,10.3s1,7.67,3.01,10.31c2.01,2.64,4.63,3.96,7.88,3.96ZM583.89,406.67c.87-1.68,2.19-2.52,3.96-2.52s3.09.84,3.96,2.52,1.3,3.88,1.3,6.61-.43,4.94-1.3,6.62c-.87,1.68-2.19,2.52-3.96,2.52s-3.09-.84-3.96-2.52c-.87-1.68-1.3-3.88-1.3-6.62s.43-4.93,1.3-6.61Z"/>
    <path class="cls-2" d="M611.97,427.55c3,0,5.38-.91,7.13-2.72,1.75-1.81,2.63-4.07,2.63-6.77,0-2.55-.83-4.7-2.47-6.46-1.65-1.75-3.83-2.63-6.53-2.63-1.32,0-2.5.27-3.55.81-1.05.54-1.8,1.25-2.25,2.12v-.41c0-2.04.5-3.84,1.49-5.4.99-1.56,2.28-2.34,3.87-2.34,1.86,0,3.07.9,3.64,2.7h5.58c-.51-2.37-1.55-4.2-3.11-5.49s-3.62-1.94-6.17-1.94c-3.24,0-5.81,1.38-7.72,4.14-1.91,2.76-2.86,6.33-2.86,10.71,0,3.54.64,6.44,1.93,8.69,1.83,3.33,4.62,5,8.37,5ZM608.68,414.72c.84-.87,1.95-1.3,3.33-1.3s2.44.43,3.29,1.3c.84.87,1.26,2.03,1.26,3.46s-.43,2.5-1.28,3.35-1.94,1.28-3.26,1.28-2.49-.43-3.33-1.28c-.84-.85-1.26-1.97-1.26-3.35s.42-2.59,1.26-3.46Z"/>
    <path class="cls-2" d="M627.45,420.3c-.99,0-1.82.32-2.5.97s-1.01,1.46-1.01,2.45c0,.87.25,1.59.77,2.16.51.57,1.15.93,1.93,1.08l-3.29,5.04h3.6l2.56-3.83c.96-1.44,1.44-2.79,1.44-4.05s-.33-2.14-.99-2.81c-.66-.67-1.5-1.01-2.52-1.01Z"/>
    <path class="cls-2" d="M654.04,427.55c3.24,0,5.86-1.32,7.88-3.96,2.01-2.64,3.01-6.08,3.01-10.31s-1-7.66-3.01-10.3c-2.01-2.64-4.63-3.96-7.88-3.96s-5.87,1.32-7.88,3.96c-2.01,2.64-3.01,6.08-3.01,10.3s1,7.67,3.01,10.31c2.01,2.64,4.63,3.96,7.88,3.96ZM650.08,406.67c.87-1.68,2.19-2.52,3.96-2.52s3.09.84,3.96,2.52,1.3,3.88,1.3,6.61-.43,4.94-1.3,6.62c-.87,1.68-2.19,2.52-3.96,2.52s-3.09-.84-3.96-2.52c-.87-1.68-1.3-3.88-1.3-6.62s.43-4.93,1.3-6.61Z"/>
    <path class="cls-2" d="M676.77,417.6c1.32,0,2.5-.27,3.56-.81,1.05-.54,1.8-1.25,2.25-2.12v.41c0,2.04-.5,3.84-1.49,5.4-.99,1.56-2.28,2.34-3.87,2.34-1.86,0-3.08-.9-3.64-2.7h-5.58c.51,2.37,1.54,4.2,3.1,5.49,1.56,1.29,3.62,1.94,6.17,1.94,3.24,0,5.81-1.38,7.72-4.14,1.91-2.76,2.86-6.33,2.86-10.71,0-3.54-.65-6.43-1.93-8.68-1.83-3.33-4.62-5-8.37-5-3,0-5.38.91-7.13,2.72-1.75,1.82-2.63,4.07-2.63,6.77,0,2.55.83,4.7,2.48,6.46,1.65,1.76,3.83,2.63,6.52,2.63ZM674.22,405.02c.85-.86,1.94-1.28,3.26-1.28s2.49.43,3.33,1.28c.84.85,1.26,1.97,1.26,3.35s-.42,2.59-1.26,3.46c-.84.87-1.95,1.3-3.33,1.3s-2.45-.43-3.29-1.3-1.26-2.03-1.26-3.46.43-2.5,1.28-3.35Z"/>
    <path class="cls-2" d="M694.05,414.59c.99,0,1.82-.34,2.5-1.04.67-.69,1.01-1.54,1.01-2.57s-.34-1.87-1.01-2.54-1.51-1.01-2.5-1.01-1.82.34-2.5,1.01-1.01,1.52-1.01,2.54.34,1.88,1.01,2.57c.67.69,1.51,1.04,2.5,1.04Z"/>
    <path class="cls-2" d="M694.05,427.41c.99,0,1.82-.34,2.5-1.04s1.01-1.54,1.01-2.57-.34-1.87-1.01-2.54c-.67-.68-1.51-1.01-2.5-1.01s-1.82.34-2.5,1.01c-.67.67-1.01,1.52-1.01,2.54s.34,1.88,1.01,2.57,1.51,1.04,2.5,1.04Z"/>
    <path class="cls-2" d="M709.98,422.64c-1.29,0-2.32-.37-3.08-1.1-.76-.73-1.22-1.73-1.37-2.99h-5.58c.21,2.73,1.21,4.91,3.01,6.55,1.8,1.64,4.14,2.45,7.02,2.45s5.11-.87,6.86-2.61c1.75-1.74,2.63-4.02,2.63-6.84s-.82-5-2.45-6.71-3.79-2.56-6.46-2.56c-1.74,0-3.23.42-4.46,1.26v-5.62h11.52v-5h-16.2v15.97h4.5c1.08-1.23,2.4-1.84,3.96-1.84,1.29,0,2.31.42,3.06,1.26.75.84,1.12,1.92,1.12,3.24s-.38,2.45-1.12,3.29-1.74,1.26-2.97,1.26Z"/>
    <polygon class="cls-2" points="733.92 427.1 739.05 427.1 739.05 421.61 743.23 421.61 743.23 416.88 739.05 416.88 739.05 411.17 733.92 411.17 733.92 416.88 727.8 416.88 736.8 399.47 731.17 399.47 721.63 417.47 721.63 421.61 733.92 421.61 733.92 427.1"/>
    <path class="cls-2" d="M748.81,414.59c.99,0,1.82-.34,2.5-1.04.67-.69,1.01-1.54,1.01-2.57s-.34-1.87-1.01-2.54-1.51-1.01-2.5-1.01-1.82.34-2.5,1.01-1.01,1.52-1.01,2.54.34,1.88,1.01,2.57c.67.69,1.51,1.04,2.5,1.04Z"/>
    <path class="cls-2" d="M748.81,427.41c.99,0,1.82-.34,2.5-1.04s1.01-1.54,1.01-2.57-.34-1.87-1.01-2.54c-.67-.68-1.51-1.01-2.5-1.01s-1.82.34-2.5,1.01c-.67.67-1.01,1.52-1.01,2.54s.34,1.88,1.01,2.57,1.51,1.04,2.5,1.04Z"/>
    <path class="cls-2" d="M764.47,422.64c-1.32,0-2.36-.37-3.13-1.1-.76-.73-1.22-1.73-1.37-2.99h-5.67c.15,2.7,1.15,4.88,3.01,6.52,1.86,1.65,4.26,2.48,7.2,2.48s5.17-.79,6.88-2.38,2.57-3.62,2.57-6.08c0-1.32-.33-2.52-.99-3.6-.66-1.08-1.61-1.89-2.83-2.43.99-.48,1.8-1.27,2.43-2.36.63-1.09.95-2.3.95-3.62,0-2.4-.81-4.34-2.43-5.83s-3.81-2.23-6.57-2.23-4.92.82-6.66,2.45c-1.74,1.64-2.75,3.71-3.01,6.23h5.58c.09-1.11.49-2.02,1.19-2.72.7-.71,1.66-1.06,2.86-1.06,1.11,0,1.99.32,2.63.97s.97,1.46.97,2.45c0,1.11-.38,1.96-1.15,2.56-.76.6-1.76.9-2.99.9h-1.58v4.46h1.75c1.29,0,2.34.34,3.15,1.01.81.67,1.21,1.58,1.21,2.72,0,1.08-.38,1.96-1.12,2.63s-1.71,1.01-2.88,1.01Z"/>
    <polygon class="cls-2" points="793.54 411.17 788.41 411.17 788.41 416.88 782.29 416.88 791.29 399.47 785.67 399.47 776.13 417.47 776.13 421.61 788.41 421.61 788.41 427.1 793.54 427.1 793.54 421.61 797.72 421.61 797.72 416.88 793.54 416.88 793.54 411.17"/>
    <path class="cls-2" d="M410.24,517.1l-10.58-27.63h-5.71l-10.58,27.63h5.76l2.43-6.66h10.35l2.48,6.66h5.85ZM393.36,505.58l3.38-9.18,3.38,9.18h-6.75Z"/>
    <path class="cls-2" d="M421.13,517.55c2.49,0,4.51-.66,6.05-1.98,1.54-1.32,2.47-3.07,2.77-5.27h-5.49c-.15.78-.52,1.39-1.1,1.82-.58.44-1.33.65-2.23.65-1.26,0-2.27-.52-3.01-1.57-.75-1.05-1.12-2.43-1.12-4.14s.38-3.13,1.12-4.18c.75-1.05,1.75-1.58,3.01-1.58.9,0,1.64.22,2.23.65.58.44.95,1.04,1.1,1.82h5.49c-.3-2.19-1.23-3.94-2.79-5.26-1.56-1.32-3.57-1.98-6.03-1.98-2.85,0-5.17.97-6.97,2.93-1.8,1.95-2.7,4.48-2.7,7.6s.9,5.61,2.7,7.56c1.8,1.95,4.12,2.93,6.97,2.93Z"/>
    <path class="cls-2" d="M441.83,517.55c2.49,0,4.51-.66,6.05-1.98,1.54-1.32,2.47-3.07,2.77-5.27h-5.49c-.15.78-.52,1.39-1.1,1.82-.58.44-1.33.65-2.23.65-1.26,0-2.27-.52-3.01-1.57-.75-1.05-1.12-2.43-1.12-4.14s.38-3.13,1.12-4.18c.75-1.05,1.75-1.58,3.01-1.58.9,0,1.64.22,2.23.65.58.44.95,1.04,1.1,1.82h5.49c-.3-2.19-1.23-3.94-2.79-5.26-1.56-1.32-3.57-1.98-6.03-1.98-2.85,0-5.17.97-6.97,2.93-1.8,1.95-2.7,4.48-2.7,7.6s.9,5.61,2.7,7.56c1.8,1.95,4.12,2.93,6.97,2.93Z"/>
    <path class="cls-2" d="M462.62,517.55c2.49,0,4.51-.62,6.05-1.87,1.54-1.24,2.5-2.96,2.86-5.15h-5.17c-.45,1.68-1.7,2.52-3.74,2.52-1.26,0-2.28-.43-3.06-1.28-.78-.86-1.21-2.03-1.3-3.53h13.41v-1.71c0-3.03-.8-5.45-2.41-7.27-1.61-1.81-3.85-2.72-6.73-2.72s-5.14,1-6.95,2.99c-1.82,2-2.72,4.51-2.72,7.54s.9,5.65,2.7,7.58c1.8,1.93,4.15,2.9,7.06,2.9ZM462.57,501.08c1.11,0,1.98.35,2.61,1.06.63.71.96,1.61.99,2.72h-7.79c.51-2.52,1.9-3.78,4.18-3.78Z"/>
    <path class="cls-2" d="M485.79,505.17l-4.14-.95c-1.2-.3-1.8-.82-1.8-1.58,0-.6.26-1.06.79-1.39.52-.33,1.15-.49,1.87-.49,1.68,0,2.73.66,3.15,1.98h5.31c-.36-1.95-1.25-3.47-2.68-4.57s-3.38-1.64-5.87-1.64c-2.28,0-4.18.61-5.71,1.82s-2.29,2.78-2.29,4.7c0,2.97,1.74,4.86,5.22,5.67l4.05.9c.72.18,1.24.4,1.55.65.32.25.47.61.47,1.06,0,1.32-.95,1.98-2.83,1.98s-2.92-.73-3.38-2.21h-5.54c.3,2.04,1.24,3.62,2.83,4.75,1.59,1.12,3.63,1.69,6.12,1.69s4.37-.59,5.92-1.76,2.32-2.76,2.32-4.77c0-3.03-1.79-4.98-5.36-5.85Z"/>
    <path class="cls-2" d="M496.46,515.86c1.59,1.12,3.63,1.69,6.12,1.69s4.37-.59,5.92-1.76,2.32-2.76,2.32-4.77c0-3.03-1.79-4.98-5.36-5.85l-4.14-.95c-1.2-.3-1.8-.82-1.8-1.58,0-.6.26-1.06.79-1.39.52-.33,1.15-.49,1.87-.49,1.68,0,2.73.66,3.15,1.98h5.31c-.36-1.95-1.25-3.47-2.68-4.57s-3.38-1.64-5.87-1.64c-2.28,0-4.18.61-5.71,1.82s-2.29,2.78-2.29,4.7c0,2.97,1.74,4.86,5.22,5.67l4.05.9c.72.18,1.24.4,1.55.65.32.25.47.61.47,1.06,0,1.32-.95,1.98-2.83,1.98s-2.92-.73-3.38-2.21h-5.54c.3,2.04,1.24,3.62,2.83,4.75Z"/>
    <polygon class="cls-2" points="528.9 517.1 534.52 517.1 534.52 489.47 530.88 489.47 522.46 493.61 522.46 499.23 528.9 496.04 528.9 517.1"/>
    <path class="cls-2" d="M554.95,515.16c1.71-1.59,2.57-3.62,2.57-6.08,0-1.32-.33-2.52-.99-3.6-.66-1.08-1.61-1.89-2.83-2.43.99-.48,1.8-1.27,2.43-2.36.63-1.09.95-2.3.95-3.62,0-2.4-.81-4.34-2.43-5.83-1.62-1.49-3.81-2.23-6.57-2.23s-4.92.82-6.66,2.45c-1.74,1.63-2.75,3.71-3.01,6.23h5.58c.09-1.11.49-2.02,1.19-2.72.7-.71,1.66-1.06,2.86-1.06,1.11,0,1.99.32,2.63.97.64.64.97,1.46.97,2.45,0,1.11-.38,1.96-1.15,2.56-.76.6-1.76.9-2.99.9h-1.58v4.46h1.75c1.29,0,2.34.34,3.15,1.01.81.68,1.21,1.58,1.21,2.72,0,1.08-.38,1.96-1.12,2.63-.75.67-1.71,1.01-2.88,1.01-1.32,0-2.36-.37-3.13-1.1-.76-.73-1.22-1.73-1.37-2.99h-5.67c.15,2.7,1.15,4.88,3.01,6.52,1.86,1.65,4.26,2.48,7.2,2.48s5.17-.79,6.88-2.38Z"/>
    <polygon class="cls-2" points="563.5 520.88 574.66 487.85 569.49 487.85 558.33 520.88 563.5 520.88"/>
    <path class="cls-2" d="M586.32,489.02c-3.24,0-5.87,1.32-7.88,3.96-2.01,2.64-3.01,6.07-3.01,10.3s1,7.67,3.01,10.3c2.01,2.64,4.63,3.96,7.88,3.96s5.86-1.32,7.88-3.96c2.01-2.64,3.01-6.07,3.01-10.3s-1-7.66-3.01-10.3c-2.01-2.64-4.63-3.96-7.88-3.96ZM590.28,509.9c-.87,1.68-2.19,2.52-3.96,2.52s-3.09-.84-3.96-2.52-1.3-3.88-1.3-6.62.43-4.94,1.3-6.62,2.19-2.52,3.96-2.52,3.09.84,3.96,2.52,1.3,3.88,1.3,6.62-.43,4.94-1.3,6.62Z"/>
    <path class="cls-2" d="M610.44,517.55c3,0,5.38-.91,7.13-2.72s2.63-4.07,2.63-6.77c0-2.55-.83-4.7-2.47-6.46-1.65-1.76-3.83-2.63-6.53-2.63-1.32,0-2.5.27-3.55.81-1.05.54-1.8,1.24-2.25,2.12v-.41c0-2.04.5-3.84,1.49-5.4.99-1.56,2.28-2.34,3.87-2.34,1.86,0,3.07.9,3.64,2.7h5.58c-.51-2.37-1.55-4.2-3.11-5.49-1.56-1.29-3.62-1.94-6.17-1.94-3.24,0-5.81,1.38-7.72,4.14-1.91,2.76-2.86,6.33-2.86,10.71,0,3.54.64,6.44,1.93,8.69,1.83,3.33,4.62,5,8.37,5ZM607.15,504.72c.84-.87,1.95-1.3,3.33-1.3s2.44.44,3.29,1.3c.84.87,1.26,2.03,1.26,3.46s-.43,2.5-1.28,3.35c-.86.86-1.94,1.28-3.26,1.28s-2.49-.43-3.33-1.28-1.26-1.97-1.26-3.35.42-2.59,1.26-3.46Z"/>
    <path class="cls-2" d="M625.92,510.3c-.99,0-1.82.32-2.5.97-.67.64-1.01,1.46-1.01,2.45,0,.87.25,1.59.77,2.16.51.57,1.15.93,1.93,1.08l-3.29,5.04h3.6l2.56-3.83c.96-1.44,1.44-2.79,1.44-4.05s-.33-2.14-.99-2.81c-.66-.68-1.5-1.01-2.52-1.01Z"/>
    <polygon class="cls-2" points="647.38 517.1 653.01 517.1 653.01 489.47 649.36 489.47 640.95 493.61 640.95 499.23 647.38 496.04 647.38 517.1"/>
    <polygon class="cls-2" points="674.07 501.17 668.94 501.17 668.94 506.88 662.82 506.88 671.82 489.47 666.19 489.47 656.65 507.47 656.65 511.61 668.94 511.61 668.94 517.1 674.07 517.1 674.07 511.61 678.25 511.61 678.25 506.88 674.07 506.88 674.07 501.17"/>
    <path class="cls-2" d="M686.33,498.44c-.67-.67-1.51-1.01-2.5-1.01s-1.82.34-2.5,1.01c-.67.68-1.01,1.52-1.01,2.54s.34,1.88,1.01,2.56c.67.69,1.51,1.04,2.5,1.04s1.82-.34,2.5-1.04c.67-.69,1.01-1.54,1.01-2.56s-.34-1.87-1.01-2.54Z"/>
    <path class="cls-2" d="M683.83,510.26c-.99,0-1.82.34-2.5,1.01-.67.67-1.01,1.52-1.01,2.54s.34,1.88,1.01,2.57c.67.69,1.51,1.04,2.5,1.04s1.82-.35,2.5-1.04c.67-.69,1.01-1.54,1.01-2.57s-.34-1.87-1.01-2.54c-.67-.68-1.51-1.01-2.5-1.01Z"/>
    <path class="cls-2" d="M699.49,512.64c-1.32,0-2.36-.37-3.13-1.1-.76-.73-1.22-1.73-1.37-2.99h-5.67c.15,2.7,1.15,4.88,3.01,6.52,1.86,1.65,4.26,2.48,7.2,2.48s5.17-.79,6.88-2.38,2.57-3.62,2.57-6.08c0-1.32-.33-2.52-.99-3.6-.66-1.08-1.61-1.89-2.83-2.43.99-.48,1.8-1.27,2.43-2.36.63-1.09.95-2.3.95-3.62,0-2.4-.81-4.34-2.43-5.83-1.62-1.49-3.81-2.23-6.57-2.23s-4.92.82-6.66,2.45c-1.74,1.63-2.75,3.71-3.01,6.23h5.58c.09-1.11.49-2.02,1.19-2.72.7-.71,1.66-1.06,2.86-1.06,1.11,0,1.99.32,2.63.97.64.64.97,1.46.97,2.45,0,1.11-.38,1.96-1.15,2.56-.76.6-1.76.9-2.99.9h-1.58v4.46h1.75c1.29,0,2.34.34,3.15,1.01.81.68,1.21,1.58,1.21,2.72,0,1.08-.38,1.96-1.12,2.63-.75.67-1.71,1.01-2.88,1.01Z"/>
    <polygon class="cls-2" points="723.03 517.1 723.03 489.47 719.38 489.47 710.97 493.61 710.97 499.23 717.4 496.04 717.4 517.1 723.03 517.1"/>
    <path class="cls-2" d="M730.45,510.26c-.99,0-1.82.34-2.5,1.01-.67.67-1.01,1.52-1.01,2.54s.34,1.88,1.01,2.57c.67.69,1.51,1.04,2.5,1.04s1.82-.35,2.5-1.04c.67-.69,1.01-1.54,1.01-2.57s-.34-1.87-1.01-2.54c-.67-.68-1.51-1.01-2.5-1.01Z"/>
    <path class="cls-2" d="M732.95,498.44c-.67-.67-1.51-1.01-2.5-1.01s-1.82.34-2.5,1.01c-.67.68-1.01,1.52-1.01,2.54s.34,1.88,1.01,2.56c.67.69,1.51,1.04,2.5,1.04s1.82-.34,2.5-1.04c.67-.69,1.01-1.54,1.01-2.56s-.34-1.87-1.01-2.54Z"/>
    <path class="cls-2" d="M745.75,504.14l-8.78,9.22v3.73h19.12v-4.99h-11.12l5.31-5.71c1.29-1.35,2.23-2.36,2.81-3.04.58-.68,1.18-1.59,1.78-2.75.6-1.15.9-2.27.9-3.35,0-2.52-.83-4.52-2.47-6.01-1.65-1.49-3.92-2.23-6.79-2.23-2.67,0-4.87.83-6.59,2.5-1.73,1.66-2.72,3.82-2.99,6.46h5.94c.06-1.14.41-2.06,1.06-2.77.65-.7,1.52-1.06,2.63-1.06s1.93.31,2.57.92c.63.62.94,1.42.94,2.41,0,.66-.21,1.37-.63,2.12-.45.81-1.68,2.32-3.69,4.54Z"/>
    <path class="cls-2" d="M774.8,503.35c.58-.68,1.18-1.59,1.78-2.75.6-1.15.9-2.27.9-3.35,0-2.52-.83-4.52-2.47-6.01-1.65-1.49-3.92-2.23-6.79-2.23-2.67,0-4.87.83-6.59,2.5-1.73,1.66-2.72,3.82-2.99,6.46h5.94c.06-1.14.41-2.06,1.06-2.77.65-.7,1.52-1.06,2.63-1.06s1.93.31,2.57.92c.63.62.94,1.42.94,2.41,0,.66-.21,1.37-.63,2.12-.45.81-1.68,2.32-3.69,4.54l-8.78,9.22v3.73h19.12v-4.99h-11.12l5.31-5.71c1.29-1.35,2.23-2.36,2.81-3.04Z"/>
    <polygon class="cls-2" points="388.39 579.47 382.63 579.47 382.63 607.1 401.26 607.1 401.26 602.01 388.39 602.01 388.39 579.47"/>
    <path class="cls-2" d="M413.63,586.53c-2.91,0-5.28.98-7.11,2.93-1.83,1.95-2.75,4.49-2.75,7.6s.92,5.61,2.75,7.56c1.83,1.95,4.2,2.92,7.11,2.92s5.28-.97,7.11-2.92,2.75-4.47,2.75-7.56-.92-5.65-2.75-7.6-4.2-2.93-7.11-2.93ZM416.8,601.22c-.76,1.06-1.82,1.6-3.17,1.6s-2.41-.53-3.17-1.6c-.76-1.07-1.15-2.45-1.15-4.16s.38-3.14,1.15-4.21,1.82-1.6,3.17-1.6,2.41.53,3.17,1.6c.77,1.06,1.15,2.47,1.15,4.21s-.38,3.1-1.15,4.16Z"/>
    <path class="cls-2" d="M435.63,591.3c.9,0,1.64.22,2.23.65.58.44.95,1.04,1.1,1.82h5.49c-.3-2.19-1.23-3.94-2.79-5.26-1.56-1.32-3.57-1.98-6.03-1.98-2.85,0-5.17.98-6.97,2.93s-2.7,4.49-2.7,7.6.9,5.61,2.7,7.56,4.12,2.92,6.97,2.92c2.49,0,4.51-.66,6.05-1.98,1.54-1.32,2.47-3.07,2.77-5.26h-5.49c-.15.78-.52,1.39-1.1,1.82-.58.44-1.33.65-2.23.65-1.26,0-2.27-.52-3.01-1.57-.75-1.05-1.12-2.43-1.12-4.14s.38-3.13,1.12-4.18c.75-1.05,1.75-1.58,3.01-1.58Z"/>
    <path class="cls-2" d="M455.93,586.53c-2.25,0-4.15.61-5.69,1.82-1.55,1.21-2.47,2.75-2.77,4.61h5.31c.48-1.26,1.47-1.89,2.97-1.89,1.08,0,1.9.29,2.45.88.55.58.83,1.33.83,2.23v1.49c-.42-.3-1.08-.57-1.98-.81-.9-.24-1.77-.36-2.61-.36-2.22,0-4.07.6-5.56,1.8s-2.23,2.75-2.23,4.63c0,2.01.71,3.6,2.14,4.77,1.42,1.17,3.2,1.75,5.33,1.75,1.05,0,2.04-.15,2.97-.45.93-.3,1.58-.63,1.93-.99v1.08h5.36v-12.83c0-2.43-.74-4.33-2.23-5.69-1.49-1.36-3.56-2.05-6.23-2.05ZM459.04,601.61c-.24.54-.7.97-1.37,1.28-.67.31-1.43.47-2.27.47-.99,0-1.83-.21-2.52-.63-.69-.42-1.04-1.04-1.04-1.84s.35-1.42,1.06-1.84,1.54-.63,2.5-.63c.84,0,1.6.16,2.27.47.67.32,1.13.74,1.37,1.28v1.44Z"/>
    <path class="cls-2" d="M475.5,600.3v-8.82h4.41v-4.5h-4.41v-5.44h-5.54v5.44h-3.06v4.5h3.06v9.54c0,2.16.59,3.78,1.76,4.86s2.8,1.62,4.9,1.62c1.62,0,2.82-.21,3.6-.63v-4.95c-.69.45-1.5.67-2.43.67-1.53,0-2.29-.76-2.29-2.29Z"/>
    <path class="cls-2" d="M487.07,577.98c-.9,0-1.68.31-2.34.92-.66.62-.99,1.37-.99,2.27s.32,1.7.97,2.29c.64.6,1.43.9,2.36.9s1.67-.3,2.32-.9c.65-.6.97-1.37.97-2.29s-.32-1.66-.97-2.27c-.65-.61-1.42-.92-2.32-.92Z"/>
    <rect class="cls-2" x="484.28" y="586.98" width="5.58" height="20.12"/>
    <path class="cls-2" d="M503.31,586.53c-2.91,0-5.28.98-7.11,2.93-1.83,1.95-2.75,4.49-2.75,7.6s.92,5.61,2.75,7.56c1.83,1.95,4.2,2.92,7.11,2.92s5.28-.97,7.11-2.92,2.75-4.47,2.75-7.56-.92-5.65-2.75-7.6-4.2-2.93-7.11-2.93ZM506.49,601.22c-.76,1.06-1.82,1.6-3.17,1.6s-2.41-.53-3.17-1.6c-.76-1.07-1.15-2.45-1.15-4.16s.38-3.14,1.15-4.21,1.82-1.6,3.17-1.6,2.41.53,3.17,1.6c.77,1.06,1.15,2.47,1.15,4.21s-.38,3.1-1.15,4.16Z"/>
    <path class="cls-2" d="M527.7,586.53c-2.28,0-4.08.77-5.4,2.3v-1.85h-5.58v20.12h5.58v-12.74c.21-.87.65-1.55,1.33-2.05.67-.5,1.45-.74,2.32-.74,1.08,0,1.9.32,2.45.97.55.65.83,1.51.83,2.59v11.97h5.58v-13.14c0-2.25-.62-4.05-1.87-5.4s-2.99-2.03-5.24-2.03Z"/>
    <path class="cls-2" d="M557.04,586.53c-2.25,0-4.15.61-5.69,1.82-1.55,1.21-2.47,2.75-2.77,4.61h5.31c.48-1.26,1.47-1.89,2.97-1.89,1.08,0,1.9.29,2.45.88.55.58.83,1.33.83,2.23v1.49c-.42-.3-1.08-.57-1.98-.81-.9-.24-1.77-.36-2.61-.36-2.22,0-4.07.6-5.56,1.8s-2.23,2.75-2.23,4.63c0,2.01.71,3.6,2.14,4.77,1.42,1.17,3.2,1.75,5.33,1.75,1.05,0,2.04-.15,2.97-.45.93-.3,1.58-.63,1.93-.99v1.08h5.36v-12.83c0-2.43-.74-4.33-2.23-5.69-1.49-1.36-3.56-2.05-6.23-2.05ZM560.15,601.61c-.24.54-.7.97-1.37,1.28-.67.31-1.43.47-2.27.47-.99,0-1.83-.21-2.52-.63-.69-.42-1.04-1.04-1.04-1.84s.35-1.42,1.06-1.84,1.54-.63,2.5-.63c.84,0,1.6.16,2.27.47.67.32,1.13.74,1.37,1.28v1.44Z"/>
    <path class="cls-2" d="M578.46,591.3c.9,0,1.64.22,2.23.65.58.44.95,1.04,1.1,1.82h5.49c-.3-2.19-1.23-3.94-2.79-5.26-1.56-1.32-3.57-1.98-6.03-1.98-2.85,0-5.17.98-6.97,2.93s-2.7,4.49-2.7,7.6.9,5.61,2.7,7.56,4.12,2.92,6.97,2.92c2.49,0,4.51-.66,6.05-1.98,1.54-1.32,2.47-3.07,2.77-5.26h-5.49c-.15.78-.52,1.39-1.1,1.82-.58.44-1.33.65-2.23.65-1.26,0-2.27-.52-3.01-1.57-.75-1.05-1.12-2.43-1.12-4.14s.38-3.13,1.12-4.18c.75-1.05,1.75-1.58,3.01-1.58Z"/>
    <path class="cls-2" d="M599.16,591.3c.9,0,1.64.22,2.23.65.58.44.95,1.04,1.1,1.82h5.49c-.3-2.19-1.23-3.94-2.79-5.26-1.56-1.32-3.57-1.98-6.03-1.98-2.85,0-5.17.98-6.97,2.93s-2.7,4.49-2.7,7.6.9,5.61,2.7,7.56,4.12,2.92,6.97,2.92c2.49,0,4.51-.66,6.05-1.98,1.54-1.32,2.47-3.07,2.77-5.26h-5.49c-.15.78-.52,1.39-1.1,1.82-.58.44-1.33.65-2.23.65-1.26,0-2.27-.52-3.01-1.57-.75-1.05-1.12-2.43-1.12-4.14s.38-3.13,1.12-4.18c.75-1.05,1.75-1.58,3.01-1.58Z"/>
    <path class="cls-2" d="M619.86,586.53c-2.82,0-5.14,1-6.95,2.99-1.82,2-2.72,4.51-2.72,7.54s.9,5.65,2.7,7.58c1.8,1.93,4.15,2.9,7.06,2.9,2.49,0,4.51-.62,6.05-1.87,1.54-1.24,2.5-2.96,2.86-5.15h-5.17c-.45,1.68-1.7,2.52-3.74,2.52-1.26,0-2.28-.43-3.06-1.28-.78-.86-1.21-2.03-1.3-3.53h13.41v-1.71c0-3.03-.8-5.45-2.41-7.27-1.61-1.81-3.85-2.72-6.73-2.72ZM615.72,594.86c.51-2.52,1.9-3.78,4.18-3.78,1.11,0,1.98.35,2.61,1.06.63.71.96,1.61.99,2.72h-7.79Z"/>
    <path class="cls-2" d="M643.13,595.17l-4.14-.95c-1.2-.3-1.8-.82-1.8-1.58,0-.6.26-1.06.79-1.39.52-.33,1.15-.5,1.87-.5,1.68,0,2.73.66,3.15,1.98h5.31c-.36-1.95-1.25-3.47-2.68-4.57-1.42-1.09-3.38-1.64-5.87-1.64-2.28,0-4.18.61-5.71,1.82s-2.29,2.78-2.29,4.7c0,2.97,1.74,4.86,5.22,5.67l4.05.9c.72.18,1.24.4,1.55.65s.47.61.47,1.06c0,1.32-.95,1.98-2.83,1.98s-2.92-.73-3.38-2.21h-5.54c.3,2.04,1.24,3.62,2.83,4.75,1.59,1.12,3.63,1.69,6.12,1.69s4.37-.58,5.92-1.75,2.32-2.76,2.32-4.77c0-3.03-1.79-4.98-5.36-5.85Z"/>
    <path class="cls-2" d="M662.79,595.17l-4.14-.95c-1.2-.3-1.8-.82-1.8-1.58,0-.6.26-1.06.79-1.39.52-.33,1.15-.5,1.87-.5,1.68,0,2.73.66,3.15,1.98h5.31c-.36-1.95-1.25-3.47-2.68-4.57-1.42-1.09-3.38-1.64-5.87-1.64-2.28,0-4.18.61-5.71,1.82s-2.29,2.78-2.29,4.7c0,2.97,1.74,4.86,5.22,5.67l4.05.9c.72.18,1.24.4,1.55.65s.47.61.47,1.06c0,1.32-.95,1.98-2.83,1.98s-2.92-.73-3.38-2.21h-5.54c.3,2.04,1.24,3.62,2.83,4.75,1.59,1.12,3.63,1.69,6.12,1.69s4.37-.58,5.92-1.75,2.32-2.76,2.32-4.77c0-3.03-1.79-4.98-5.36-5.85Z"/>
    <path class="cls-2" d="M694.29,588.56c-1.17-1.35-2.82-2.03-4.95-2.03-2.79,0-5.01.98-6.66,2.93-1.65,1.95-2.47,4.32-2.47,7.11s.83,5.21,2.47,7.16c1.65,1.95,3.87,2.92,6.66,2.92,2.16,0,3.81-.69,4.95-2.07v1.17c0,3.27-1.44,4.9-4.32,4.9-2.19,0-3.51-.94-3.96-2.83h-5.4c.3,2.25,1.28,4,2.95,5.27,1.67,1.26,3.8,1.89,6.41,1.89,2.97,0,5.36-.85,7.16-2.54,1.8-1.69,2.7-4.21,2.7-7.54v-17.91h-5.54v1.58ZM694.29,599.85c-.36.6-.88,1.1-1.55,1.51-.67.41-1.42.61-2.23.61-1.47,0-2.62-.5-3.46-1.51-.84-1-1.26-2.3-1.26-3.89s.42-2.88,1.26-3.87c.84-.99,2-1.48,3.46-1.48,1.68,0,2.94.69,3.78,2.07v6.57Z"/>
    <path class="cls-2" d="M710.26,588.96v-1.98h-5.58v20.12h5.58v-12.46c.21-.9.66-1.6,1.35-2.09.69-.5,1.51-.74,2.47-.74,1.11,0,2.04.22,2.79.67v-5.58c-.42-.24-1.12-.36-2.12-.36-2.04,0-3.54.81-4.5,2.43Z"/>
    <path class="cls-2" d="M727.91,586.53c-2.25,0-4.15.61-5.69,1.82-1.55,1.21-2.47,2.75-2.77,4.61h5.31c.48-1.26,1.47-1.89,2.97-1.89,1.08,0,1.9.29,2.45.88.55.58.83,1.33.83,2.23v1.49c-.42-.3-1.08-.57-1.98-.81-.9-.24-1.77-.36-2.61-.36-2.22,0-4.07.6-5.56,1.8s-2.23,2.75-2.23,4.63c0,2.01.71,3.6,2.14,4.77,1.42,1.17,3.2,1.75,5.33,1.75,1.05,0,2.04-.15,2.97-.45.93-.3,1.58-.63,1.93-.99v1.08h5.36v-12.83c0-2.43-.74-4.33-2.23-5.69-1.49-1.36-3.56-2.05-6.23-2.05ZM731.01,601.61c-.24.54-.7.97-1.37,1.28-.67.31-1.43.47-2.27.47-.99,0-1.83-.21-2.52-.63-.69-.42-1.04-1.04-1.04-1.84s.35-1.42,1.06-1.84,1.54-.63,2.5-.63c.84,0,1.6.16,2.27.47.67.32,1.13.74,1.37,1.28v1.44Z"/>
    <path class="cls-2" d="M751.89,586.53c-2.28,0-4.08.77-5.4,2.3v-1.85h-5.58v20.12h5.58v-12.74c.21-.87.65-1.55,1.33-2.05.67-.5,1.45-.74,2.32-.74,1.08,0,1.9.32,2.45.97.55.65.83,1.51.83,2.59v11.97h5.58v-13.14c0-2.25-.62-4.05-1.87-5.4s-2.99-2.03-5.24-2.03Z"/>
    <path class="cls-2" d="M770.38,600.3v-8.82h4.41v-4.5h-4.41v-5.44h-5.54v5.44h-3.06v4.5h3.06v9.54c0,2.16.59,3.78,1.76,4.86s2.8,1.62,4.9,1.62c1.62,0,2.82-.21,3.6-.63v-4.95c-.69.45-1.5.67-2.43.67-1.53,0-2.29-.76-2.29-2.29Z"/>
    <path class="cls-2" d="M787.39,586.53c-2.82,0-5.14,1-6.95,2.99-1.82,2-2.72,4.51-2.72,7.54s.9,5.65,2.7,7.58c1.8,1.93,4.15,2.9,7.06,2.9,2.49,0,4.51-.62,6.05-1.87,1.54-1.24,2.5-2.96,2.86-5.15h-5.17c-.45,1.68-1.7,2.52-3.74,2.52-1.26,0-2.28-.43-3.06-1.28-.78-.86-1.21-2.03-1.3-3.53h13.41v-1.71c0-3.03-.8-5.45-2.41-7.27-1.61-1.81-3.85-2.72-6.73-2.72ZM783.25,594.86c.51-2.52,1.9-3.78,4.18-3.78,1.11,0,1.98.35,2.61,1.06.63.71.96,1.61.99,2.72h-7.79Z"/>
    <path class="cls-2" d="M813.18,588.65c-.48-.57-1.19-1.06-2.11-1.48-.93-.42-1.91-.63-2.93-.63-2.82,0-5.05,1.01-6.68,3.02s-2.45,4.52-2.45,7.51.82,5.5,2.45,7.49c1.63,2,3.86,2.99,6.68,2.99,1.02,0,2-.21,2.93-.63.93-.42,1.63-.92,2.11-1.49v1.67h5.62v-29.25h-5.62v10.8ZM813.18,600.35c-.33.69-.83,1.25-1.51,1.69-.68.44-1.43.65-2.27.65-1.47,0-2.64-.52-3.51-1.58-.87-1.05-1.3-2.4-1.3-4.05s.43-3.01,1.3-4.07c.87-1.06,2.04-1.6,3.51-1.6.81,0,1.56.22,2.25.65.69.44,1.2,1,1.53,1.69v6.62Z"/>
    <path class="cls-2" d="M353.81,414c0-7.72-6.28-14-14-14s-14,6.28-14,14c0,5.96,3.75,11.04,9,13.06v63.88c-5.25,2.02-9,7.1-9,13.06s3.75,11.04,9,13.06v63.88c-5.25,2.02-9,7.1-9,13.06,0,7.72,6.28,14,14,14s14-6.28,14-14c0-5.96-3.75-11.04-9-13.06v-63.88c5.25-2.02,9-7.1,9-13.06s-3.75-11.04-9-13.06v-63.88c5.25-2.02,9-7.1,9-13.06ZM339.81,410c2.21,0,4,1.79,4,4s-1.79,4-4,4-4-1.79-4-4,1.79-4,4-4ZM339.81,508c-2.21,0-4-1.79-4-4s1.79-4,4-4,4,1.79,4,4-1.79,4-4,4ZM339.81,598c-2.21,0-4-1.79-4-4s1.79-4,4-4,4,1.79,4,4-1.79,4-4,4Z"/>
  </g>
</svg>