<?xml version="1.0" encoding="UTF-8"?>
<svg id="OUTLINES" xmlns="http://www.w3.org/2000/svg" version="1.1" viewBox="0 0 1152 1008">
  <!-- Generator: Adobe Illustrator 29.7.1, SVG Export Plug-In . SVG Version: 2.1.1 Build 8)  -->
  <defs>
    <style>
      .st0 {
        fill: #fff;
      }

      .st1 {
        fill: #000f7d;
      }
    </style>
  </defs>
  <path class="st1" d="M815,334.3h-468c-12.7,0-23-10.3-23-23v-63.3c0-12.7,10.3-23,23-23h468c12.7,0,23,10.3,23,23v63.3c0,12.7-10.3,23-23,23ZM347,235c-7.2,0-13,5.8-13,13v63.3c0,7.2,5.8,13,13,13h468c7.2,0,13-5.8,13-13v-63.3c0-7.2-5.8-13-13-13h-468Z"/>
  <rect class="st1" x="401" y="419.3" width="9" height="144"/>
  <rect class="st1" x="419" y="392.3" width="9" height="198"/>
  <rect class="st1" x="437" y="401.3" width="9" height="180"/>
  <rect class="st1" x="455" y="410.3" width="9" height="162"/>
  <rect class="st1" x="473" y="455.3" width="9" height="67.5"/>
  <rect class="st1" x="491" y="392.3" width="9" height="198"/>
  <rect class="st1" x="509" y="383.3" width="9" height="216"/>
  <rect class="st1" x="527" y="401.3" width="9" height="180"/>
  <rect class="st1" x="545" y="446.3" width="9" height="90"/>
  <rect class="st1" x="563" y="455.3" width="9" height="72"/>
  <rect class="st1" x="581" y="464.3" width="9" height="54"/>
  <rect class="st1" x="599" y="446.3" width="9" height="90"/>
  <rect class="st1" x="617" y="419.3" width="9" height="135"/>
  <rect class="st1" x="635" y="410.3" width="9" height="162"/>
  <rect class="st1" x="653" y="383.3" width="9" height="216"/>
  <rect class="st1" x="671" y="374.3" width="9" height="216"/>
  <rect class="st1" x="689" y="392.3" width="9" height="189"/>
  <rect class="st1" x="707" y="446.3" width="9" height="99"/>
  <rect class="st1" x="725" y="383.3" width="9" height="216"/>
  <rect class="st1" x="743" y="410.3" width="9" height="171"/>
  <rect class="st1" x="761" y="446.3" width="9" height="90"/>
  <rect class="st1" x="779" y="410.3" width="9" height="162"/>
  <rect class="st1" x="797" y="392.3" width="9" height="198"/>
  <rect class="st1" x="815" y="419.3" width="9" height="144"/>
  <rect class="st1" x="833" y="392.3" width="9" height="198"/>
  <rect class="st1" x="851" y="437.3" width="9" height="108"/>
  <rect class="st1" x="869" y="437.3" width="9" height="117"/>
  <rect class="st1" x="887" y="419.3" width="9" height="144"/>
  <path class="st1" d="M257,604.3c-62.3,0-113-50.7-113-113s50.7-113,113-113,113,50.7,113,113-50.7,113-113,113ZM257,388.3c-56.8,0-103,46.2-103,103s46.2,103,103,103,103-46.2,103-103-46.2-103-103-103Z"/>
  <path class="st1" d="M285.3,567.5c-4.2,0-8.4-1.1-12.1-3.4l-9-5.4c-31.7-19-58.4-45.8-77.4-77.4l-5.4-9c-3.6-5.9-4.3-13.1-2.2-19.6,2.8-8.3,8.6-15.1,16.5-19l6-3c7.4-3.7,16.2-2.2,22.1,3.6l14.5,14.5c3.2,3.2,5,7.5,5,12.1s-1.8,8.8-5,12.1l-7.9,7.9c7.9,14.6,19.8,26.5,34.4,34.4l7.9-7.9c6.7-6.7,17.5-6.7,24.2,0l14.5,14.5c5.8,5.8,7.3,14.7,3.6,22.1l-3,6c-3.9,7.9-10.7,13.7-19,16.5-2.4.8-5,1.2-7.5,1.2ZM210.3,438.7c-1.4,0-2.8.3-4.1,1l-6,3c-5.5,2.7-9.6,7.4-11.5,13.2-1.3,3.8-.8,7.9,1.2,11.3l5.4,9c18.2,30.2,43.7,55.8,74,74l9,5.4c3.4,2,7.5,2.5,11.3,1.2,5.8-1.9,10.5-6,13.2-11.5l3-6c1.8-3.5,1.1-7.7-1.7-10.5l-14.5-14.5c-2.8-2.8-7.2-2.8-10,0l-8.5,8.5c-2.8,2.8-7.1,3.4-10.6,1.6-16.9-9-30.6-22.6-39.5-39.5-1.9-3.5-1.2-7.8,1.6-10.6l8.5-8.5c1.3-1.3,2.1-3.1,2.1-5s-.7-3.7-2.1-5l-14.5-14.5c-1.8-1.8-4.1-2.7-6.4-2.7Z"/>
  <path class="st1" d="M260.9,465.5c.9,1.4,2.5,2.2,4.2,2.3,3.2,0,6.4,1.4,8.8,3.8s3.7,5.6,3.8,8.8.9,3.3,2.3,4.2h.1c3.3,2.2,7.6-.2,7.6-4.1,0-5.8-2.3-11.5-6.7-15.9s-10.1-6.6-15.9-6.7-6.3,4.3-4.2,7.6h0Z"/>
  <path class="st1" d="M250.4,449c1.2,1.9,3.5,2.7,5.6,2.1,10.5-3.1,22.4-.5,30.6,7.8,8.3,8.3,10.9,20.1,7.8,30.6s.2,4.4,2.1,5.6h.1c2.8,1.9,6.5.4,7.4-2.8,4.1-13.9.6-29.6-10.3-40.5-11-11-26.6-14.4-40.5-10.3-3.2.9-4.6,4.6-2.8,7.4h0Z"/>
  <path class="st1" d="M240.5,433.4c1.3,2,3.8,2.8,6,1.9,17.7-7.1,38.6-3.5,52.9,10.8,14.3,14.3,17.9,35.2,10.8,52.9-.9,2.2,0,4.7,1.9,6h.1c2.6,1.8,6.1.6,7.2-2.3,8.5-21.3,4.1-46.5-13-63.7-17.2-17.2-42.4-21.5-63.7-13-2.9,1.2-4,4.6-2.4,7.2h0Z"/>
  <circle class="st1" cx="405.5" cy="540.8" r="13.5"/>
  <g>
    <path class="st1" d="M434.3,265.1h5.7l10.6,27.6h-5.8l-2.5-6.7h-10.3l-2.4,6.7h-5.8l10.6-27.6ZM437.1,272.1l-3.4,9.2h6.8l-3.4-9.2Z"/>
    <path class="st1" d="M453.7,292.8v-20.1h5.6v1.8c1.3-1.5,3.1-2.3,5.4-2.3s4,.7,5.2,2,1.9,3.2,1.9,5.4v13.1h-5.6v-12c0-1.1-.3-1.9-.8-2.6-.6-.6-1.4-1-2.5-1s-1.6.2-2.3.7c-.7.5-1.1,1.2-1.3,2v12.7h-5.6Z"/>
    <path class="st1" d="M494.9,282.7c0,3.1-.9,5.6-2.7,7.6-1.8,2-4.2,2.9-7.1,2.9s-5.3-1-7.1-2.9c-1.8-1.9-2.7-4.5-2.7-7.6s.9-5.7,2.7-7.6c1.8-2,4.2-2.9,7.1-2.9s5.3,1,7.1,2.9,2.7,4.5,2.7,7.6ZM489.4,282.7c0-1.7-.4-3.1-1.1-4.2-.8-1.1-1.8-1.6-3.2-1.6s-2.4.5-3.2,1.6c-.8,1.1-1.1,2.5-1.1,4.2s.4,3.1,1.1,4.2,1.8,1.6,3.2,1.6,2.4-.5,3.2-1.6c.8-1.1,1.1-2.5,1.1-4.2Z"/>
    <path class="st1" d="M514.5,274.8c1.6-1.7,3.6-2.6,6.1-2.6s3.7.7,4.9,2,1.8,3.1,1.8,5.4v13.1h-5.6v-12c0-1.1-.2-2-.7-2.6-.5-.6-1.2-1-2.1-1s-1.4.2-2,.7c-.6.5-.9,1.1-1.1,1.9v13h-5.6v-12c0-2.4-.9-3.6-2.8-3.6s-1.4.2-2,.7-1,1.1-1.1,1.9v13h-5.6v-20.1h5.6v1.7c1.1-1.4,2.8-2.1,5.1-2.1s4.1.9,5.4,2.6Z"/>
    <path class="st1" d="M548.4,292.8h-5.4v-1.1c-.4.4-1,.7-1.9,1-.9.3-1.9.5-3,.5-2.1,0-3.9-.6-5.3-1.8s-2.1-2.8-2.1-4.8.7-3.4,2.2-4.6c1.5-1.2,3.3-1.8,5.6-1.8s1.7.1,2.6.4c.9.2,1.6.5,2,.8v-1.5c0-.9-.3-1.6-.8-2.2-.6-.6-1.4-.9-2.5-.9s-2.5.6-3,1.9h-5.3c.3-1.9,1.2-3.4,2.8-4.6,1.5-1.2,3.4-1.8,5.7-1.8s4.7.7,6.2,2c1.5,1.4,2.2,3.3,2.2,5.7v12.8ZM543,287.3v-1.4c-.2-.5-.7-1-1.4-1.3-.7-.3-1.4-.5-2.3-.5s-1.8.2-2.5.6c-.7.4-1.1,1-1.1,1.8s.3,1.4,1,1.8c.7.4,1.5.6,2.5.6s1.6-.2,2.3-.5c.7-.3,1.1-.7,1.4-1.3Z"/>
    <path class="st1" d="M558.5,263.5v29.2h-5.6v-29.2h5.6Z"/>
    <path class="st1" d="M569.4,266.8c0,.9-.3,1.7-1,2.3-.6.6-1.4.9-2.3.9s-1.7-.3-2.4-.9c-.6-.6-1-1.4-1-2.3s.3-1.7,1-2.3c.7-.6,1.4-.9,2.3-.9s1.7.3,2.3.9,1,1.4,1,2.3ZM568.9,272.6v20.1h-5.6v-20.1h5.6Z"/>
    <path class="st1" d="M586,286.2h5.2c-.4,2.2-1.3,3.9-2.9,5.2-1.5,1.2-3.6,1.9-6.1,1.9s-5.3-1-7.1-2.9c-1.8-1.9-2.7-4.5-2.7-7.6s.9-5.5,2.7-7.5c1.8-2,4.1-3,7-3s5.1.9,6.7,2.7c1.6,1.8,2.4,4.2,2.4,7.3v1.7h-13.4c0,1.5.5,2.7,1.3,3.5.8.9,1.8,1.3,3.1,1.3,2,0,3.3-.8,3.7-2.5ZM582.3,276.7c-2.3,0-3.7,1.3-4.2,3.8h7.8c0-1.1-.4-2-1-2.7s-1.5-1.1-2.6-1.1Z"/>
    <path class="st1" d="M593.6,286.8h5.5c.5,1.5,1.6,2.2,3.4,2.2s2.8-.7,2.8-2-.2-.8-.5-1.1-.8-.5-1.6-.7l-4-.9c-3.5-.8-5.2-2.7-5.2-5.7s.8-3.5,2.3-4.7c1.5-1.2,3.4-1.8,5.7-1.8s4.4.5,5.9,1.6c1.4,1.1,2.3,2.6,2.7,4.6h-5.3c-.4-1.3-1.5-2-3.2-2s-1.3.2-1.9.5c-.5.3-.8.8-.8,1.4s.6,1.3,1.8,1.6l4.1.9c3.6.9,5.4,2.8,5.4,5.8s-.8,3.6-2.3,4.8c-1.5,1.2-3.5,1.8-5.9,1.8s-4.5-.6-6.1-1.7c-1.6-1.1-2.5-2.7-2.8-4.7Z"/>
    <path class="st1" d="M637.1,292.8v-1.7c-.5.6-1.2,1.1-2.1,1.5-.9.4-1.9.6-2.9.6-2.8,0-5-1-6.7-3s-2.5-4.5-2.5-7.5.8-5.5,2.5-7.5,3.9-3,6.7-3,2,.2,2.9.6c.9.4,1.6.9,2.1,1.5v-10.8h5.6v29.2h-5.6ZM637.1,286v-6.6c-.3-.7-.8-1.3-1.5-1.7-.7-.4-1.4-.7-2.2-.7-1.5,0-2.6.5-3.5,1.6-.9,1.1-1.3,2.4-1.3,4.1s.4,3,1.3,4c.9,1.1,2,1.6,3.5,1.6s1.6-.2,2.3-.7c.7-.4,1.2-1,1.5-1.7Z"/>
    <path class="st1" d="M659.7,286.2h5.2c-.4,2.2-1.3,3.9-2.9,5.2-1.5,1.2-3.6,1.9-6.1,1.9s-5.3-1-7.1-2.9c-1.8-1.9-2.7-4.5-2.7-7.6s.9-5.5,2.7-7.5c1.8-2,4.1-3,7-3s5.1.9,6.7,2.7c1.6,1.8,2.4,4.2,2.4,7.3v1.7h-13.4c0,1.5.5,2.7,1.3,3.5.8.9,1.8,1.3,3.1,1.3,2,0,3.3-.8,3.7-2.5ZM656,276.7c-2.3,0-3.7,1.3-4.2,3.8h7.8c0-1.1-.4-2-1-2.7s-1.5-1.1-2.6-1.1Z"/>
    <path class="st1" d="M669.8,286.7v-9.5h-3.1v-4.5h3.1v-5.4h5.5v5.4h4.4v4.5h-4.4v8.8c0,1.5.8,2.3,2.3,2.3s1.7-.2,2.4-.7v4.9c-.8.4-2,.6-3.6.6s-3.7-.5-4.9-1.6-1.8-2.7-1.8-4.9Z"/>
    <path class="st1" d="M696.2,286.2h5.2c-.4,2.2-1.3,3.9-2.9,5.2-1.5,1.2-3.6,1.9-6.1,1.9s-5.3-1-7.1-2.9c-1.8-1.9-2.7-4.5-2.7-7.6s.9-5.5,2.7-7.5c1.8-2,4.1-3,7-3s5.1.9,6.7,2.7c1.6,1.8,2.4,4.2,2.4,7.3v1.7h-13.4c0,1.5.5,2.7,1.3,3.5.8.9,1.8,1.3,3.1,1.3,2,0,3.3-.8,3.7-2.5ZM692.4,276.7c-2.3,0-3.7,1.3-4.2,3.8h7.8c0-1.1-.4-2-1-2.7s-1.5-1.1-2.6-1.1Z"/>
    <path class="st1" d="M704,282.7c0-3.1.9-5.7,2.7-7.6s4.1-2.9,7-2.9,4.5.7,6,2c1.6,1.3,2.5,3.1,2.8,5.3h-5.5c-.2-.8-.5-1.4-1.1-1.8-.6-.4-1.3-.7-2.2-.7s-2.3.5-3,1.6c-.8,1.1-1.1,2.4-1.1,4.2s.4,3.1,1.1,4.1c.7,1.1,1.8,1.6,3,1.6s1.6-.2,2.2-.7c.6-.4,1-1,1.1-1.8h5.5c-.3,2.2-1.2,3.9-2.8,5.3-1.5,1.3-3.6,2-6.1,2s-5.2-1-7-2.9c-1.8-1.9-2.7-4.5-2.7-7.6Z"/>
    <path class="st1" d="M727.3,286.7v-9.5h-3.1v-4.5h3.1v-5.4h5.5v5.4h4.4v4.5h-4.4v8.8c0,1.5.8,2.3,2.3,2.3s1.7-.2,2.4-.7v4.9c-.8.4-2,.6-3.6.6s-3.7-.5-4.9-1.6-1.8-2.7-1.8-4.9Z"/>
    <path class="st1" d="M753.7,286.2h5.2c-.4,2.2-1.3,3.9-2.9,5.2-1.5,1.2-3.6,1.9-6.1,1.9s-5.3-1-7.1-2.9c-1.8-1.9-2.7-4.5-2.7-7.6s.9-5.5,2.7-7.5c1.8-2,4.1-3,7-3s5.1.9,6.7,2.7c1.6,1.8,2.4,4.2,2.4,7.3v1.7h-13.4c0,1.5.5,2.7,1.3,3.5.8.9,1.8,1.3,3.1,1.3,2,0,3.3-.8,3.7-2.5ZM749.9,276.7c-2.3,0-3.7,1.3-4.2,3.8h7.8c0-1.1-.4-2-1-2.7s-1.5-1.1-2.6-1.1Z"/>
    <path class="st1" d="M775.6,292.8v-1.7c-.5.6-1.2,1.1-2.1,1.5-.9.4-1.9.6-2.9.6-2.8,0-5-1-6.7-3s-2.5-4.5-2.5-7.5.8-5.5,2.5-7.5,3.9-3,6.7-3,2,.2,2.9.6c.9.4,1.6.9,2.1,1.5v-10.8h5.6v29.2h-5.6ZM775.6,286v-6.6c-.3-.7-.8-1.3-1.5-1.7-.7-.4-1.4-.7-2.2-.7-1.5,0-2.6.5-3.5,1.6-.9,1.1-1.3,2.4-1.3,4.1s.4,3,1.3,4c.9,1.1,2,1.6,3.5,1.6s1.6-.2,2.3-.7c.7-.4,1.2-1,1.5-1.7Z"/>
  </g>
  <circle class="st1" cx="391.9" cy="279.7" r="13.5"/>
  <circle class="st1" cx="531.5" cy="486.8" r="13.5"/>
  <circle class="st1" cx="765.5" cy="513.8" r="13.5"/>
  <circle class="st1" cx="801.5" cy="450.8" r="13.5"/>
  <path class="st1" d="M329,676.3h-90c-12.7,0-23-10.3-23-23v-63h10v63c0,7.2,5.8,13,13,13h90v10Z"/>
  <path class="st1" d="M923,676.3h-90v-10h90c7.2,0,13-5.8,13-13v-324c0-7.2-5.8-13-13-13h-90v-10h90c12.7,0,23,10.3,23,23v324c0,12.7-10.3,23-23,23Z"/>
  <path class="st1" d="M226,392.3h-10v-63c0-12.7,10.3-23,23-23h90v10h-90c-7.2,0-13,5.8-13,13v63Z"/>
  <rect class="st0" x="329" y="653.3" width="522" height="162" rx="18" ry="18"/>
  <path class="st1" d="M815,803.3h-468c-13.2,0-24-10.8-24-24v-108.3c0-13.2,10.8-24,24-24h468c13.2,0,24,10.8,24,24v108.3c0,13.2-10.8,24-24,24ZM347,659c-6.6,0-12,5.4-12,12v108.3c0,6.6,5.4,12,12,12h468c6.6,0,12-5.4,12-12v-108.3c0-6.6-5.4-12-12-12h-468Z"/>
  <g>
    <path class="st1" d="M379.2,740.7c-3.9-4.3-5.9-9.9-5.9-16.7s2-12.4,5.9-16.7c3.9-4.3,8.9-6.5,15-6.5s9.4,1.4,12.6,4.1c3.2,2.8,5.3,6.4,6.2,11.1h-9.3c-1.7-4.6-4.9-6.9-9.5-6.9s-6.3,1.4-8.3,4.1c-2,2.8-3.1,6.3-3.1,10.7s1,7.9,3.1,10.7,4.8,4.2,8.3,4.2,7.8-2.3,9.5-6.9h9.3c-.9,4.7-2.9,8.4-6.2,11.1-3.2,2.8-7.4,4.1-12.6,4.1s-11-2.2-15-6.5Z"/>
    <path class="st1" d="M445.7,746.4h-8.7v-1.8c-.6.6-1.6,1.1-3.1,1.6-1.5.5-3.1.7-4.8.7-3.5,0-6.3-.9-8.7-2.8-2.3-1.9-3.5-4.5-3.5-7.7s1.2-5.6,3.6-7.5c2.4-1.9,5.4-2.9,9-2.9s2.8.2,4.2.6c1.5.4,2.5.8,3.2,1.3v-2.4c0-1.5-.5-2.7-1.4-3.6-.9-.9-2.2-1.4-4-1.4s-4,1-4.8,3.1h-8.6c.5-3,2-5.5,4.5-7.5,2.5-2,5.6-3,9.2-3s7.7,1.1,10.1,3.3c2.4,2.2,3.6,5.3,3.6,9.2v20.8ZM437,737.5v-2.3c-.4-.9-1.1-1.6-2.2-2.1-1.1-.5-2.3-.8-3.7-.8s-2.9.3-4.1,1c-1.1.7-1.7,1.7-1.7,3s.6,2.3,1.7,3c1.1.7,2.5,1,4.1,1s2.6-.3,3.7-.8c1.1-.5,1.8-1.2,2.2-2.1Z"/>
    <path class="st1" d="M450.9,736.7h9c.7,2.4,2.6,3.6,5.5,3.6s4.6-1.1,4.6-3.2-.3-1.3-.8-1.7c-.5-.4-1.4-.8-2.5-1.1l-6.6-1.5c-5.6-1.3-8.5-4.4-8.5-9.2s1.2-5.7,3.7-7.6c2.5-2,5.6-3,9.3-3s7.2.9,9.5,2.7c2.3,1.8,3.8,4.2,4.3,7.4h-8.6c-.7-2.1-2.4-3.2-5.1-3.2s-2.2.3-3,.8c-.9.5-1.3,1.3-1.3,2.3s1,2.1,2.9,2.6l6.7,1.5c5.8,1.4,8.7,4.6,8.7,9.5s-1.3,5.8-3.8,7.7c-2.5,1.9-5.7,2.8-9.6,2.8s-7.3-.9-9.9-2.7c-2.6-1.8-4.1-4.4-4.6-7.7Z"/>
    <path class="st1" d="M504.8,735.7h8.4c-.6,3.6-2.1,6.3-4.6,8.4-2.5,2-5.8,3-9.8,3s-8.5-1.6-11.5-4.7-4.4-7.2-4.4-12.3,1.5-9,4.4-12.2c2.9-3.2,6.7-4.9,11.3-4.9s8.3,1.5,10.9,4.4c2.6,2.9,3.9,6.9,3.9,11.8v2.8h-21.8c.1,2.4.9,4.3,2.1,5.7,1.3,1.4,2.9,2.1,5,2.1,3.3,0,5.3-1.4,6.1-4.1ZM498.7,720.4c-3.7,0-6,2-6.8,6.1h12.6c0-1.8-.6-3.3-1.6-4.4-1-1.1-2.4-1.7-4.2-1.7Z"/>
    <path class="st1" d="M544.5,704.4c0,1.5-.5,2.8-1.6,3.7-1,1-2.3,1.5-3.8,1.5s-2.8-.5-3.8-1.5c-1-1-1.6-2.2-1.6-3.7s.5-2.7,1.6-3.7c1.1-1,2.3-1.5,3.8-1.5s2.7.5,3.8,1.5c1,1,1.6,2.2,1.6,3.7ZM543.7,713.8v32.6h-9.1v-32.6h9.1Z"/>
    <path class="st1" d="M549.5,736.7h9c.7,2.4,2.6,3.6,5.5,3.6s4.6-1.1,4.6-3.2-.3-1.3-.8-1.7c-.5-.4-1.4-.8-2.5-1.1l-6.6-1.5c-5.6-1.3-8.5-4.4-8.5-9.2s1.2-5.7,3.7-7.6c2.5-2,5.6-3,9.3-3s7.2.9,9.5,2.7c2.3,1.8,3.8,4.2,4.3,7.4h-8.6c-.7-2.1-2.4-3.2-5.1-3.2s-2.2.3-3,.8c-.9.5-1.3,1.3-1.3,2.3s1,2.1,2.9,2.6l6.7,1.5c5.8,1.4,8.7,4.6,8.7,9.5s-1.3,5.8-3.8,7.7c-2.5,1.9-5.7,2.8-9.6,2.8s-7.3-.9-9.9-2.7c-2.6-1.8-4.1-4.4-4.6-7.7Z"/>
    <path class="st1" d="M627.9,713.8v32.6h-9.1v-3c-2.2,2.5-5.2,3.7-8.8,3.7s-6.4-1.1-8.4-3.3c-2-2.2-3-5.1-3-8.8v-21.3h9.1v19.5c0,1.8.4,3.2,1.3,4.2.9,1,2.2,1.5,3.9,1.5s2.7-.4,3.7-1.2c1.1-.8,1.8-1.9,2.1-3.3v-20.7h9.1Z"/>
    <path class="st1" d="M655.5,713.6v9.1c-1.2-.7-2.7-1.1-4.5-1.1s-2.9.4-4,1.2c-1.1.8-1.8,1.9-2.2,3.4v20.2h-9.1v-32.6h9.1v3.2c1.6-2.6,4-3.9,7.3-3.9s2.7.2,3.4.6Z"/>
    <path class="st1" d="M681.6,744.2v-1.9c-1.9,2.2-4.5,3.4-8,3.4s-8.1-1.6-10.8-4.7c-2.7-3.2-4-7-4-11.6s1.3-8.4,4-11.5c2.7-3.2,6.3-4.7,10.8-4.7s6.1,1.1,8,3.3v-2.6h9v29.1c0,5.4-1.5,9.5-4.4,12.2-2.9,2.7-6.8,4.1-11.6,4.1s-7.7-1-10.4-3.1c-2.7-2-4.3-4.9-4.8-8.5h8.8c.7,3.1,2.9,4.6,6.4,4.6s7-2.7,7-8ZM681.6,734.6v-10.7c-1.4-2.2-3.4-3.4-6.1-3.4s-4.3.8-5.6,2.4c-1.4,1.6-2,3.7-2,6.3s.7,4.7,2,6.3c1.4,1.6,3.2,2.4,5.6,2.4s2.5-.3,3.6-1,1.9-1.5,2.5-2.4Z"/>
    <path class="st1" d="M718.3,735.7h8.4c-.6,3.6-2.1,6.3-4.6,8.4-2.5,2-5.8,3-9.8,3s-8.5-1.6-11.5-4.7-4.4-7.2-4.4-12.3,1.5-9,4.4-12.2c2.9-3.2,6.7-4.9,11.3-4.9s8.3,1.5,10.9,4.4c2.6,2.9,3.9,6.9,3.9,11.8v2.8h-21.8c.1,2.4.9,4.3,2.1,5.7,1.3,1.4,2.9,2.1,5,2.1,3.3,0,5.3-1.4,6.1-4.1ZM712.2,720.4c-3.7,0-6,2-6.8,6.1h12.6c0-1.8-.6-3.3-1.6-4.4-1-1.1-2.4-1.7-4.2-1.7Z"/>
    <path class="st1" d="M732.7,746.4v-32.6h9.1v3c2.1-2.5,5.1-3.7,8.8-3.7s6.5,1.1,8.5,3.3c2,2.2,3,5.1,3,8.8v21.3h-9.1v-19.4c0-1.8-.5-3.2-1.4-4.2-.9-1-2.2-1.6-4-1.6s-2.7.4-3.8,1.2-1.8,1.9-2.2,3.3v20.7h-9.1Z"/>
    <path class="st1" d="M771.5,736.5v-15.5h-5v-7.3h5v-8.8h9v8.8h7.2v7.3h-7.2v14.3c0,2.5,1.2,3.7,3.7,3.7s2.8-.4,3.9-1.1v8c-1.3.7-3.2,1-5.8,1s-6.1-.9-8-2.6c-1.9-1.8-2.8-4.4-2.8-7.9Z"/>
  </g>
</svg>