<?xml version="1.0" encoding="UTF-8"?>
<svg id="OUTLINES" xmlns="http://www.w3.org/2000/svg" version="1.1" viewBox="0 0 1152 1008">
  <!-- Generator: Adobe Illustrator 29.7.1, SVG Export Plug-In . SVG Version: 2.1.1 Build 8)  -->
  <defs>
    <style>
      .st0 {
        fill: #fff;
      }

      .st1 {
        fill: #000f7d;
      }
    </style>
  </defs>
  <g>
    <rect class="st0" x="350.8" y="476.7" width="468.2" height="99.3" rx="18" ry="18"/>
    <path class="st0" d="M801,582h-432.2c-13.2,0-24-10.8-24-24v-63.3c0-13.2,10.8-24,24-24h432.2c13.2,0,24,10.8,24,24v63.3c0,13.2-10.8,24-24,24ZM368.8,482.7c-6.6,0-12,5.4-12,12v63.3c0,6.6,5.4,12,12,12h432.2c6.6,0,12-5.4,12-12v-63.3c0-6.6-5.4-12-12-12h-432.2Z"/>
  </g>
  <g>
    <path class="st1" d="M724.8,369h-10v-135.4c0-7.2-5.8-13-13-13h-252c-7.2,0-13,5.8-13,13v135.4h-10v-135.4c0-12.7,10.3-23,23-23h252c12.7,0,23,10.3,23,23v135.4Z"/>
    <path class="st1" d="M684.2,724.6h-234.4c-12.7,0-23-10.3-23-23l.4-134.6h10s-.4,134.6-.4,134.6c0,7.2,5.8,13,13,13h223.2l-54.1-60.1c-6.6-7.1-10.3-16.5-10.3-26.3,0-21.3,17.3-38.6,38.6-38.6h.5c1.3,0,2.5.5,3.5,1.5l63.7,63.7.2-87.8h10s-.2,99.8-.2,99.8c0,2-1.2,3.8-3.1,4.6-1.9.8-4,.3-5.4-1.1l-70.7-70.7c-15,.8-27,13.3-27,28.6s2.7,14.2,7.7,19.5l61.7,68.5c1.3,1.5,1.7,3.6.9,5.4-.8,1.8-2.6,3-4.6,3Z"/>
  </g>
  <path class="st1" d="M575.8,693.1c-12.7,0-23-10.3-23-23s10.3-23,23-23,23,10.3,23,23-10.3,23-23,23ZM575.8,657.1c-7.2,0-13,5.8-13,13s5.8,13,13,13,13-5.8,13-13-5.8-13-13-13Z"/>
  <path class="st1" d="M792.2,573.3h-432.2c-13.2,0-24-10.8-24-24v-63.3c0-13.2,10.8-24,24-24h432.2c13.2,0,24,10.8,24,24v63.3c0,13.2-10.8,24-24,24ZM360,474c-6.6,0-12,5.4-12,12v63.3c0,6.6,5.4,12,12,12h432.2c6.6,0,12-5.4,12-12v-63.3c0-6.6-5.4-12-12-12h-432.2Z"/>
  <path class="st1" d="M729,473.3h-306c-12.7,0-23-10.3-23-23v-63.3c0-12.7,10.3-23,23-23h306c12.7,0,23,10.3,23,23v63.3c0,12.7-10.3,23-23,23ZM423,374c-7.2,0-13,5.8-13,13v63.3c0,7.2,5.8,13,13,13h306c7.2,0,13-5.8,13-13v-63.3c0-7.2-5.8-13-13-13h-306Z"/>
  <g>
    <path class="st1" d="M385.1,508.4v-5h23.6v5h-8.9v22.6h-5.8v-22.6h-8.9Z"/>
    <path class="st1" d="M422.3,510.8v5.6c-.8-.4-1.7-.7-2.8-.7s-1.8.2-2.5.7c-.7.5-1.1,1.2-1.4,2.1v12.5h-5.6v-20.1h5.6v2c1-1.6,2.5-2.4,4.5-2.4s1.7.1,2.1.4Z"/>
    <path class="st1" d="M434.4,538.4h-5.5l2.9-7.3-7.7-20.2h5.9l4.6,13.4,4.6-13.4h5.6l-10.5,27.5Z"/>
    <path class="st1" d="M458.6,524.9v-9.5h-3.1v-4.5h3.1v-5.4h5.5v5.4h4.4v4.5h-4.4v8.8c0,1.5.8,2.3,2.3,2.3s1.7-.2,2.4-.7v4.9c-.8.4-2,.6-3.6.6s-3.7-.5-4.9-1.6-1.8-2.7-1.8-4.9Z"/>
    <path class="st1" d="M472.9,531v-29.2h5.6v11c1.3-1.5,3.1-2.3,5.4-2.3s4,.7,5.2,2c1.2,1.3,1.9,3.1,1.9,5.4v13.1h-5.6v-12c0-1.1-.3-1.9-.8-2.6-.6-.6-1.4-1-2.5-1s-1.6.2-2.3.7c-.7.5-1.1,1.2-1.3,2v12.7h-5.6Z"/>
    <path class="st1" d="M501.7,505.1c0,.9-.3,1.7-1,2.3-.6.6-1.4.9-2.3.9s-1.7-.3-2.4-.9c-.6-.6-1-1.4-1-2.3s.3-1.7,1-2.3c.7-.6,1.4-.9,2.3-.9s1.7.3,2.3.9,1,1.4,1,2.3ZM501.2,510.9v20.1h-5.6v-20.1h5.6Z"/>
    <path class="st1" d="M504.8,525h5.5c.5,1.5,1.6,2.2,3.4,2.2s2.8-.7,2.8-2-.2-.8-.5-1.1c-.3-.3-.8-.5-1.6-.7l-4-.9c-3.5-.8-5.2-2.7-5.2-5.7s.8-3.5,2.3-4.7,3.4-1.8,5.7-1.8,4.4.5,5.9,1.6c1.4,1.1,2.3,2.6,2.7,4.6h-5.3c-.4-1.3-1.5-2-3.2-2s-1.3.2-1.9.5c-.5.3-.8.8-.8,1.4s.6,1.3,1.8,1.6l4.1.9c3.6.9,5.4,2.8,5.4,5.8s-.8,3.6-2.3,4.8-3.5,1.8-5.9,1.8-4.5-.6-6.1-1.7c-1.6-1.1-2.5-2.7-2.8-4.7Z"/>
    <path class="st1" d="M547.5,524.4h5.2c-.4,2.2-1.3,3.9-2.9,5.2s-3.6,1.9-6.1,1.9-5.3-1-7.1-2.9-2.7-4.5-2.7-7.6.9-5.5,2.7-7.5c1.8-2,4.1-3,7-3s5.1.9,6.7,2.7c1.6,1.8,2.4,4.2,2.4,7.3v1.7h-13.4c0,1.5.5,2.7,1.3,3.5.8.9,1.8,1.3,3.1,1.3,2,0,3.3-.8,3.7-2.5ZM543.7,515c-2.3,0-3.7,1.3-4.2,3.8h7.8c0-1.1-.4-2-1-2.7-.6-.7-1.5-1.1-2.6-1.1Z"/>
    <path class="st1" d="M573,531h-5.4v-1.1c-.4.4-1,.7-1.9,1-.9.3-1.9.5-3,.5-2.1,0-3.9-.6-5.3-1.8s-2.1-2.8-2.1-4.8.7-3.4,2.2-4.6c1.5-1.2,3.3-1.8,5.6-1.8s1.7.1,2.6.4c.9.2,1.6.5,2,.8v-1.5c0-.9-.3-1.6-.8-2.2-.6-.6-1.4-.9-2.5-.9s-2.5.6-3,1.9h-5.3c.3-1.9,1.2-3.4,2.8-4.6,1.5-1.2,3.4-1.8,5.7-1.8s4.7.7,6.2,2c1.5,1.4,2.2,3.3,2.2,5.7v12.8ZM567.6,525.5v-1.4c-.2-.5-.7-1-1.4-1.3s-1.4-.5-2.3-.5-1.8.2-2.5.6-1.1,1-1.1,1.8.3,1.4,1,1.8c.7.4,1.5.6,2.5.6s1.6-.2,2.3-.5,1.1-.7,1.4-1.3Z"/>
    <path class="st1" d="M576.2,525h5.5c.5,1.5,1.6,2.2,3.4,2.2s2.8-.7,2.8-2-.2-.8-.5-1.1c-.3-.3-.8-.5-1.6-.7l-4-.9c-3.5-.8-5.2-2.7-5.2-5.7s.8-3.5,2.3-4.7,3.4-1.8,5.7-1.8,4.4.5,5.9,1.6c1.4,1.1,2.3,2.6,2.7,4.6h-5.3c-.4-1.3-1.5-2-3.2-2s-1.3.2-1.9.5c-.5.3-.8.8-.8,1.4s.6,1.3,1.8,1.6l4.1.9c3.6.9,5.4,2.8,5.4,5.8s-.8,3.6-2.3,4.8-3.5,1.8-5.9,1.8-4.5-.6-6.1-1.7c-1.6-1.1-2.5-2.7-2.8-4.7Z"/>
    <path class="st1" d="M603.2,505.1c0,.9-.3,1.7-1,2.3-.6.6-1.4.9-2.3.9s-1.7-.3-2.4-.9c-.6-.6-1-1.4-1-2.3s.3-1.7,1-2.3c.7-.6,1.4-.9,2.3-.9s1.7.3,2.3.9,1,1.4,1,2.3ZM602.7,510.9v20.1h-5.6v-20.1h5.6Z"/>
    <path class="st1" d="M619.8,524.4h5.2c-.4,2.2-1.3,3.9-2.9,5.2s-3.6,1.9-6.1,1.9-5.3-1-7.1-2.9-2.7-4.5-2.7-7.6.9-5.5,2.7-7.5c1.8-2,4.1-3,7-3s5.1.9,6.7,2.7c1.6,1.8,2.4,4.2,2.4,7.3v1.7h-13.4c0,1.5.5,2.7,1.3,3.5.8.9,1.8,1.3,3.1,1.3,2,0,3.3-.8,3.7-2.5ZM616.1,515c-2.3,0-3.7,1.3-4.2,3.8h7.8c0-1.1-.4-2-1-2.7-.6-.7-1.5-1.1-2.6-1.1Z"/>
    <path class="st1" d="M640.9,510.8v5.6c-.8-.4-1.7-.7-2.8-.7s-1.8.2-2.5.7c-.7.5-1.1,1.2-1.4,2.1v12.5h-5.6v-20.1h5.6v2c1-1.6,2.5-2.4,4.5-2.4s1.7.1,2.1.4Z"/>
    <path class="st1" d="M672.5,521c0,3.1-.9,5.6-2.7,7.6-1.8,2-4.2,2.9-7.1,2.9s-5.3-1-7.1-2.9c-1.8-1.9-2.7-4.5-2.7-7.6s.9-5.7,2.7-7.6c1.8-2,4.2-2.9,7.1-2.9s5.3,1,7.1,2.9,2.7,4.5,2.7,7.6ZM667,521c0-1.7-.4-3.1-1.1-4.2-.8-1.1-1.8-1.6-3.2-1.6s-2.4.5-3.2,1.6c-.8,1.1-1.1,2.5-1.1,4.2s.4,3.1,1.1,4.2c.8,1.1,1.8,1.6,3.2,1.6s2.4-.5,3.2-1.6c.8-1.1,1.1-2.5,1.1-4.2Z"/>
    <path class="st1" d="M681.6,529.3v9.1h-5.6v-27.5h5.6v1.7c.5-.6,1.2-1.1,2.1-1.5.9-.4,1.9-.6,2.9-.6,2.8,0,5.1,1,6.7,3,1.6,2,2.5,4.5,2.5,7.5s-.8,5.5-2.5,7.5c-1.7,2-3.9,3-6.7,3s-2-.2-2.9-.6c-.9-.4-1.6-.9-2.1-1.5ZM681.6,517.6v6.6c.3.7.8,1.3,1.5,1.7.7.4,1.4.7,2.2.7,1.5,0,2.6-.5,3.5-1.6.9-1,1.3-2.4,1.3-4.1s-.4-3-1.3-4.1c-.9-1.1-2-1.6-3.5-1.6s-1.6.2-2.2.7c-.7.4-1.2,1-1.6,1.7Z"/>
    <path class="st1" d="M700.6,524.9v-9.5h-3.1v-4.5h3.1v-5.4h5.5v5.4h4.4v4.5h-4.4v8.8c0,1.5.8,2.3,2.3,2.3s1.7-.2,2.4-.7v4.9c-.8.4-2,.6-3.6.6s-3.7-.5-4.9-1.6-1.8-2.7-1.8-4.9Z"/>
    <path class="st1" d="M721,505.1c0,.9-.3,1.7-1,2.3-.6.6-1.4.9-2.3.9s-1.7-.3-2.4-.9c-.6-.6-1-1.4-1-2.3s.3-1.7,1-2.3c.7-.6,1.4-.9,2.3-.9s1.7.3,2.3.9,1,1.4,1,2.3ZM720.5,510.9v20.1h-5.6v-20.1h5.6Z"/>
    <path class="st1" d="M743.8,521c0,3.1-.9,5.6-2.7,7.6-1.8,2-4.2,2.9-7.1,2.9s-5.3-1-7.1-2.9c-1.8-1.9-2.7-4.5-2.7-7.6s.9-5.7,2.7-7.6c1.8-2,4.2-2.9,7.1-2.9s5.3,1,7.1,2.9,2.7,4.5,2.7,7.6ZM738.3,521c0-1.7-.4-3.1-1.1-4.2-.8-1.1-1.8-1.6-3.2-1.6s-2.4.5-3.2,1.6c-.8,1.1-1.1,2.5-1.1,4.2s.4,3.1,1.1,4.2c.8,1.1,1.8,1.6,3.2,1.6s2.4-.5,3.2-1.6c.8-1.1,1.1-2.5,1.1-4.2Z"/>
    <path class="st1" d="M747.4,531v-20.1h5.6v1.8c1.3-1.5,3.1-2.3,5.4-2.3s4,.7,5.2,2c1.2,1.3,1.9,3.1,1.9,5.4v13.1h-5.6v-12c0-1.1-.3-1.9-.8-2.6-.6-.6-1.4-1-2.5-1s-1.6.2-2.3.7c-.7.5-1.1,1.2-1.3,2v12.7h-5.6Z"/>
  </g>
  <g>
    <path class="st1" d="M460.4,404.4h4.5l4.8,18.6,4.5-18.6h5.7l-7.2,27.6h-5.3l-4.9-18.2-4.9,18.2h-5.3l-7.2-27.6h5.8l4.5,18.6,4.9-18.6Z"/>
    <path class="st1" d="M482.9,432v-29.2h5.6v11c1.3-1.5,3.1-2.3,5.4-2.3s4,.7,5.2,2,1.9,3.1,1.9,5.4v13.1h-5.6v-12c0-1.1-.3-1.9-.8-2.6-.6-.6-1.4-1-2.5-1s-1.6.2-2.3.7c-.7.5-1.1,1.2-1.3,2v12.7h-5.6Z"/>
    <path class="st1" d="M511.7,406.1c0,.9-.3,1.7-1,2.3-.6.6-1.4.9-2.3.9s-1.7-.3-2.4-.9c-.6-.6-1-1.4-1-2.3s.3-1.7,1-2.3c.7-.6,1.4-.9,2.3-.9s1.7.3,2.3.9c.6.6,1,1.4,1,2.3ZM511.2,411.9v20.1h-5.6v-20.1h5.6Z"/>
    <path class="st1" d="M521.6,402.8v29.2h-5.6v-29.2h5.6Z"/>
    <path class="st1" d="M538.7,425.4h5.2c-.4,2.2-1.3,3.9-2.9,5.2-1.5,1.2-3.6,1.9-6.1,1.9s-5.3-1-7.1-2.9c-1.8-1.9-2.7-4.5-2.7-7.6s.9-5.5,2.7-7.5c1.8-2,4.1-3,7-3s5.1.9,6.7,2.7c1.6,1.8,2.4,4.2,2.4,7.3v1.7h-13.4c0,1.5.5,2.7,1.3,3.5.8.9,1.8,1.3,3.1,1.3,2,0,3.3-.8,3.7-2.5ZM534.9,416c-2.3,0-3.7,1.3-4.2,3.8h7.8c0-1.1-.4-2-1-2.7-.6-.7-1.5-1.1-2.6-1.1Z"/>
    <path class="st1" d="M565.5,439.4h-5.5l2.9-7.3-7.7-20.2h5.9l4.6,13.4,4.6-13.4h5.6l-10.5,27.5Z"/>
    <path class="st1" d="M596.8,422c0,3.1-.9,5.6-2.7,7.6s-4.2,2.9-7.1,2.9-5.3-1-7.1-2.9c-1.8-2-2.7-4.5-2.7-7.6s.9-5.7,2.7-7.6c1.8-1.9,4.2-2.9,7.1-2.9s5.3,1,7.1,2.9c1.8,2,2.7,4.5,2.7,7.6ZM591.3,422c0-1.7-.4-3.1-1.1-4.2-.8-1.1-1.8-1.6-3.2-1.6s-2.4.5-3.2,1.6-1.1,2.5-1.1,4.2.4,3.1,1.1,4.2c.8,1.1,1.8,1.6,3.2,1.6s2.4-.5,3.2-1.6c.8-1.1,1.1-2.5,1.1-4.2Z"/>
    <path class="st1" d="M618.2,411.9v20.1h-5.6v-1.8c-1.4,1.5-3.2,2.3-5.4,2.3s-4-.7-5.2-2c-1.2-1.3-1.9-3.1-1.9-5.4v-13.1h5.6v12c0,1.1.3,2,.8,2.6.5.6,1.4.9,2.4.9s1.6-.2,2.3-.7c.7-.5,1.1-1.2,1.3-2v-12.8h5.6Z"/>
    <path class="st1" d="M647.5,411.9l3.3,12.8,3.6-12.8h5.4l-6.1,20.1h-5.1l-3.3-12.3-3.3,12.3h-5.1l-6.1-20.1h5.6l3.6,12.8,3.3-12.8h4.3Z"/>
    <path class="st1" d="M678.8,432h-5.4v-1.1c-.4.4-1,.7-1.9,1-.9.3-1.9.4-3,.4-2.1,0-3.9-.6-5.3-1.8s-2.1-2.8-2.1-4.8.7-3.4,2.2-4.6,3.3-1.8,5.6-1.8,1.7.1,2.6.4c.9.2,1.6.5,2,.8v-1.5c0-.9-.3-1.6-.8-2.2-.6-.6-1.4-.9-2.5-.9s-2.5.6-3,1.9h-5.3c.3-1.9,1.2-3.4,2.8-4.6,1.5-1.2,3.4-1.8,5.7-1.8s4.7.7,6.2,2c1.5,1.4,2.2,3.3,2.2,5.7v12.8ZM673.4,426.5v-1.4c-.2-.5-.7-1-1.4-1.3-.7-.3-1.4-.5-2.3-.5s-1.8.2-2.5.6-1.1,1-1.1,1.8.3,1.4,1,1.8c.7.4,1.5.6,2.5.6s1.6-.2,2.3-.5c.7-.3,1.1-.7,1.4-1.3Z"/>
    <path class="st1" d="M689.4,406.1c0,.9-.3,1.7-1,2.3-.6.6-1.4.9-2.3.9s-1.7-.3-2.4-.9c-.6-.6-1-1.4-1-2.3s.3-1.7,1-2.3c.7-.6,1.4-.9,2.3-.9s1.7.3,2.3.9c.6.6,1,1.4,1,2.3ZM688.9,411.9v20.1h-5.6v-20.1h5.6Z"/>
    <path class="st1" d="M695,425.9v-9.5h-3.1v-4.5h3.1v-5.4h5.5v5.4h4.4v4.5h-4.4v8.8c0,1.5.8,2.3,2.3,2.3s1.7-.2,2.4-.7v5c-.8.4-2,.6-3.6.6s-3.7-.5-4.9-1.6-1.8-2.7-1.8-4.9Z"/>
  </g>
  <path class="st1" d="M616.7,850.5c-2.8,0-5-2.2-5-5v-23.5c-25.3-13.8-40.9-39.9-40.9-68.8v-30.6c0-2.8,2.2-5,5-5s5,2.2,5,5v30.6c0,26.2,14.6,49.7,38.1,61.3,1.7.8,2.8,2.6,2.8,4.5v26.5c0,2.8-2.2,5-5,5Z"/>
  <path class="st1" d="M685.8,822c-1.4,0-2.8-.6-3.8-1.7-12.2-14.2-19-32.4-19-51.1s5.7-34.1,16.2-47.7l-60.3-67c-6.6-7.1-10.3-16.5-10.3-26.3,0-21.3,17.3-38.6,38.6-38.6h.4c1.3,0,2.6.5,3.5,1.5l106.6,106.6c2,2,2,5.1,0,7.1-2,2-5.1,2-7.1,0l-105.1-105.1c-15,.8-27,13.3-27,28.6s2.7,14.2,7.7,19.5l63.2,70.2c1.7,1.9,1.7,4.7,0,6.6-10.7,12.4-16.6,28.2-16.6,44.6s5.9,32.2,16.6,44.6c1.8,2.1,1.6,5.2-.5,7.1-.9.8-2.1,1.2-3.3,1.2Z"/>
  <path class="st1" d="M544.8,337.5c-24.6,0-44.7-20-44.7-44.7s20-44.7,44.7-44.7,44.7,20,44.7,44.7-20,44.7-44.7,44.7ZM544.8,257.2c-19.7,0-35.7,16-35.7,35.7s16,35.7,35.7,35.7,35.7-16,35.7-35.7-16-35.7-35.7-35.7Z"/>
  <path class="st1" d="M531.7,270c-.8,0-1.5.2-2.2.5l-2.1,1.1c-2.3,1.2-4.1,3.2-5,5.7-.6,1.8-.4,3.8.6,5.5l1.9,3.2c6.6,11,15.8,20.2,26.8,26.8l3.2,1.9c1,.6,2.2.9,3.4.9s1.4-.1,2.1-.3c2.5-.8,4.5-2.6,5.7-5l1.1-2.1c1-1.9.6-4.2-.9-5.8l-5.1-5.1c-.8-.8-1.9-1.3-3-1.3s-2.2.4-3,1.3l-3,3c-.3.3-.6.4-1,.4s-.5,0-.7-.2h0c-5.6-3-10.3-7.6-13.2-13.2h0c-.3-.5-.2-1.2.2-1.7l3-3c1.7-1.7,1.7-4.4,0-6l-5.1-5.1c-1-1-2.2-1.5-3.5-1.5h0Z"/>
  <path class="st1" d="M607.5,288c-2.5,0-4.5,2-4.5,4.5s2,4.5,4.5,4.5,4.5-2,4.5-4.5-2-4.5-4.5-4.5h0Z"/>
  <path class="st1" d="M625.5,288c-2.5,0-4.5,2-4.5,4.5s2,4.5,4.5,4.5,4.5-2,4.5-4.5-2-4.5-4.5-4.5h0Z"/>
  <path class="st1" d="M643.5,288c-2.5,0-4.5,2-4.5,4.5s2,4.5,4.5,4.5,4.5-2,4.5-4.5-2-4.5-4.5-4.5h0Z"/>
  <path class="st1" d="M814.1,847c-2.8,0-5-2.2-5-5v-133.2c0-37.5-14.6-72.8-41.1-99.3l-42.4-38.8c-2-1.9-2.2-5-.3-7.1,1.9-2,5-2.2,7.1-.3l42.5,38.8c0,0,.1.1.2.2,28.4,28.4,44.1,66.2,44.1,106.4v133.2c0,2.8-2.2,5-5,5Z"/>
</svg>