<?xml version="1.0" encoding="UTF-8"?>
<svg id="OUTLINES" xmlns="http://www.w3.org/2000/svg" version="1.1" viewBox="0 0 1152 1008">
  <!-- Generator: Adobe Illustrator 29.7.1, SVG Export Plug-In . SVG Version: 2.1.1 Build 8)  -->
  <defs>
    <style>
      .st0 {
        fill: #fff;
      }

      .st1 {
        fill: #030f78;
      }

      .st2 {
        fill: #000f7d;
      }
    </style>
  </defs>
  <g>
    <rect class="st0" x="252" y="377.7" width="648" height="99.3" rx="18" ry="18"/>
    <path class="st0" d="M882,483H270c-13.2,0-24-10.8-24-24v-63.3c0-13.2,10.8-24,24-24h612c13.2,0,24,10.8,24,24v63.3c0,13.2-10.8,24-24,24ZM270,383.7c-6.6,0-12,5.4-12,12v63.3c0,6.6,5.4,12,12,12h612c6.6,0,12-5.4,12-12v-63.3c0-6.6-5.4-12-12-12H270Z"/>
  </g>
  <g>
    <rect class="st0" x="252" y="476.7" width="648" height="99.3" rx="18" ry="18"/>
    <path class="st0" d="M882,582H270c-13.2,0-24-10.8-24-24v-63.3c0-13.2,10.8-24,24-24h612c13.2,0,24,10.8,24,24v63.3c0,13.2-10.8,24-24,24ZM270,482.7c-6.6,0-12,5.4-12,12v63.3c0,6.6,5.4,12,12,12h612c6.6,0,12-5.4,12-12v-63.3c0-6.6-5.4-12-12-12H270Z"/>
  </g>
  <g>
    <path class="st2" d="M724.8,369h-10v-135.4c0-7.2-5.8-13-13-13h-252c-7.2,0-13,5.8-13,13v135.4h-10v-135.4c0-12.7,10.3-23,23-23h252c12.7,0,23,10.3,23,23v135.4Z"/>
    <path class="st2" d="M684.2,724.6h-234.4c-12.7,0-23-10.3-23-23l.4-134.6h10s-.4,134.6-.4,134.6c0,7.2,5.8,13,13,13h223.2l-54.1-60.1c-6.6-7.1-10.3-16.4-10.3-26.3,0-21.3,17.3-38.6,38.6-38.6h.5c1.3,0,2.5.5,3.5,1.5l63.7,63.7.2-87.8h10s-.2,99.8-.2,99.8c0,2-1.2,3.8-3.1,4.6-1.9.8-4,.3-5.4-1.1l-70.7-70.7c-15,.8-27,13.3-27,28.6s2.7,14.2,7.7,19.5l61.7,68.5c1.3,1.5,1.7,3.6.9,5.4-.8,1.8-2.6,3-4.6,3Z"/>
  </g>
  <path class="st2" d="M575.8,693.1c-12.7,0-23-10.3-23-23s10.3-23,23-23,23,10.3,23,23-10.3,23-23,23ZM575.8,657.1c-7.2,0-13,5.8-13,13s5.8,13,13,13,13-5.8,13-13-5.8-13-13-13Z"/>
  <path class="st2" d="M873,474.3H270c-13.2,0-24-10.8-24-24v-63.3c0-13.2,10.8-24,24-24h603c13.2,0,24,10.8,24,24v63.3c0,13.2-10.8,24-24,24ZM270,375c-6.6,0-12,5.4-12,12v63.3c0,6.6,5.4,12,12,12h603c6.6,0,12-5.4,12-12v-63.3c0-6.6-5.4-12-12-12H270Z"/>
  <g>
    <path class="st2" d="M369.8,424.1h5.9c.7,2.4,2.6,3.6,5.5,3.6s2.5-.3,3.4-.9c.8-.6,1.3-1.5,1.3-2.5s-.3-1.5-.8-2c-.5-.5-1.4-.9-2.6-1.1l-5-1.1c-4.7-1-7-3.6-7-7.6s.9-4.5,2.8-6.1c1.9-1.6,4.2-2.4,7.2-2.4s5.5.7,7.4,2.2c1.8,1.5,3,3.4,3.5,5.8h-5.7c-.8-2.2-2.4-3.3-5.1-3.3s-2.4.3-3.2.9c-.8.6-1.2,1.4-1.2,2.4,0,1.5,1,2.5,3.1,3l5,1.2c4.8,1.1,7.2,3.7,7.2,7.8s-1,4.7-2.9,6.3c-1.9,1.6-4.4,2.3-7.4,2.3s-5.7-.7-7.7-2.2c-2-1.5-3.3-3.5-3.8-6.1Z"/>
    <path class="st2" d="M407.7,425.4h5.2c-.4,2.2-1.3,3.9-2.9,5.2s-3.6,1.9-6.1,1.9-5.3-1-7.1-2.9-2.7-4.5-2.7-7.6.9-5.5,2.7-7.5c1.8-2,4.1-3,7-3s5.1.9,6.7,2.7c1.6,1.8,2.4,4.2,2.4,7.3v1.7h-13.4c0,1.5.5,2.7,1.3,3.5.8.9,1.8,1.3,3.1,1.3,2,0,3.3-.8,3.7-2.5ZM404,416c-2.3,0-3.7,1.3-4.2,3.8h7.8c0-1.1-.4-2-1-2.7-.6-.7-1.5-1.1-2.6-1.1Z"/>
    <path class="st2" d="M429,425.4h5.2c-.4,2.2-1.3,3.9-2.9,5.2s-3.6,1.9-6.1,1.9-5.3-1-7.1-2.9-2.7-4.5-2.7-7.6.9-5.5,2.7-7.5c1.8-2,4.1-3,7-3s5.1.9,6.7,2.7c1.6,1.8,2.4,4.2,2.4,7.3v1.7h-13.4c0,1.5.5,2.7,1.3,3.5.8.9,1.8,1.3,3.1,1.3,2,0,3.3-.8,3.7-2.5ZM425.2,416c-2.3,0-3.7,1.3-4.2,3.8h7.8c0-1.1-.4-2-1-2.7-.6-.7-1.5-1.1-2.6-1.1Z"/>
    <path class="st2" d="M462.3,411.9l3.3,12.8,3.6-12.8h5.4l-6.1,20.1h-5.1l-3.3-12.3-3.3,12.3h-5.1l-6.1-20.1h5.6l3.6,12.8,3.3-12.8h4.3Z"/>
    <path class="st2" d="M477.7,432v-29.2h5.6v11c1.3-1.5,3.1-2.3,5.4-2.3s4,.7,5.2,2c1.2,1.3,1.9,3.1,1.9,5.4v13.1h-5.6v-12c0-1.1-.3-1.9-.8-2.6-.6-.6-1.4-1-2.5-1s-1.6.2-2.3.7c-.7.5-1.1,1.2-1.3,2v12.7h-5.6Z"/>
    <path class="st2" d="M516.9,432h-5.4v-1.1c-.4.4-1,.7-1.9,1-.9.3-1.9.5-3,.5-2.1,0-3.9-.6-5.3-1.8s-2.1-2.8-2.1-4.8.7-3.4,2.2-4.6c1.5-1.2,3.3-1.8,5.6-1.8s1.7.1,2.6.4c.9.2,1.6.5,2,.8v-1.5c0-.9-.3-1.6-.8-2.2-.6-.6-1.4-.9-2.5-.9s-2.5.6-3,1.9h-5.3c.3-1.9,1.2-3.4,2.8-4.6,1.5-1.2,3.4-1.8,5.7-1.8s4.7.7,6.2,2c1.5,1.4,2.2,3.3,2.2,5.7v12.8ZM511.6,426.5v-1.4c-.2-.5-.7-1-1.4-1.3s-1.4-.5-2.3-.5-1.8.2-2.5.6-1.1,1-1.1,1.8.3,1.4,1,1.8c.7.4,1.5.6,2.5.6s1.6-.2,2.3-.5,1.1-.7,1.4-1.3Z"/>
    <path class="st2" d="M522.5,425.9v-9.5h-3.1v-4.5h3.1v-5.4h5.5v5.4h4.4v4.5h-4.4v8.8c0,1.5.8,2.3,2.3,2.3s1.7-.2,2.4-.7v4.9c-.8.4-2,.6-3.6.6s-3.7-.5-4.9-1.6-1.8-2.7-1.8-4.9Z"/>
    <path class="st2" d="M535.3,415.5l3.2-5c-.8-.1-1.5-.5-2-1.1-.5-.6-.8-1.3-.8-2.2s.3-1.8,1-2.5c.7-.6,1.5-1,2.5-1s1.9.3,2.5,1c.7.7,1,1.6,1,2.8s-.5,2.6-1.5,4l-2.5,3.7h-3.6Z"/>
    <path class="st2" d="M543,426h5.5c.5,1.5,1.6,2.2,3.4,2.2s2.8-.7,2.8-2-.2-.8-.5-1.1c-.3-.3-.8-.5-1.6-.7l-4-.9c-3.5-.8-5.2-2.7-5.2-5.7s.8-3.5,2.3-4.7,3.4-1.8,5.7-1.8,4.4.5,5.9,1.6c1.4,1.1,2.3,2.6,2.7,4.6h-5.3c-.4-1.3-1.5-2-3.2-2s-1.3.2-1.9.5c-.5.3-.8.8-.8,1.4s.6,1.3,1.8,1.6l4.1.9c3.6.9,5.4,2.8,5.4,5.8s-.8,3.6-2.3,4.8-3.5,1.8-5.9,1.8-4.5-.6-6.1-1.7c-1.6-1.1-2.5-2.7-2.8-4.7Z"/>
    <path class="st2" d="M579.1,430.3v9.1h-5.6v-27.5h5.6v1.7c.5-.6,1.2-1.1,2.1-1.5.9-.4,1.9-.6,2.9-.6,2.8,0,5.1,1,6.7,3,1.6,2,2.5,4.5,2.5,7.5s-.8,5.5-2.5,7.5c-1.7,2-3.9,3-6.7,3s-2-.2-2.9-.6c-.9-.4-1.6-.9-2.1-1.5ZM579.1,418.6v6.6c.3.7.8,1.3,1.5,1.7.7.4,1.4.7,2.2.7,1.5,0,2.6-.5,3.5-1.6.9-1,1.3-2.4,1.3-4.1s-.4-3-1.3-4.1c-.9-1.1-2-1.6-3.5-1.6s-1.6.2-2.2.7c-.7.4-1.2,1-1.6,1.7Z"/>
    <path class="st2" d="M615.5,422c0,3.1-.9,5.6-2.7,7.6-1.8,2-4.2,2.9-7.1,2.9s-5.3-1-7.1-2.9c-1.8-1.9-2.7-4.5-2.7-7.6s.9-5.7,2.7-7.6c1.8-2,4.2-2.9,7.1-2.9s5.3,1,7.1,2.9,2.7,4.5,2.7,7.6ZM610,422c0-1.7-.4-3.1-1.1-4.2-.8-1.1-1.8-1.6-3.2-1.6s-2.4.5-3.2,1.6c-.8,1.1-1.1,2.5-1.1,4.2s.4,3.1,1.1,4.2c.8,1.1,1.8,1.6,3.2,1.6s2.4-.5,3.2-1.6c.8-1.1,1.1-2.5,1.1-4.2Z"/>
    <path class="st2" d="M617.8,426h5.5c.5,1.5,1.6,2.2,3.4,2.2s2.8-.7,2.8-2-.2-.8-.5-1.1c-.3-.3-.8-.5-1.6-.7l-4-.9c-3.5-.8-5.2-2.7-5.2-5.7s.8-3.5,2.3-4.7,3.4-1.8,5.7-1.8,4.4.5,5.9,1.6c1.4,1.1,2.3,2.6,2.7,4.6h-5.3c-.4-1.3-1.5-2-3.2-2s-1.3.2-1.9.5c-.5.3-.8.8-.8,1.4s.6,1.3,1.8,1.6l4.1.9c3.6.9,5.4,2.8,5.4,5.8s-.8,3.6-2.3,4.8-3.5,1.8-5.9,1.8-4.5-.6-6.1-1.7c-1.6-1.1-2.5-2.7-2.8-4.7Z"/>
    <path class="st2" d="M637.5,426h5.5c.5,1.5,1.6,2.2,3.4,2.2s2.8-.7,2.8-2-.2-.8-.5-1.1c-.3-.3-.8-.5-1.6-.7l-4-.9c-3.5-.8-5.2-2.7-5.2-5.7s.8-3.5,2.3-4.7,3.4-1.8,5.7-1.8,4.4.5,5.9,1.6c1.4,1.1,2.3,2.6,2.7,4.6h-5.3c-.4-1.3-1.5-2-3.2-2s-1.3.2-1.9.5c-.5.3-.8.8-.8,1.4s.6,1.3,1.8,1.6l4.1.9c3.6.9,5.4,2.8,5.4,5.8s-.8,3.6-2.3,4.8-3.5,1.8-5.9,1.8-4.5-.6-6.1-1.7c-1.6-1.1-2.5-2.7-2.8-4.7Z"/>
    <path class="st2" d="M664.5,406.1c0,.9-.3,1.7-1,2.3-.6.6-1.4.9-2.3.9s-1.7-.3-2.4-.9c-.6-.6-1-1.4-1-2.3s.3-1.7,1-2.3c.7-.6,1.4-.9,2.3-.9s1.7.3,2.3.9,1,1.4,1,2.3ZM664,411.9v20.1h-5.6v-20.1h5.6Z"/>
    <path class="st2" d="M674.5,430.3v1.7h-5.6v-29.2h5.6v10.8c.5-.6,1.2-1.1,2.1-1.5.9-.4,1.9-.6,2.9-.6,2.8,0,5,1,6.7,3,1.6,2,2.5,4.5,2.5,7.5s-.8,5.5-2.5,7.5c-1.6,2-3.9,3-6.7,3s-2-.2-2.9-.6c-.9-.4-1.6-.9-2.1-1.5ZM674.5,418.6v6.6c.3.7.8,1.3,1.5,1.7.7.4,1.4.7,2.3.7,1.5,0,2.6-.5,3.5-1.6.9-1,1.3-2.4,1.3-4.1s-.4-3-1.3-4.1c-.9-1.1-2-1.6-3.5-1.6s-1.6.2-2.2.7c-.7.4-1.2,1-1.5,1.7Z"/>
    <path class="st2" d="M697.8,402.8v29.2h-5.6v-29.2h5.6Z"/>
    <path class="st2" d="M714.9,425.4h5.2c-.4,2.2-1.3,3.9-2.9,5.2s-3.6,1.9-6.1,1.9-5.3-1-7.1-2.9-2.7-4.5-2.7-7.6.9-5.5,2.7-7.5c1.8-2,4.1-3,7-3s5.1.9,6.7,2.7c1.6,1.8,2.4,4.2,2.4,7.3v1.7h-13.4c0,1.5.5,2.7,1.3,3.5.8.9,1.8,1.3,3.1,1.3,2,0,3.3-.8,3.7-2.5ZM711.1,416c-2.3,0-3.7,1.3-4.2,3.8h7.8c0-1.1-.4-2-1-2.7-.6-.7-1.5-1.1-2.6-1.1Z"/>
  </g>
  <path class="st2" d="M873,573.3H270c-13.2,0-24-10.8-24-24v-63.3c0-13.2,10.8-24,24-24h603c13.2,0,24,10.8,24,24v63.3c0,13.2-10.8,24-24,24ZM270,474c-6.6,0-12,5.4-12,12v63.3c0,6.6,5.4,12,12,12h603c6.6,0,12-5.4,12-12v-63.3c0-6.6-5.4-12-12-12H270Z"/>
  <g>
    <path class="st2" d="M369.8,523.1h5.9c.7,2.4,2.6,3.6,5.5,3.6s2.5-.3,3.4-.9c.8-.6,1.3-1.5,1.3-2.5s-.3-1.5-.8-2c-.5-.5-1.4-.9-2.6-1.1l-5-1.1c-4.7-1-7-3.6-7-7.6s.9-4.5,2.8-6.1c1.9-1.6,4.2-2.4,7.2-2.4s5.5.7,7.4,2.2c1.8,1.5,3,3.4,3.5,5.8h-5.7c-.8-2.2-2.4-3.3-5.1-3.3s-2.4.3-3.2.9c-.8.6-1.2,1.4-1.2,2.4,0,1.5,1,2.5,3.1,3l5,1.2c4.8,1.1,7.2,3.7,7.2,7.8s-1,4.7-2.9,6.3c-1.9,1.6-4.4,2.3-7.4,2.3s-5.7-.7-7.7-2.2c-2-1.5-3.3-3.5-3.8-6.1Z"/>
    <path class="st2" d="M407.7,524.4h5.2c-.4,2.2-1.3,3.9-2.9,5.2s-3.6,1.9-6.1,1.9-5.3-1-7.1-2.9-2.7-4.5-2.7-7.6.9-5.5,2.7-7.5c1.8-2,4.1-3,7-3s5.1.9,6.7,2.7c1.6,1.8,2.4,4.2,2.4,7.3v1.7h-13.4c0,1.5.5,2.7,1.3,3.5.8.9,1.8,1.3,3.1,1.3,2,0,3.3-.8,3.7-2.5ZM404,515c-2.3,0-3.7,1.3-4.2,3.8h7.8c0-1.1-.4-2-1-2.7-.6-.7-1.5-1.1-2.6-1.1Z"/>
    <path class="st2" d="M429,524.4h5.2c-.4,2.2-1.3,3.9-2.9,5.2s-3.6,1.9-6.1,1.9-5.3-1-7.1-2.9-2.7-4.5-2.7-7.6.9-5.5,2.7-7.5c1.8-2,4.1-3,7-3s5.1.9,6.7,2.7c1.6,1.8,2.4,4.2,2.4,7.3v1.7h-13.4c0,1.5.5,2.7,1.3,3.5.8.9,1.8,1.3,3.1,1.3,2,0,3.3-.8,3.7-2.5ZM425.2,515c-2.3,0-3.7,1.3-4.2,3.8h7.8c0-1.1-.4-2-1-2.7-.6-.7-1.5-1.1-2.6-1.1Z"/>
    <path class="st2" d="M462.3,510.9l3.3,12.8,3.6-12.8h5.4l-6.1,20.1h-5.1l-3.3-12.3-3.3,12.3h-5.1l-6.1-20.1h5.6l3.6,12.8,3.3-12.8h4.3Z"/>
    <path class="st2" d="M477.7,531v-29.2h5.6v11c1.3-1.5,3.1-2.3,5.4-2.3s4,.7,5.2,2c1.2,1.3,1.9,3.1,1.9,5.4v13.1h-5.6v-12c0-1.1-.3-1.9-.8-2.6-.6-.6-1.4-1-2.5-1s-1.6.2-2.3.7c-.7.5-1.1,1.2-1.3,2v12.7h-5.6Z"/>
    <path class="st2" d="M516.9,531h-5.4v-1.1c-.4.4-1,.7-1.9,1-.9.3-1.9.5-3,.5-2.1,0-3.9-.6-5.3-1.8s-2.1-2.8-2.1-4.8.7-3.4,2.2-4.6c1.5-1.2,3.3-1.8,5.6-1.8s1.7.1,2.6.4c.9.2,1.6.5,2,.8v-1.5c0-.9-.3-1.6-.8-2.2-.6-.6-1.4-.9-2.5-.9s-2.5.6-3,1.9h-5.3c.3-1.9,1.2-3.4,2.8-4.6,1.5-1.2,3.4-1.8,5.7-1.8s4.7.7,6.2,2c1.5,1.4,2.2,3.3,2.2,5.7v12.8ZM511.6,525.5v-1.4c-.2-.5-.7-1-1.4-1.3s-1.4-.5-2.3-.5-1.8.2-2.5.6-1.1,1-1.1,1.8.3,1.4,1,1.8c.7.4,1.5.6,2.5.6s1.6-.2,2.3-.5,1.1-.7,1.4-1.3Z"/>
    <path class="st2" d="M522.5,524.9v-9.5h-3.1v-4.5h3.1v-5.4h5.5v5.4h4.4v4.5h-4.4v8.8c0,1.5.8,2.3,2.3,2.3s1.7-.2,2.4-.7v4.9c-.8.4-2,.6-3.6.6s-3.7-.5-4.9-1.6-1.8-2.7-1.8-4.9Z"/>
    <path class="st2" d="M535.3,514.5l3.2-5c-.8-.1-1.5-.5-2-1.1-.5-.6-.8-1.3-.8-2.2s.3-1.8,1-2.5c.7-.6,1.5-1,2.5-1s1.9.3,2.5,1c.7.7,1,1.6,1,2.8s-.5,2.6-1.5,4l-2.5,3.7h-3.6Z"/>
    <path class="st2" d="M543,525h5.5c.5,1.5,1.6,2.2,3.4,2.2s2.8-.7,2.8-2-.2-.8-.5-1.1c-.3-.3-.8-.5-1.6-.7l-4-.9c-3.5-.8-5.2-2.7-5.2-5.7s.8-3.5,2.3-4.7,3.4-1.8,5.7-1.8,4.4.5,5.9,1.6c1.4,1.1,2.3,2.6,2.7,4.6h-5.3c-.4-1.3-1.5-2-3.2-2s-1.3.2-1.9.5c-.5.3-.8.8-.8,1.4s.6,1.3,1.8,1.6l4.1.9c3.6.9,5.4,2.8,5.4,5.8s-.8,3.6-2.3,4.8-3.5,1.8-5.9,1.8-4.5-.6-6.1-1.7c-1.6-1.1-2.5-2.7-2.8-4.7Z"/>
    <path class="st2" d="M573.5,531v-20.1h5.6v1.8c1.3-1.5,3.1-2.3,5.4-2.3s4,.7,5.2,2c1.2,1.3,1.9,3.1,1.9,5.4v13.1h-5.6v-12c0-1.1-.3-1.9-.8-2.6-.6-.6-1.4-1-2.5-1s-1.6.2-2.3.7c-.7.5-1.1,1.2-1.3,2v12.7h-5.6Z"/>
    <path class="st2" d="M614.7,521c0,3.1-.9,5.6-2.7,7.6-1.8,2-4.2,2.9-7.1,2.9s-5.3-1-7.1-2.9c-1.8-1.9-2.7-4.5-2.7-7.6s.9-5.7,2.7-7.6c1.8-2,4.2-2.9,7.1-2.9s5.3,1,7.1,2.9,2.7,4.5,2.7,7.6ZM609.2,521c0-1.7-.4-3.1-1.1-4.2-.8-1.1-1.8-1.6-3.2-1.6s-2.4.5-3.2,1.6c-.8,1.1-1.1,2.5-1.1,4.2s.4,3.1,1.1,4.2c.8,1.1,1.8,1.6,3.2,1.6s2.4-.5,3.2-1.6c.8-1.1,1.1-2.5,1.1-4.2Z"/>
    <path class="st2" d="M619.5,524.9v-9.5h-3.1v-4.5h3.1v-5.4h5.5v5.4h4.4v4.5h-4.4v8.8c0,1.5.8,2.3,2.3,2.3s1.7-.2,2.4-.7v4.9c-.8.4-2,.6-3.6.6s-3.7-.5-4.9-1.6-1.8-2.7-1.8-4.9Z"/>
    <path class="st2" d="M648.9,529.3v9.1h-5.6v-27.5h5.6v1.7c.5-.6,1.2-1.1,2.1-1.5.9-.4,1.9-.6,2.9-.6,2.8,0,5.1,1,6.7,3,1.6,2,2.5,4.5,2.5,7.5s-.8,5.5-2.5,7.5c-1.7,2-3.9,3-6.7,3s-2-.2-2.9-.6c-.9-.4-1.6-.9-2.1-1.5ZM648.9,517.6v6.6c.3.7.8,1.3,1.5,1.7.7.4,1.4.7,2.2.7,1.5,0,2.6-.5,3.5-1.6.9-1,1.3-2.4,1.3-4.1s-.4-3-1.3-4.1c-.9-1.1-2-1.6-3.5-1.6s-1.6.2-2.2.7c-.7.4-1.2,1-1.6,1.7Z"/>
    <path class="st2" d="M685.3,521c0,3.1-.9,5.6-2.7,7.6-1.8,2-4.2,2.9-7.1,2.9s-5.3-1-7.1-2.9c-1.8-1.9-2.7-4.5-2.7-7.6s.9-5.7,2.7-7.6c1.8-2,4.2-2.9,7.1-2.9s5.3,1,7.1,2.9,2.7,4.5,2.7,7.6ZM679.8,521c0-1.7-.4-3.1-1.1-4.2-.8-1.1-1.8-1.6-3.2-1.6s-2.4.5-3.2,1.6c-.8,1.1-1.1,2.5-1.1,4.2s.4,3.1,1.1,4.2c.8,1.1,1.8,1.6,3.2,1.6s2.4-.5,3.2-1.6c.8-1.1,1.1-2.5,1.1-4.2Z"/>
    <path class="st2" d="M687.6,525h5.5c.5,1.5,1.6,2.2,3.4,2.2s2.8-.7,2.8-2-.2-.8-.5-1.1c-.3-.3-.8-.5-1.6-.7l-4-.9c-3.5-.8-5.2-2.7-5.2-5.7s.8-3.5,2.3-4.7,3.4-1.8,5.7-1.8,4.4.5,5.9,1.6c1.4,1.1,2.3,2.6,2.7,4.6h-5.3c-.4-1.3-1.5-2-3.2-2s-1.3.2-1.9.5c-.5.3-.8.8-.8,1.4s.6,1.3,1.8,1.6l4.1.9c3.6.9,5.4,2.8,5.4,5.8s-.8,3.6-2.3,4.8-3.5,1.8-5.9,1.8-4.5-.6-6.1-1.7c-1.6-1.1-2.5-2.7-2.8-4.7Z"/>
    <path class="st2" d="M707.3,525h5.5c.5,1.5,1.6,2.2,3.4,2.2s2.8-.7,2.8-2-.2-.8-.5-1.1c-.3-.3-.8-.5-1.6-.7l-4-.9c-3.5-.8-5.2-2.7-5.2-5.7s.8-3.5,2.3-4.7,3.4-1.8,5.7-1.8,4.4.5,5.9,1.6c1.4,1.1,2.3,2.6,2.7,4.6h-5.3c-.4-1.3-1.5-2-3.2-2s-1.3.2-1.9.5c-.5.3-.8.8-.8,1.4s.6,1.3,1.8,1.6l4.1.9c3.6.9,5.4,2.8,5.4,5.8s-.8,3.6-2.3,4.8-3.5,1.8-5.9,1.8-4.5-.6-6.1-1.7c-1.6-1.1-2.5-2.7-2.8-4.7Z"/>
    <path class="st2" d="M734.3,505.1c0,.9-.3,1.7-1,2.3-.6.6-1.4.9-2.3.9s-1.7-.3-2.4-.9c-.6-.6-1-1.4-1-2.3s.3-1.7,1-2.3c.7-.6,1.4-.9,2.3-.9s1.7.3,2.3.9,1,1.4,1,2.3ZM733.8,510.9v20.1h-5.6v-20.1h5.6Z"/>
    <path class="st2" d="M744.2,529.3v1.7h-5.6v-29.2h5.6v10.8c.5-.6,1.2-1.1,2.1-1.5.9-.4,1.9-.6,2.9-.6,2.8,0,5,1,6.7,3,1.6,2,2.5,4.5,2.5,7.5s-.8,5.5-2.5,7.5c-1.6,2-3.9,3-6.7,3s-2-.2-2.9-.6c-.9-.4-1.6-.9-2.1-1.5ZM744.2,517.6v6.6c.3.7.8,1.3,1.5,1.7.7.4,1.4.7,2.3.7,1.5,0,2.6-.5,3.5-1.6.9-1,1.3-2.4,1.3-4.1s-.4-3-1.3-4.1c-.9-1.1-2-1.6-3.5-1.6s-1.6.2-2.2.7c-.7.4-1.2,1-1.5,1.7Z"/>
    <path class="st2" d="M767.6,501.8v29.2h-5.6v-29.2h5.6Z"/>
    <path class="st2" d="M784.7,524.4h5.2c-.4,2.2-1.3,3.9-2.9,5.2s-3.6,1.9-6.1,1.9-5.3-1-7.1-2.9-2.7-4.5-2.7-7.6.9-5.5,2.7-7.5c1.8-2,4.1-3,7-3s5.1.9,6.7,2.7c1.6,1.8,2.4,4.2,2.4,7.3v1.7h-13.4c0,1.5.5,2.7,1.3,3.5.8.9,1.8,1.3,3.1,1.3,2,0,3.3-.8,3.7-2.5ZM780.9,515c-2.3,0-3.7,1.3-4.2,3.8h7.8c0-1.1-.4-2-1-2.7-.6-.7-1.5-1.1-2.6-1.1Z"/>
  </g>
  <path class="st2" d="M616.7,850.5c-2.8,0-5-2.2-5-5v-23.5c-25.3-13.8-40.9-39.9-40.9-68.8v-30.6c0-2.8,2.2-5,5-5s5,2.2,5,5v30.6c0,26.2,14.6,49.7,38.1,61.3,1.7.8,2.8,2.6,2.8,4.5v26.5c0,2.8-2.2,5-5,5Z"/>
  <path class="st2" d="M685.8,822c-1.4,0-2.8-.6-3.8-1.7-12.2-14.2-19-32.4-19-51.1s5.7-34.1,16.2-47.7l-60.3-67c-6.6-7.1-10.3-16.5-10.3-26.3,0-21.3,17.3-38.6,38.6-38.6h.4c1.3,0,2.6.5,3.5,1.5,33.3,33.3,86.5,86.5,106.6,106.6,2,2,2,5.1,0,7.1-2,2-5.1,2-7.1,0-19.8-19.8-71.7-71.7-105.1-105.1-15,.8-27,13.3-27,28.6s2.7,14.2,7.7,19.5l63.2,70.2c1.7,1.9,1.7,4.7,0,6.6-10.7,12.4-16.6,28.2-16.6,44.6s5.9,32.2,16.6,44.6c1.8,2.1,1.6,5.2-.5,7.1-.9.8-2.1,1.2-3.3,1.2Z"/>
  <path class="st2" d="M814.1,847c-2.8,0-5-2.2-5-5v-133.2c0-37.5-14.6-72.8-41.1-99.3l-42.4-38.8c-2-1.9-2.2-5-.3-7.1,1.9-2,5-2.2,7.1-.3l42.5,38.8c0,0,.1.1.2.2,28.4,28.4,44.1,66.2,44.1,106.4v133.2c0,2.8-2.2,5-5,5Z"/>
  <g>
    <g>
      <path class="st2" d="M569.9,266.4c0,9.2,7.5,16.7,16.7,16.7h0c-9.2,0-16.7,7.5-16.7,16.7h0c0-9.2-7.5-16.7-16.7-16.7,9.2,0,16.7-7.5,16.7-16.7h0Z"/>
      <path class="st1" d="M569.9,301.3c-.4,0-.8-.2-1.1-.4s-.5-.7-.5-1.1c0-8.4-6.8-15.2-15.2-15.2s-1.5-.7-1.5-1.5.7-1.5,1.5-1.5c8.4,0,15.2-6.8,15.2-15.2s.7-1.5,1.5-1.5,1.5.7,1.5,1.5c0,8.4,6.8,15.2,15.2,15.2s1.5.7,1.5,1.5-.7,1.5-1.5,1.5c-8.4,0-15.2,6.8-15.2,15.2s-.4,1.2-.9,1.4c-.2,0-.4.1-.6.1ZM560.5,283.1c4.2,1.8,7.6,5.3,9.5,9.5,1.8-4.2,5.2-7.6,9.5-9.5-4.2-1.8-7.7-5.2-9.5-9.5-1.8,4.2-5.2,7.6-9.5,9.5Z"/>
    </g>
    <g>
      <path class="st2" d="M587.8,291.3c0,5.2,4.2,9.3,9.3,9.3h0c-5.2,0-9.3,4.2-9.3,9.4h0c0-5.2-4.2-9.4-9.3-9.4,5.2,0,9.3-4.2,9.3-9.3h0Z"/>
      <path class="st1" d="M587.8,311.5c-.4,0-.8-.2-1.1-.4s-.5-.7-.5-1.1c0-4.3-3.5-7.8-7.8-7.8s-1.5-.7-1.5-1.5.7-1.5,1.5-1.5c4.3,0,7.8-3.5,7.8-7.8s.7-1.5,1.5-1.5,1.5.7,1.5,1.5c0,4.3,3.5,7.8,7.8,7.8s1.5.7,1.5,1.5-.7,1.5-1.5,1.5c-4.3,0-7.8,3.5-7.8,7.8s-.4,1.2-.9,1.4c-.2,0-.4.1-.6.1ZM584,300.7c1.6.9,2.9,2.3,3.9,3.9.9-1.6,2.3-2.9,3.9-3.9-1.6-.9-2.9-2.3-3.9-3.9-.9,1.6-2.3,2.9-3.9,3.9Z"/>
    </g>
  </g>
  <path class="st2" d="M576.3,329.8c-22.1,0-40.2-18-40.2-40.2s18-40.2,40.2-40.2,40.2,18,40.2,40.2-18,40.2-40.2,40.2ZM576.3,258.5c-17.2,0-31.2,14-31.2,31.2s14,31.2,31.2,31.2,31.2-14,31.2-31.2-14-31.2-31.2-31.2Z"/>
  <path class="st2" d="M310.5,455c-20.1,0-36.5-16.4-36.5-36.5s16.4-36.5,36.5-36.5,36.5,16.4,36.5,36.5-16.4,36.5-36.5,36.5ZM310.5,392c-14.6,0-26.5,11.9-26.5,26.5s11.9,26.5,26.5,26.5,26.5-11.9,26.5-26.5-11.9-26.5-26.5-26.5Z"/>
  <path class="st2" d="M310.5,436.4c-1.1,0-2.2-.4-3.2-1.1l-13.5-11.1c-2.1-1.8-2.4-4.9-.7-7,1.8-2.1,4.9-2.4,7-.7l9.7,8,19.3-22.6c1.8-2.1,4.9-2.4,7-.6,2.1,1.8,2.4,4.9.6,7l-22.5,26.4c-1,1.2-2.4,1.8-3.8,1.8Z"/>
  <path class="st2" d="M310.5,554c-20.1,0-36.5-16.4-36.5-36.5s16.4-36.5,36.5-36.5,36.5,16.4,36.5,36.5-16.4,36.5-36.5,36.5ZM310.5,491c-14.6,0-26.5,11.9-26.5,26.5s11.9,26.5,26.5,26.5,26.5-11.9,26.5-26.5-11.9-26.5-26.5-26.5Z"/>
  <path class="st2" d="M324,536c-1.3,0-2.6-.5-3.5-1.5l-27-27c-2-2-2-5.1,0-7.1,2-2,5.1-2,7.1,0l27,27c2,2,2,5.1,0,7.1-1,1-2.3,1.5-3.5,1.5Z"/>
  <path class="st2" d="M297,536c-1.3,0-2.6-.5-3.5-1.5-2-2-2-5.1,0-7.1l27-27c2-2,5.1-2,7.1,0,2,2,2,5.1,0,7.1l-27,27c-1,1-2.3,1.5-3.5,1.5Z"/>
  <path class="st2" d="M836.1,536c-1.6,0-3.2-.8-4.2-2.3-1.5-2.3-.9-5.4,1.4-6.9l14.4-9.5-14.4-9.5c-2.3-1.5-2.9-4.6-1.4-6.9s4.6-2.9,6.9-1.4l18.6,12.2.4.4c1.4,1.4,2.2,3.3,2.2,5.3s-.8,3.9-2.2,5.3l-.4.4-18.6,12.2c-.8.6-1.8.8-2.7.8Z"/>
  <path class="st2" d="M836.1,437c-1.6,0-3.2-.8-4.2-2.3-1.5-2.3-.9-5.4,1.4-6.9l14.4-9.5-14.4-9.5c-2.3-1.5-2.9-4.6-1.4-6.9,1.5-2.3,4.6-2.9,6.9-1.4l18.6,12.2.4.4c1.4,1.4,2.2,3.3,2.2,5.3s-.8,3.9-2.2,5.3l-.4.4-18.6,12.2c-.8.6-1.8.8-2.7.8Z"/>
</svg>